<mxfile host="65bd71144e">
    <diagram id="R2LXI_6WhlAvKPvqk7IM" name="第 1 页">
        <mxGraphModel dx="2625" dy="1453" grid="1" gridSize="10" guides="1" tooltips="1" connect="1" arrows="1" fold="1" page="1" pageScale="1" pageWidth="900" pageHeight="1600" math="0" shadow="0">
            <root>
                <mxCell id="0"/>
                <mxCell id="1" parent="0"/>
                <mxCell id="9" value="service" style="shape=table;startSize=30;container=1;collapsible=0;childLayout=tableLayout;fontStyle=1;align=center;fontSize=24;fillColor=#fff2cc;strokeColor=#d6b656;shadow=0;rounded=1;columnLines=1;swimlaneFillColor=default;gradientColor=none;sketch=1;curveFitting=1;jiggle=2;fontFamily=Architects Daughter;fontSource=https%3A%2F%2Ffonts.googleapis.com%2Fcss%3Ffamily%3DArchitects%2BDaughter;" parent="1" vertex="1">
                    <mxGeometry x="150" y="60" width="490" height="260" as="geometry"/>
                </mxCell>
                <mxCell id="10" value="" style="shape=tableRow;horizontal=0;startSize=0;swimlaneHead=0;swimlaneBody=0;top=0;left=0;bottom=0;right=0;collapsible=0;dropTarget=0;fillColor=none;points=[[0,0.5],[1,0.5]];portConstraint=eastwest;fontSize=24;sketch=1;curveFitting=1;jiggle=2;" parent="9" vertex="1">
                    <mxGeometry y="30" width="490" height="58" as="geometry"/>
                </mxCell>
                <mxCell id="11" value="&lt;span style=&quot;text-align: left;&quot;&gt;thumb&lt;/span&gt;" style="shape=partialRectangle;html=1;whiteSpace=wrap;connectable=0;fillColor=none;top=0;left=0;bottom=0;right=0;overflow=hidden;fontSize=24;sketch=1;curveFitting=1;jiggle=2;fontFamily=Architects Daughter;fontSource=https%3A%2F%2Ffonts.googleapis.com%2Fcss%3Ffamily%3DArchitects%2BDaughter;" parent="10" vertex="1">
                    <mxGeometry width="172" height="58" as="geometry">
                        <mxRectangle width="172" height="58" as="alternateBounds"/>
                    </mxGeometry>
                </mxCell>
                <mxCell id="12" value="&lt;span style=&quot;text-align: left;&quot;&gt;url&lt;/span&gt;" style="shape=partialRectangle;html=1;whiteSpace=wrap;connectable=0;fillColor=none;top=0;left=0;bottom=0;right=0;overflow=hidden;fontSize=24;sketch=1;curveFitting=1;jiggle=2;fontFamily=Architects Daughter;fontSource=https%3A%2F%2Ffonts.googleapis.com%2Fcss%3Ffamily%3DArchitects%2BDaughter;" parent="10" vertex="1">
                    <mxGeometry x="172" width="155" height="58" as="geometry">
                        <mxRectangle width="155" height="58" as="alternateBounds"/>
                    </mxGeometry>
                </mxCell>
                <mxCell id="13" value="" style="shape=partialRectangle;html=1;whiteSpace=wrap;connectable=0;fillColor=none;top=0;left=0;bottom=0;right=0;overflow=hidden;fontSize=24;sketch=1;curveFitting=1;jiggle=2;" parent="10" vertex="1">
                    <mxGeometry x="327" width="163" height="58" as="geometry">
                        <mxRectangle width="163" height="58" as="alternateBounds"/>
                    </mxGeometry>
                </mxCell>
                <mxCell id="14" value="" style="shape=tableRow;horizontal=0;startSize=0;swimlaneHead=0;swimlaneBody=0;top=0;left=0;bottom=0;right=0;collapsible=0;dropTarget=0;fillColor=none;points=[[0,0.5],[1,0.5]];portConstraint=eastwest;fontSize=24;sketch=1;curveFitting=1;jiggle=2;" parent="9" vertex="1">
                    <mxGeometry y="88" width="490" height="57" as="geometry"/>
                </mxCell>
                <mxCell id="15" value="&lt;span style=&quot;text-align: left;&quot;&gt;zip&lt;/span&gt;" style="shape=partialRectangle;html=1;whiteSpace=wrap;connectable=0;fillColor=none;top=0;left=0;bottom=0;right=0;overflow=hidden;fontSize=24;sketch=1;curveFitting=1;jiggle=2;fontFamily=Architects Daughter;fontSource=https%3A%2F%2Ffonts.googleapis.com%2Fcss%3Ffamily%3DArchitects%2BDaughter;" parent="14" vertex="1">
                    <mxGeometry width="172" height="57" as="geometry">
                        <mxRectangle width="172" height="57" as="alternateBounds"/>
                    </mxGeometry>
                </mxCell>
                <mxCell id="16" value="&lt;span style=&quot;text-align: left;&quot;&gt;url/path&lt;/span&gt;" style="shape=partialRectangle;html=1;whiteSpace=wrap;connectable=0;fillColor=none;top=0;left=0;bottom=0;right=0;overflow=hidden;fontSize=24;sketch=1;curveFitting=1;jiggle=2;fontFamily=Architects Daughter;fontSource=https%3A%2F%2Ffonts.googleapis.com%2Fcss%3Ffamily%3DArchitects%2BDaughter;" parent="14" vertex="1">
                    <mxGeometry x="172" width="155" height="57" as="geometry">
                        <mxRectangle width="155" height="57" as="alternateBounds"/>
                    </mxGeometry>
                </mxCell>
                <mxCell id="17" value="" style="shape=partialRectangle;html=1;whiteSpace=wrap;connectable=0;fillColor=none;top=0;left=0;bottom=0;right=0;overflow=hidden;fontSize=24;sketch=1;curveFitting=1;jiggle=2;" parent="14" vertex="1">
                    <mxGeometry x="327" width="163" height="57" as="geometry">
                        <mxRectangle width="163" height="57" as="alternateBounds"/>
                    </mxGeometry>
                </mxCell>
                <mxCell id="56" value="" style="shape=tableRow;horizontal=0;startSize=0;swimlaneHead=0;swimlaneBody=0;top=0;left=0;bottom=0;right=0;collapsible=0;dropTarget=0;fillColor=none;points=[[0,0.5],[1,0.5]];portConstraint=eastwest;fontSize=24;sketch=1;curveFitting=1;jiggle=2;" parent="9" vertex="1">
                    <mxGeometry y="145" width="490" height="58" as="geometry"/>
                </mxCell>
                <mxCell id="57" value="&lt;span style=&quot;text-align: left;&quot;&gt;zipMd5&lt;/span&gt;" style="shape=partialRectangle;html=1;whiteSpace=wrap;connectable=0;fillColor=none;top=0;left=0;bottom=0;right=0;overflow=hidden;fontSize=24;sketch=1;curveFitting=1;jiggle=2;fontFamily=Architects Daughter;fontSource=https%3A%2F%2Ffonts.googleapis.com%2Fcss%3Ffamily%3DArchitects%2BDaughter;" parent="56" vertex="1">
                    <mxGeometry width="172" height="58" as="geometry">
                        <mxRectangle width="172" height="58" as="alternateBounds"/>
                    </mxGeometry>
                </mxCell>
                <mxCell id="58" value="&lt;span style=&quot;text-align: left;&quot;&gt;string&lt;/span&gt;" style="shape=partialRectangle;html=1;whiteSpace=wrap;connectable=0;fillColor=none;top=0;left=0;bottom=0;right=0;overflow=hidden;fontSize=24;sketch=1;curveFitting=1;jiggle=2;fontFamily=Architects Daughter;fontSource=https%3A%2F%2Ffonts.googleapis.com%2Fcss%3Ffamily%3DArchitects%2BDaughter;" parent="56" vertex="1">
                    <mxGeometry x="172" width="155" height="58" as="geometry">
                        <mxRectangle width="155" height="58" as="alternateBounds"/>
                    </mxGeometry>
                </mxCell>
                <mxCell id="59" value="" style="shape=partialRectangle;html=1;whiteSpace=wrap;connectable=0;fillColor=none;top=0;left=0;bottom=0;right=0;overflow=hidden;fontSize=24;sketch=1;curveFitting=1;jiggle=2;" parent="56" vertex="1">
                    <mxGeometry x="327" width="163" height="58" as="geometry">
                        <mxRectangle width="163" height="58" as="alternateBounds"/>
                    </mxGeometry>
                </mxCell>
                <mxCell id="18" value="" style="shape=tableRow;horizontal=0;startSize=0;swimlaneHead=0;swimlaneBody=0;top=0;left=0;bottom=0;right=0;collapsible=0;dropTarget=0;fillColor=none;points=[[0,0.5],[1,0.5]];portConstraint=eastwest;fontSize=24;sketch=1;curveFitting=1;jiggle=2;" parent="9" vertex="1">
                    <mxGeometry y="203" width="490" height="57" as="geometry"/>
                </mxCell>
                <mxCell id="19" value="&lt;span style=&quot;text-align: left;&quot;&gt;modelFolder&lt;/span&gt;" style="shape=partialRectangle;html=1;whiteSpace=wrap;connectable=0;fillColor=none;top=0;left=0;bottom=0;right=0;overflow=hidden;fontSize=24;sketch=1;curveFitting=1;jiggle=2;fontFamily=Architects Daughter;fontSource=https%3A%2F%2Ffonts.googleapis.com%2Fcss%3Ffamily%3DArchitects%2BDaughter;" parent="18" vertex="1">
                    <mxGeometry width="172" height="57" as="geometry">
                        <mxRectangle width="172" height="57" as="alternateBounds"/>
                    </mxGeometry>
                </mxCell>
                <mxCell id="20" value="&lt;span style=&quot;text-align: left;&quot;&gt;url&lt;/span&gt;" style="shape=partialRectangle;html=1;whiteSpace=wrap;connectable=0;fillColor=none;top=0;left=0;bottom=0;right=0;overflow=hidden;fontSize=24;sketch=1;curveFitting=1;jiggle=2;fontFamily=Architects Daughter;fontSource=https%3A%2F%2Ffonts.googleapis.com%2Fcss%3Ffamily%3DArchitects%2BDaughter;" parent="18" vertex="1">
                    <mxGeometry x="172" width="155" height="57" as="geometry">
                        <mxRectangle width="155" height="57" as="alternateBounds"/>
                    </mxGeometry>
                </mxCell>
                <mxCell id="21" value="" style="shape=partialRectangle;html=1;whiteSpace=wrap;connectable=0;fillColor=none;top=0;left=0;bottom=0;right=0;overflow=hidden;fontSize=24;sketch=1;curveFitting=1;jiggle=2;" parent="18" vertex="1">
                    <mxGeometry x="327" width="163" height="57" as="geometry">
                        <mxRectangle width="163" height="57" as="alternateBounds"/>
                    </mxGeometry>
                </mxCell>
                <mxCell id="109" value="" style="curved=1;endArrow=classic;html=1;sketch=1;hachureGap=4;jiggle=2;curveFitting=1;fontFamily=Architects Daughter;fontSource=https%3A%2F%2Ffonts.googleapis.com%2Fcss%3Ffamily%3DArchitects%2BDaughter;fontSize=16;entryX=1;entryY=0.5;entryDx=0;entryDy=0;" parent="9" target="56" edge="1">
                    <mxGeometry width="50" height="50" relative="1" as="geometry">
                        <mxPoint x="490" y="120" as="sourcePoint"/>
                        <mxPoint x="560" y="70" as="targetPoint"/>
                        <Array as="points">
                            <mxPoint x="520" y="130"/>
                            <mxPoint x="520" y="150"/>
                        </Array>
                    </mxGeometry>
                </mxCell>
                <mxCell id="60" value="modelFolder" style="shape=table;startSize=30;container=1;collapsible=0;childLayout=tableLayout;fontStyle=1;align=center;fontSize=24;fillColor=#fff2cc;strokeColor=#d6b656;shadow=0;rounded=1;columnLines=1;sketch=1;curveFitting=1;jiggle=2;swimlaneFillColor=default;gradientColor=none;hachureGap=4;fontFamily=Architects Daughter;fontSource=https%3A%2F%2Ffonts.googleapis.com%2Fcss%3Ffamily%3DArchitects%2BDaughter;" parent="1" vertex="1">
                    <mxGeometry x="150" y="400" width="490" height="170" as="geometry"/>
                </mxCell>
                <mxCell id="61" value="" style="shape=tableRow;horizontal=0;startSize=0;swimlaneHead=0;swimlaneBody=0;top=0;left=0;bottom=0;right=0;collapsible=0;dropTarget=0;fillColor=none;points=[[0,0.5],[1,0.5]];portConstraint=eastwest;fontSize=24;sketch=1;curveFitting=1;jiggle=2;hachureGap=4;fontFamily=Architects Daughter;fontSource=https%3A%2F%2Ffonts.googleapis.com%2Fcss%3Ffamily%3DArchitects%2BDaughter;" parent="60" vertex="1">
                    <mxGeometry y="30" width="490" height="70" as="geometry"/>
                </mxCell>
                <mxCell id="62" value="&lt;span style=&quot;text-align: left;&quot;&gt;uploads&lt;/span&gt;" style="shape=partialRectangle;html=1;whiteSpace=wrap;connectable=0;fillColor=none;top=0;left=0;bottom=0;right=0;overflow=hidden;fontSize=24;sketch=1;curveFitting=1;jiggle=2;hachureGap=4;fontFamily=Architects Daughter;fontSource=https%3A%2F%2Ffonts.googleapis.com%2Fcss%3Ffamily%3DArchitects%2BDaughter;" parent="61" vertex="1">
                    <mxGeometry width="172" height="70" as="geometry">
                        <mxRectangle width="172" height="70" as="alternateBounds"/>
                    </mxGeometry>
                </mxCell>
                <mxCell id="63" value="modelId" style="shape=partialRectangle;html=1;whiteSpace=wrap;connectable=0;fillColor=none;top=0;left=0;bottom=0;right=0;overflow=hidden;fontSize=24;sketch=1;curveFitting=1;jiggle=2;hachureGap=4;fontFamily=Architects Daughter;fontSource=https%3A%2F%2Ffonts.googleapis.com%2Fcss%3Ffamily%3DArchitects%2BDaughter;" parent="61" vertex="1">
                    <mxGeometry x="172" width="155" height="70" as="geometry">
                        <mxRectangle width="155" height="70" as="alternateBounds"/>
                    </mxGeometry>
                </mxCell>
                <mxCell id="64" value="zip文件" style="shape=partialRectangle;html=1;whiteSpace=wrap;connectable=0;fillColor=none;top=0;left=0;bottom=0;right=0;overflow=hidden;fontSize=24;sketch=1;curveFitting=1;jiggle=2;hachureGap=4;fontFamily=Architects Daughter;fontSource=https%3A%2F%2Ffonts.googleapis.com%2Fcss%3Ffamily%3DArchitects%2BDaughter;" parent="61" vertex="1">
                    <mxGeometry x="327" width="163" height="70" as="geometry">
                        <mxRectangle width="163" height="70" as="alternateBounds"/>
                    </mxGeometry>
                </mxCell>
                <mxCell id="65" value="" style="shape=tableRow;horizontal=0;startSize=0;swimlaneHead=0;swimlaneBody=0;top=0;left=0;bottom=0;right=0;collapsible=0;dropTarget=0;fillColor=none;points=[[0,0.5],[1,0.5]];portConstraint=eastwest;fontSize=24;sketch=1;curveFitting=1;jiggle=2;hachureGap=4;fontFamily=Architects Daughter;fontSource=https%3A%2F%2Ffonts.googleapis.com%2Fcss%3Ffamily%3DArchitects%2BDaughter;" parent="60" vertex="1">
                    <mxGeometry y="100" width="490" height="70" as="geometry"/>
                </mxCell>
                <mxCell id="66" value="&lt;span style=&quot;text-align: left;&quot;&gt;public&lt;/span&gt;" style="shape=partialRectangle;html=1;whiteSpace=wrap;connectable=0;fillColor=none;top=0;left=0;bottom=0;right=0;overflow=hidden;fontSize=24;sketch=1;curveFitting=1;jiggle=2;hachureGap=4;fontFamily=Architects Daughter;fontSource=https%3A%2F%2Ffonts.googleapis.com%2Fcss%3Ffamily%3DArchitects%2BDaughter;" parent="65" vertex="1">
                    <mxGeometry width="172" height="70" as="geometry">
                        <mxRectangle width="172" height="70" as="alternateBounds"/>
                    </mxGeometry>
                </mxCell>
                <mxCell id="67" value="&lt;div style=&quot;text-align: left;&quot;&gt;&lt;span style=&quot;background-color: initial;&quot;&gt;modelId&lt;/span&gt;&lt;/div&gt;" style="shape=partialRectangle;html=1;whiteSpace=wrap;connectable=0;fillColor=none;top=0;left=0;bottom=0;right=0;overflow=hidden;fontSize=24;sketch=1;curveFitting=1;jiggle=2;hachureGap=4;fontFamily=Architects Daughter;fontSource=https%3A%2F%2Ffonts.googleapis.com%2Fcss%3Ffamily%3DArchitects%2BDaughter;" parent="65" vertex="1">
                    <mxGeometry x="172" width="155" height="70" as="geometry">
                        <mxRectangle width="155" height="70" as="alternateBounds"/>
                    </mxGeometry>
                </mxCell>
                <mxCell id="68" value="解压后文件夹" style="shape=partialRectangle;html=1;whiteSpace=wrap;connectable=0;fillColor=none;top=0;left=0;bottom=0;right=0;overflow=hidden;fontSize=24;sketch=1;curveFitting=1;jiggle=2;hachureGap=4;fontFamily=Architects Daughter;fontSource=https%3A%2F%2Ffonts.googleapis.com%2Fcss%3Ffamily%3DArchitects%2BDaughter;" parent="65" vertex="1">
                    <mxGeometry x="327" width="163" height="70" as="geometry">
                        <mxRectangle width="163" height="70" as="alternateBounds"/>
                    </mxGeometry>
                </mxCell>
                <mxCell id="83" value="&lt;span style=&quot;font-family: Helvetica; font-size: 24px;&quot;&gt;解压后&lt;/span&gt;" style="text;html=1;strokeColor=none;fillColor=none;align=center;verticalAlign=middle;whiteSpace=wrap;rounded=0;sketch=1;hachureGap=4;jiggle=2;curveFitting=1;fontFamily=Architects Daughter;fontSource=https%3A%2F%2Ffonts.googleapis.com%2Fcss%3Ffamily%3DArchitects%2BDaughter;fontSize=20;" parent="1" vertex="1">
                    <mxGeometry x="670" y="180" width="100" height="30" as="geometry"/>
                </mxCell>
                <mxCell id="91" value="modelFolder" style="swimlane;startSize=20;horizontal=1;childLayout=treeLayout;horizontalTree=0;resizable=0;containerType=tree;fontSize=12;sketch=1;hachureGap=4;jiggle=2;curveFitting=1;fontFamily=Architects Daughter;fontSource=https%3A%2F%2Ffonts.googleapis.com%2Fcss%3Ffamily%3DArchitects%2BDaughter;gradientColor=none;" parent="1" vertex="1">
                    <mxGeometry x="250" y="720" width="420" height="190" as="geometry"/>
                </mxCell>
                <mxCell id="92" value="model" style="whiteSpace=wrap;html=1;sketch=1;hachureGap=4;jiggle=2;curveFitting=1;fontFamily=Architects Daughter;fontSource=https%3A%2F%2Ffonts.googleapis.com%2Fcss%3Ffamily%3DArchitects%2BDaughter;fontSize=20;gradientColor=none;" parent="91" vertex="1">
                    <mxGeometry x="160" y="40" width="100" height="40" as="geometry"/>
                </mxCell>
                <mxCell id="93" value="Low" style="whiteSpace=wrap;html=1;sketch=1;hachureGap=4;jiggle=2;curveFitting=1;fontFamily=Architects Daughter;fontSource=https%3A%2F%2Ffonts.googleapis.com%2Fcss%3Ffamily%3DArchitects%2BDaughter;fontSize=20;gradientColor=none;" parent="91" vertex="1">
                    <mxGeometry x="20" y="130" width="100" height="40" as="geometry"/>
                </mxCell>
                <mxCell id="94" value="" style="edgeStyle=elbowEdgeStyle;elbow=vertical;html=1;rounded=1;curved=0;sourcePerimeterSpacing=0;targetPerimeterSpacing=0;startSize=6;endSize=6;sketch=1;hachureGap=4;jiggle=2;curveFitting=1;fontFamily=Architects Daughter;fontSource=https%3A%2F%2Ffonts.googleapis.com%2Fcss%3Ffamily%3DArchitects%2BDaughter;fontSize=16;" parent="91" source="92" target="93" edge="1">
                    <mxGeometry relative="1" as="geometry"/>
                </mxCell>
                <mxCell id="95" value="Middle" style="whiteSpace=wrap;html=1;sketch=1;hachureGap=4;jiggle=2;curveFitting=1;fontFamily=Architects Daughter;fontSource=https%3A%2F%2Ffonts.googleapis.com%2Fcss%3Ffamily%3DArchitects%2BDaughter;fontSize=20;gradientColor=none;" parent="91" vertex="1">
                    <mxGeometry x="160" y="130" width="100" height="40" as="geometry"/>
                </mxCell>
                <mxCell id="96" value="" style="edgeStyle=elbowEdgeStyle;elbow=vertical;html=1;rounded=1;curved=0;sourcePerimeterSpacing=0;targetPerimeterSpacing=0;startSize=6;endSize=6;sketch=1;hachureGap=4;jiggle=2;curveFitting=1;fontFamily=Architects Daughter;fontSource=https%3A%2F%2Ffonts.googleapis.com%2Fcss%3Ffamily%3DArchitects%2BDaughter;fontSize=16;" parent="91" source="92" target="95" edge="1">
                    <mxGeometry relative="1" as="geometry"/>
                </mxCell>
                <mxCell id="97" value="" style="edgeStyle=none;sketch=1;hachureGap=4;jiggle=2;curveFitting=1;html=1;exitX=0.5;exitY=1;exitDx=0;exitDy=0;" parent="91" source="92" target="98" edge="1">
                    <mxGeometry relative="1" as="geometry">
                        <Array as="points">
                            <mxPoint x="210" y="100"/>
                            <mxPoint x="351" y="100"/>
                        </Array>
                    </mxGeometry>
                </mxCell>
                <mxCell id="98" value="High" style="whiteSpace=wrap;html=1;sketch=1;hachureGap=4;jiggle=2;curveFitting=1;fontFamily=Architects Daughter;fontSource=https%3A%2F%2Ffonts.googleapis.com%2Fcss%3Ffamily%3DArchitects%2BDaughter;fontSize=20;gradientColor=none;" parent="91" vertex="1">
                    <mxGeometry x="300" y="130" width="100" height="40" as="geometry"/>
                </mxCell>
                <mxCell id="99" value="service" style="rounded=1;whiteSpace=wrap;html=1;sketch=1;hachureGap=4;jiggle=2;curveFitting=1;fontFamily=Architects Daughter;fontSource=https%3A%2F%2Ffonts.googleapis.com%2Fcss%3Ffamily%3DArchitects%2BDaughter;fontSize=20;gradientColor=none;" parent="1" vertex="1">
                    <mxGeometry x="-20" y="165" width="100" height="60" as="geometry"/>
                </mxCell>
                <mxCell id="100" value="file" style="rounded=1;whiteSpace=wrap;html=1;sketch=1;hachureGap=4;jiggle=2;curveFitting=1;fontFamily=Architects Daughter;fontSource=https%3A%2F%2Ffonts.googleapis.com%2Fcss%3Ffamily%3DArchitects%2BDaughter;fontSize=20;gradientColor=none;" parent="1" vertex="1">
                    <mxGeometry y="470" width="90" height="60" as="geometry"/>
                </mxCell>
                <mxCell id="101" value="upload file" style="rounded=1;whiteSpace=wrap;html=1;sketch=1;hachureGap=4;jiggle=2;curveFitting=1;fontFamily=Architects Daughter;fontSource=https%3A%2F%2Ffonts.googleapis.com%2Fcss%3Ffamily%3DArchitects%2BDaughter;fontSize=20;gradientColor=none;" parent="1" vertex="1">
                    <mxGeometry x="-210" y="320" width="120" height="60" as="geometry"/>
                </mxCell>
                <mxCell id="102" value="" style="curved=1;endArrow=classic;html=1;sketch=1;hachureGap=4;jiggle=2;curveFitting=1;fontFamily=Architects Daughter;fontSource=https%3A%2F%2Ffonts.googleapis.com%2Fcss%3Ffamily%3DArchitects%2BDaughter;fontSize=16;entryX=0;entryY=0.5;entryDx=0;entryDy=0;" parent="1" target="99" edge="1">
                    <mxGeometry width="50" height="50" relative="1" as="geometry">
                        <mxPoint x="-90" y="350" as="sourcePoint"/>
                        <mxPoint x="-40" y="300" as="targetPoint"/>
                        <Array as="points">
                            <mxPoint x="-50" y="340"/>
                            <mxPoint x="-40" y="310"/>
                            <mxPoint x="-40" y="290"/>
                            <mxPoint x="-40" y="260"/>
                            <mxPoint x="-40" y="230"/>
                            <mxPoint x="-40" y="190"/>
                        </Array>
                    </mxGeometry>
                </mxCell>
                <mxCell id="104" value="" style="curved=1;endArrow=classic;html=1;sketch=1;hachureGap=4;jiggle=2;curveFitting=1;fontFamily=Architects Daughter;fontSource=https%3A%2F%2Ffonts.googleapis.com%2Fcss%3Ffamily%3DArchitects%2BDaughter;fontSize=16;entryX=0;entryY=0.5;entryDx=0;entryDy=0;exitX=1;exitY=0.5;exitDx=0;exitDy=0;" parent="1" source="101" target="100" edge="1">
                    <mxGeometry width="50" height="50" relative="1" as="geometry">
                        <mxPoint x="-80" y="350" as="sourcePoint"/>
                        <mxPoint x="-10" y="550" as="targetPoint"/>
                        <Array as="points">
                            <mxPoint x="-30" y="370"/>
                            <mxPoint x="-30" y="480"/>
                            <mxPoint x="-30" y="500"/>
                        </Array>
                    </mxGeometry>
                </mxCell>
                <mxCell id="106" value="" style="curved=1;endArrow=classic;html=1;sketch=1;hachureGap=4;jiggle=2;curveFitting=1;fontFamily=Architects Daughter;fontSource=https%3A%2F%2Ffonts.googleapis.com%2Fcss%3Ffamily%3DArchitects%2BDaughter;fontSize=16;entryX=-0.007;entryY=0.89;entryDx=0;entryDy=0;entryPerimeter=0;exitX=1;exitY=0.5;exitDx=0;exitDy=0;" parent="1" source="99" target="14" edge="1">
                    <mxGeometry width="50" height="50" relative="1" as="geometry">
                        <mxPoint x="100" y="200" as="sourcePoint"/>
                        <mxPoint x="150" y="150" as="targetPoint"/>
                        <Array as="points"/>
                    </mxGeometry>
                </mxCell>
                <mxCell id="107" value="" style="curved=1;endArrow=classic;html=1;sketch=1;hachureGap=4;jiggle=2;curveFitting=1;fontFamily=Architects Daughter;fontSource=https%3A%2F%2Ffonts.googleapis.com%2Fcss%3Ffamily%3DArchitects%2BDaughter;fontSize=16;entryX=-0.004;entryY=0;entryDx=0;entryDy=0;entryPerimeter=0;exitX=1;exitY=0.5;exitDx=0;exitDy=0;" parent="1" source="100" target="65" edge="1">
                    <mxGeometry width="50" height="50" relative="1" as="geometry">
                        <mxPoint x="110" y="550" as="sourcePoint"/>
                        <mxPoint x="100" y="660" as="targetPoint"/>
                        <Array as="points"/>
                    </mxGeometry>
                </mxCell>
                <mxCell id="112" value="解压后树结构" style="text;html=1;strokeColor=none;fillColor=none;align=center;verticalAlign=middle;whiteSpace=wrap;rounded=0;sketch=1;hachureGap=4;jiggle=2;curveFitting=1;fontFamily=Architects Daughter;fontSource=https%3A%2F%2Ffonts.googleapis.com%2Fcss%3Ffamily%3DArchitects%2BDaughter;fontSize=20;" parent="1" vertex="1">
                    <mxGeometry x="500" y="660" width="140" height="30" as="geometry"/>
                </mxCell>
                <mxCell id="113" value="" style="curved=1;endArrow=classic;html=1;sketch=1;hachureGap=4;jiggle=2;curveFitting=1;fontFamily=Architects Daughter;fontSource=https%3A%2F%2Ffonts.googleapis.com%2Fcss%3Ffamily%3DArchitects%2BDaughter;fontSize=16;entryX=0.5;entryY=0;entryDx=0;entryDy=0;" parent="1" target="91" edge="1">
                    <mxGeometry width="50" height="50" relative="1" as="geometry">
                        <mxPoint x="550" y="570" as="sourcePoint"/>
                        <mxPoint x="600" y="520" as="targetPoint"/>
                        <Array as="points">
                            <mxPoint x="560" y="640"/>
                            <mxPoint x="460" y="650"/>
                        </Array>
                    </mxGeometry>
                </mxCell>
                <mxCell id="114" value="" style="shape=image;verticalLabelPosition=bottom;labelBackgroundColor=default;verticalAlign=top;aspect=fixed;imageAspect=0;image=data:image/png,iVBORw0KGgoAAAANSUhEUgAABaQAAAH+CAYAAABjgAkmAAAACXBIWXMAABYlAAAWJQFJUiTwAAAgAElEQVR4nOydd2BUVdrGf+dOSSGEUEJVhCAggiJSBdvadt1lV1fZVVGwoS6syuJaFnQFd8WCDdRPVBSlW8C6oruKDRCkCYg0adIJaSSBJFPu+f64JTOZBFMmEOT9aUjmtufcO3fmnfPMe96jtNYaQRAEQRAOy969e1FKkZaWhlIKwP1dFcruU1EYLigoAKBRo0ZV1hAEQRCE4w2J04IgCIJQdykbp42j3SBBEARBEARBEARBEARBEATh+EAMaUEQBEEQBEEQBEEQBEEQBOGIIIa0IAiCIAiCIAiCIAiCIAiCcEQQQ1oQBEEQBEEQBEEQBEEQBEE4IoghLQiCIAiCIAiCIAiCIAiCIBwRxJAWBEEQBEEQBEEQBEEQBEEQjghiSAuCIAiCIAiCIAiCIAiCIAhHBDGkBUEQBEEQBEEQBEEQBEEQhCOCGNKCIAiCIAiCIAiCIAiCIAjCEcF7JETC4TDFxcUUFxcTDAYJh4OEQiam1iitCWsNWgMK0KCVZZVrDcp+jLUK5RxVoZTG1BGL0CgMtNbuoSJWuiil0VqhsWRMdzPRF33RF33Rr2v6SikUCmVYf3s8XrxeDz6fj8TERBITE/F4PLFigiAIgiAIgiAIgiDUOWrVkNZoCvILKCwspKioqNRvsM0MeyNKnQt7mTJdE0RrA2XtVMa9sJZZNoWlBQqNRivrLwyF0speVyphagOltPVQ29uKvuiLvuiLfp3U16ZGGxpC1qahUIhAiR1LOEBiUiIpKSnUr18fpcpxwQVBEARBEARBEARBqDPUWskO0zTJzs5h//4sioqLcAwMy0LQKK1c/6E0jc62JpSK2haF61e4RrZlfVi/lVl6LK1QyjJKtCMZYaCIvuiLvuiL/i9Lv+hQEfv37ycnOwfTNBEEQRAEQRAEQRAEoe5SK4a01prc3FwO5OViGREaUKCcodeglbaGdmPn1dmmhUKhTdBKgTIsEwJ7f+zlrkNhN18rd1S5NcTbPZLoi77oi77oHyf6eQfyyM3NRbtmtyAIgiAIgiAIgiAIdY1aMaQLCgrIy8tD2caBtodQa9PyJkxt+RZKOYaCYT22HoACwzEyFJjaTo8DMCk1OnAMDXvfqKHaWvRFX/RFX/SPM/28vDwKCvIRBEEQBEEQBEEQBKFuEndDOhwOU1hYGOESaJS2/jbs4daGsq0EZZkK2l5uWpu7VoNjb7g2h7Iy4TQalGGtUWCibB3bxLCXi77oi77oi/7xp19YWEg4HEYQBEEQBEEQBEEQhLpH3A3pouJiioqKUIBTylNbroE7rFo7G2unCdYSpUBrE21qTG0S1iamWfqjtGmbE8pKs7NNCIU91FsptKEcxWrpO/VPUaXbO4i+6Iu+6It+3dcvLi6iqKgYQRAEQRAEQRAEQRDqHt54HzBQXIwCtNYoZQ2uNtDoUt+hDBptQliHCQZKUChMbU1XZWjblLBNCq/Xi+Hx4PFYPro1ktuqS2rVDNUYtkZV9BUGppNhZ7UeraP1rcw9u5qpY6yIvuiLvuiLfp3ULykpJiWlXnmiQg0wTZNAIEAgEEDr0lrgFf12cLbVWtOoUSO83rh//BAEQRCE4x6J04IgCMKxQvwN6WAQ7ZgEmBhKobWidJYphVUI1EqBM80wwVCQr7ce4JuDKeBJwlAKsIZbe70eKzgGimltZvHHjvVJTkoCpTAMy+UwtULZKXhaAWbl9cEaMq7sdDyNZaSgNVrZLopW1nIrD8+Zt8sacS76oi/6oi/6dU4/GAwgxJ/i4mK3HIqyvx1wv4Ao57eDUopwOExubi4+n4+UlBR8Pt9ROQdBEARB+KUicVoQBEE4Voi7IR0KhUBZGc4aZTkH9iOtlG0iKKtgqLK+hT1YUMAnWQkEfD50IIRpgtJWIPX4TKxR2F7yPOnkrNzH9V1C1EtJdpuvCDsKpQ1xTAt3maXvUZ4ofQClrYw8DIU2VekxlHaNFKWw/tYKrbS9zkrfMyKVbKeksucv+qIv+qIv+vHXD4akhnRtUFxcjM/ni+rQQuU6u1prioqKMAyDwsJC6ewKgiAIQpyROC0IgiAcK8TdkA6bpSaAO+QaVfrYto2dYdfBQJCCg4fIKmlMUVGQsNdDSdgkbBcg9XrDKAVGSJPkNcjyp7N7TR6/bXKQTk3rk+xXKI/HzrDTOMO7IcKzsBcaShEAfH4/hlIYysDOrcNQYGqNYVi5eFqriCHk2MaIYu7HHxEMhujQoT2dOp0KmJhKlatfmfOvqj72DGFaWxmDoi/6oi/6oh+rr8WQrhWCwSB+vz+mQws/39nVWhMIBPD5fIRCoVrr7L711lsEg0G6dOlC165d43rsXwrr1q1jxowZnHbaaVx11VXuctM0mTZtGlu3bmXw4MFkZGQcxVbC+vXrWb58OUoprrrqKjwez1Ftzy8Nea3EIveccKxzLMTpXyIrVqxg3bp1JCQkMGDAAHf5hg0bmD59Op06dWLgwIFHsYU1R2JG7SLXNxaJyb984m5ImyaWC2E4+cp2lptSpZ6C6xpYGdLBYJCsEs2hsEmRRxM0wQzbM2J5bUMiYOIzTBL9mr2+VH7c58G3X+F14qO9uRm2VMMea4GBddP60HiUJokS/tAgjwvaNcLn82IoD8qwArEB1vBy3Hw76wx06RD0//u//yMYDDJgwABO7dTJzgJ0bRVMO3mv8udPlfQVCqW0PSxdi77oi77oi345+mbEMYT44XRay+vIVtTJdX6Hw2ECgUBUXcra6Ow+/PDDBAIBbrrpJvlAXwH33HMPmzZtYvbs2XTo0IFu3boB8OWXX/Loo48CsHnzZqZNm3Y0m8n8+fN56qmnALj88stJTk4+qu35pSGvlVjknhOOdY6FOP1LZO7cuUyfPp2UlJQoQ3rkyJGsXbsWgHbt2tG7d++j1cQaIzGjdpHrG4vE5F8+8Z+tQJugTLRWVkacodwkN7CMBss6sIwGjSYUDJAN5ITBPFSMJwzhoLW9x2c10cl28yaEyfUofIDPMPCatu2RYE10iJ1ZjWE9DgdLrOMoUB4D7fGyJy+B3s0KadAgzboC2mqRVtoub2obHU6blQYFho5YBvY2GkWp+WIlBOpKn791iMrra3s/S1P0RV/0RV/0y9PHFEO6tiivIxtJRZ3dcDhMMBiMyW6Qzu6Rx7A/I5Ul8rks+7wKgiAIxwYSp+sOElcFQRAqphYMaecbWCyzwa4V6uSwOQOtLS+i9NvanIAJxSYUmeiwBtuQ1j77jds2pANBy3AucTKoQ/b6xPINaTNo7Wco8PgMlN9HQZKXwkN5JCcn4fEmo5TCRJcp8aFwFig7y8+aZMtulwKttGVSOxmAyhpmrqtw/hpVJX0rk1CjDdCIvuiLvuiLfnn6WokhXZuUNxlSIBDCsDPeI4f/glUKIhgKUxIIlGuGSmf3yDJu3DhmzZpF586d3exogPPOO49Ro0axbds2rrvuuqPYQkEQBKEmSJyuGzz66KPMnDmTjh070qtXr6PdHEEQhDpFLZTs0LYbgGU32waD1gpDYeeyWdlrjsGrNbTwevlD3xNo0sCP3+shGLYO47f9Zm1Yf7gmtu07O2HWrtSBO8LIWW/7FaEwlITCZBeV8J81uwkUB7AGidt+hlagTMcucY+hDG0NA8eIzrjToEztzKtlnZXW9rD0qpy/rpK+fWhLX4u+6Iu+6P9y9PMP5JOQ4CcxManG+mZEJ0yoHSIzfQKBAH6/B68dq+1n2kVrjRnykZKcZG/rjzqW1pqCggJSU1OjhgoLtcMpp5zCQw89FLPcMAwGDx58FFokCIIgxBuJ00efDh06MGbMmKPdDEEQhDpJ3KOJ5QVYpoYzsNryCOy/bLNAueYEoOCSzs1p2CAJf4IHn6FQHitEOgnSWpUeH3ANadN+bNiP7Qof1ijwiP10SOPzeEjzebioU3PCB39COxvZbVH2EHLl2N5Ko7VhZ+iZpeLOTkq52XhOVFdA2NTk5GSTk51DUnIS6U2bkpiQcNjzr6x+qV2kSo2YMvrVuf6iL/qiL/pHW3/hwoU0btSI07t2JSkpscb6Qu1Qth5lcXExjRs3ZuuubHbvL8YwFLjXXzsDpygpCeJPSGPDhg1kZWXh9/vx+Xx4vV68Xi9JSUkEg0EaNWp0TGdgFRYWsm3bNpo1a0Z6enqV9z948CBbtmyhVatWNGrUqFL7FBcXs2vXLgKBAG3btiUxMbHKulXBNE127txJUVERbdu2jTEuapt9+/aRmZlJ8+bNK32Na9LmrKws9u7dS5s2bUhJSam03t69e8nKyqJx48Y0b9680pPxHDx4kN27d2OaJu3atau0+WOaJvv37yczM5OUlBRatGgRl3vh4MGD7Nmzh+LiYpo3b07jxo2p6tDzffv2sXfvXjIyMqhfv36N21QVavJcOFTnnnPQWrNr1y7y8vJo1aoVDRs2rNL+glBVJE4fnpq8pxUXF7Nz507C4TBt2rQhISEhLm2qaVytzmeHeFBcXMy2bdvw+XyccMIJlb4e1T3fYDDIli1bSEpK4sQTT6z081ZYWMiuXbvQWtOqVasqxaHqxuR4xM7aOG4wGGTjxo0kJCRw8skn17g9VUVishBJ3A1p7f5rVwtVyq69rLEmnYqo+VkaB0mul4ipoCSkMQ2Fzx5uXeJsU+odA2BX7iDJvned7UrsUh/2l79u5rRH2ea0qUlJ8KMPRuu7r2FleR/a0BjaKDVNDOWcnH161jkqNJjW6lA4zIzpM/joo4/Izc11r4PH46Ffv37ceMONtDyhlXv+mzZv4q/D/grAyFEjOf+886P0V323ivvuuw+AO+68g/6/62+ZLVqDoflx4yZuv93a/4H77+ec886t+vXXVTv/SH13OL1ZenlEX/RFX/Srq9+ocSPWfP8DIR2m2+ndSK6XXDN9odZwOrsHDxaT4Fds3pHLrMWH8CZEml/WE2tlsyu09hAsgj+e4afTKY0oPBQgpV4SUFrT2Ok411ZHd+3atdx0003k5+eTmprK22+/zYknnshf/vIXvv76a7p27cqsWbPK3ffmm29m0aJF9OzZkylTpkStCwaDvPjii7zzzjvs2bPHXd6kSRO6d+/OmDFjYj7w5uTkcPbZZwMwevRomjdvznPPPce6desIh61yY02bNuUf//gHv/3tb8ttU3Z2NuPGjeOjjz4iFAoB1jW8+OKL+cc//sHUqVOZOnUqDRo0YNGiRe5+TzzxBK+99hopKSksWbLEXV5cXEz37t3RWnP33Xdz0003RemtX7+esWPH8v3331NcXAyAz+fj5JNP5oYbbuCyyy6r+OLXENM0efPNN3n++efZv3+/u7xdu3bcddddXHjhheXuV902FxUV8fjjj/PFF1+wb98+d3mrVq247rrruOGGG8rtAIZCIV566SWmT59ufxa0SEtL4+qrr+b222+vsDO7Zs0aJkyYwPz5891lfr+fTp06MXDgwArbGgqFmDhxIm+++SZZWVnucq/Xy0UXXcTf/vY32rRpU+6+h+P7779nwoQJLFiwIGr5CSecwPXXX8+gQYNi9il7XyulmDx5Mtu2bQNg7NixXHnllVH7DBs2jC+//JK2bdvy0UcfxRxz0KBBLF++nCZNmvDVV1/FXHdn/5NPPpkPPvjAXV6T5wKqd8/9+9//ZtasWTRp0oR58+bx+uuv89JLL1FYWOhuc8YZZ3Dvvfdy5plnVqgtCDWlrsbpOXPm8M9//rNS244dO5Y//vGPADWO01C99zSH3NxcnnjiCT744AM33hqGwSWXXMLdd99d4X5PP/00r7zyCklJSSxfvjxmfVVjVDw+O8SD7du3M27cOObNm+d++eHz+bjsssu49957SU1NLXe/6sbkxYsX89RTT7F+/XqCQcvwSUpKolu3bowePZqTTjqp3P2+//57xo8fz8KFC6OW9+7dm7vuuuuwkwdWNybX5D47HNU5bmRMev/997nvvvtYunQpRUVFtGjRgi+++CJmH4nJwpEk/uNtbJNBodF2erJjFChMDBSuP2HaYVBDSCuKTfBqCOnS0tAh2w9xyoGWNaQdip0/HOPa3tCM8FPCJoRMS8vZVoH9rbC2zBitUCiUBlPpUl0dUYfLOUdtWsPOlWWwjH9mPP/9739LG2VnHIbDYb76+mvWr1/PhPHjaZzeBDS0PaktSUlJHDp4iNWrVnH++edF6S9ZttTVXLpkKf1/2x+ttJsR+P3qVe76zl26OBe5atdfVe38I/XLnr/oi77oi35N9Hv06InC4PvvV2OGTc7sdib16tWrkb4QfyIzrwyPwusxyCk0qV+/Pg2TlB23nSekFK/hIzchgWJtklrfQFOM3x/dodVaU1xcXCsZlOvXr+emm24iLy+PtLQ0Jk+ezIknnghYH5JN03Q7OeVR0TZFRUUMHDiQdevWxeyTlZXFf//7XzZs2MCrr75Kq1at3HXhcBjTnvdi+fLl/O9//3M7Zw6ZmZncddddHDx4kD/96U9R60pKShg6dCirV6+OWq615n//+x+rV6+mW7du5ba5onMxTdPt0Dq/Hd577z0eeOABtyPuEAwGWbduHffddx979uzhL3/5S8x1iAfPPvssU6dOjVm+efNm7rzzTiZPnkzv3r3j0ubMzEyGDBnCxo0b3WXOfb9r1y4ef/xxFi9ezEsvvRTTnocffpg33ngjZnleXh4vvvgiOTk5/Otf/4pZv2nTJvfLkkgCgQCrVq1i1apVrF27lvvuuy+mvuvo0aOZM2dOzDFDoRCffPIJq1evZtasWTRr1ixmm4rYsGEDN954Y1SnzWHnzp2MHTuWgwcPxly7yPt6/vz5fP755+7jiujevTuff/45mzdvJisriyZNmrjrCgoKWLFiBaZpkpmZyfr16+nUqZO73jRNli1bhmmaMZ3J6j4XDtW55yJfW6NHj+add96J2X/lypXccsstvP3222RkZFR8YQShmtTlOO28RipDZByqSZyG6r+nOcf929/+xrfffhu13DRNPvnkE1asWFGhmXW4NlUnRtX0s0M82LdvH9dccw3Z2dkx7Z49ezZ79+7lpZdeisl6rW5Mnjp1Ko899ph73s79XVRUxDfffMMf//hHXnjhBfr06RO135YtW7jpppsoKCiIOYdvv/2WIUOG8MYbb9CuXbuY9dWNyTW5zw5HdY/r3H/FxcWMGDGCxYsX/6yWxGThSBJ/Q9rEMjai4ps1iNodCq5t38CtvwEBNB6t8WAZFMW2EeK8XXntuOV1vGT7d6ETp8p4D04JDydTukRbNUXNsDXvoYJS11rZbXMy7pTVXudc0Apt6JhT1aXOCK+/NsUyozV06NiB3/3ud3Tp0oXdu3ezcOFCPvnkEzIzMxl1//0888wz1EtOxuP1cuaZZ7JgwQJWr/4enOHptv6yJUudy8fKlSsJhUPut0YaWGV3QjMyMqyhOao6119X6fyVe0Tn+lnbO+a76Iu+6It+dfW9HkWPHt3xegxWrlpFOBSm+5k9qN8gpQb6Qm3gZEMopUApfD4DvyeMQlHa/bA6u+6XuSb4DY3PjWOa8iZdKttRiQcbNmzghhtuIC8vjyZNmvDaa6/Rvn37uBz7rbfecs3os88+m+uuu4527dqxZs0a5s6dy6effsq2bduYMmUKo0aNKvcYH3zwAWlpaYwcOZKePXsC8P777zNp0iRM0+Tpp5+mf//+JCVZmWpaa+677z7XjO7WrRt//vOf6datGz/++CNz587l448/5uOPP47LOZaUlPDkk08SCoXw+/3cc8899OjRA9M0+frrr5k5cyb79+9n/PjxXH311aSlpcVFN5KpU6eSnp7O4MGDOfvsszlw4ABffPEFU6dOJRwOM3z4cObMmeOa/jVp8+zZs10z+vrrr+eWW24hNTWVlStX8uyzz7Js2TK++uorFi9eHNUBfu2119zOVrdu3Rg4cCCdO3dm3bp1TJ8+ne+++4633nqLk046iZtvvtndb9++fQwZMoT8/HyUUgwaNIgLLriA1NRUvv76a+bMmcOOHTuYMmUK3bp14ze/+Y2774QJE1wzukuXLlx11VV0796d7du389lnnzF79mx2797NrbfeyowZMypVcmT37t3ccsstFBYWYhgGN954I+eccw6NGjVi8eLFTJ8+ne3btzN+/HiaNm3KFVdcUe5xPvvsMxISEhg8eDBnnnkmDRo0cL8EiuScc87hiSeeAGDZsmVR57do0aIoU2rBggVRnd8NGza4hsE555xT4+cikqrec5Hk5ubyzjvv0KZNG6699lrOOussdu7cyf/+9z/eeecdDh48yF//+lfeeuutI17CRDg+qKtx+ve//32Mcehw6NAhbr75ZnJycmjRokWFI1+qSk3f0x577DHXjO7cuTNXX3013bt3Z+PGjXz44YfMmzePTz75pEptikdcrepnh3jhZM3++te/pn///rRr146lS5cya9Ys1q9fz4IFC3jqqae49957a3y+xcXFPPPMM5imSatWrRg7dizdu3dn//79fPHFFzz88MMcOnSI5557Luq+ysnJ4dZbb6WgoACv18ttt93GOeecg1KK+fPnM3HiRAoKCrj11lt5++23o8qcVDcmxyt2liUex83Pz2fx4sV0796d/v37c8opp1SoJzFZYvKRpFYypBVO1hugFUqZ6AgzwjISLMfYyZ478ljKkfraNk7AMrxdT8POFNQR+0b6HdlZOcycMRMUNGvejEfGjiW1QQMATjyhNX1698Lr9fKf//yHrVu28p///Ier/mx9W9mjRw/mL1jA9u3byc3LpaH95puZneUOb/T5fRQVFfHDDz9wRteuVju1NYwEoGfPnnb7lGsmVef6V+b8lb2d4RzP0RB90Rd90Y+DvsfjoeuZ3fB4vaxYsYJwOEzvXr1IqV+/6vpCreB0TqM6qdrERwifMghFREuPYWAYBoYyUAZowhiG9WxHdpZ1LT5pGzdudM3oZs2a8frrr9O2bdu4Hf+nn36id+/eNGzYkEcffdTt+J144olceOGFnHvuueTl5UWVxihLQkICL7/8Mqeffrq7bMSIEeTk5PD222+Tm5vL5s2b6dKlC2B94Hc6v+3bt+eVV16hXr16ALRp04aLL74Yr9fLhx9+GJdz3LhxI+3ataNdu3Zcc801UZ2Tzp07k5SUxGOPPQZYGVvxMhEi8fl8PP/881HDa/v06UODBg149tlnycvL44UXXmDs2LE1bvOnn34KWF/4jxw50l3eq1cvxo8fz6hRoygpKWHLli1uBzgrK4tx48YB1iRWkyZNcs3fjIwMzj33XK6++mo2b97MM888w6BBg9yamS+88AJ79+4F4I477mDYsGGu5qmnnsoll1zC5ZdfTiAQYPr06e65ZGZmMnHiRMAqJTJp0iS3NExGRgbnn38+Xq+XN954gw0bNvDGG28wZMiQn73WL774IpmZmQAxpVs6dOjAueeey4ABAygsLOThhx/m8ssvj8naBkhMTOTVV1+le/fuh9Xr0KEDTZs2JTMzkyVLlkQ9V87Q5MTERIqLi5k/fz633HKLu955XXm9XjczqibPRSRVvefKkpqayqRJk1wT/uSTT+b8889HKcWcOXPYunUrM2bMqLVRBcLxS12O08nJyRWWV3Dins/n49lnn41bbdeavKdt376d6dOnA9CiRQteeeWVqPfZSy65hNtuuy2qrENliEdcrepnh3hywQUXMH78ePceycjI4MILL+SKK64gMzOTyZMnM3jwYJo3b16j8124cCFFRUWA9dw5Mbdly5Zce+21mKbJZ599BlhfaCQnW+X+nn/+eXbu3AlYZRuc0i8AXbt2pWnTpjz44IPs2rWL6dOnc+edd7rrqxuT4xU7yxKv415yySU89dRTP1tuR2KyxOQjyc+/AqpBlMmgsIZVOyhrC401NNwxdz1h6yekNQGtKbZ//IAfCNg/YWX/hDXhsMY0rR+fsiZANMPa+sGyPA6FNYfCGn9Y4Q+D6QXtI0YfwFClWYCq1O0ox9xQrjmjUGzY+KOVlQfceeedpDZoEHP+Q4cOpXHjxqCsN2RHv0eP7q7+mu9Xu/rLly4DoEOH9u43nsuXL8dUluqWrVvd4Sc9evREG469Xr3rX9nzd/Qjz1+jRF/0RV/046bvNTx06dKFHj26s379Br61P9xUVV+oPZwOiKEUWkOi36BZQx+NG3hJb+AjPdX6Xc8bJHxwP/n7t3Bw/1Z00X4MQjhfeURlcNUCmzZt4oYbbiA3N5dWrVoxY8aMuJrRAA8++CBTpkxh/PjxMVlIfr+f3/3ud4BlIlc0TLlXr15RHUoHZ1+wOsUOzhfSAP/6179cMzqSsWPHxi3L47TTTmPKlClMmTIlqmPiEFlHce3atXHRLMuQIUPKrfU4dOhQN9MnsmxKTdrsdOTy8vKi6keDVRf85ZdfZsqUKQwcONBdvmbNGtewGT16dEwmcv369bnrrrsAawjphg0b3HVOpnvnzp0ZOnRoTFszMjJ4+umnGTZsGH379o3SdCivTjnAqFGjaNq0acz2h8PZrmvXrjF1xAHatGnDiBEjAMsA2LJlS7nH6dev38+a0Q5OJtXSpUujljudX8cQWLFiBQcPHnTXL1tmfV4+88wz3Wtek+cikqrec2W59957y80If/DBB91svNp6vQjCsRKnHV5//XV3VM/o0aM57bTT4nbsmrynRb5Gy3ufNQyDJ598sso1teMRV6v62SFeJCUlMW7cuJh7okmTJlH1wSPbXd3zjTRW169fH7PfoEGD3OM6ZjSUxtU+ffpEmdEOf/7zn93M3rKxsaYxuaaxsyzxOu6wYcMqfZ9KTBaOFPHPkHasBmVlqSl0afaaayPYxoGyH9dufKu4pZH62grWTgvRlpliKCsXT5euobT9ACY//rgBtJX416nTKZZRUub8fT4/7dq1Izs7232RaaVp2rQZrVu3Zvv27axe/T1nn3MuCli+bDka6N27D09shhYAACAASURBVE2aNOGbbxaydOlSbrrxJlCa77//HrACQucup6JM3MzDKl1/XbXzV6a23Srlnr9Cib7oi77ox1Xf8HisIWHaxOOxJ9Kpor5QO5TNvDI8Hg5k72Hpgg00TE0kbJoYHi9ah1ny9YdsWvMNTZumQzjM8h+2cP3AAdx37914nee1vEyuOLB582auv/56cnJyAJg+fTotWrSI2/HLo7i4mJ9++omCggLy8/MpLCxk7ty5AGitMU2z3KyV8jqUgJtZBER94Hc+A3g8Hjp37lzuvn6/n86dO1eqXmBV2bNnD1lZWeTn51NQUBBVn7Fs7el4UVF9TqUUXbt2Zf369fz4448Eg8FyO1xVaXPv3r354YcfyMnJ4fe//z39+/fnV7/6Fd26dauw5EVkhzY3Nzdm0iHAvRed7U877TRKSkr48ccfAWsYa0Wmz0UXXcRFF11UoWZFEzM5EzBlZma6983hCAQCbrmSw032FHnPrlmzhpNPPjlmm8qa0WB1fufMmcOPP/5Ibm4uDRs2ZMuWLezevRu/38+gQYOYMWMG+/btY/HixVx44YVord3OsjPJl9Meh6o8F2Wp6T1X0f4JCQl06tSJhQsXSudXqBWOlTjtsGTJErdEwIABAxgwYEDcjl3T97TI1+gZZ5xR7r4NGjQgIyOjQiOtMlQnrlb1s0O8aN++fYWxMPIarVu3jgsuuKDc7Sp7vt26dcPn8xEMBnnppZdYunQp/fv3p3fv3mRkZJQbMwOBgBsH8vPzy40BgFsD+4cffnCXVTcmxzN2lj2XeBy3Xr16dOzY8bBakUhMFo4UtVCywzYWTGWXaNaYKAxl2pNM2a6DoewZB60MvLABpmF9i6uUclO3nbcjr73AmQ7ACYVOHWrnfSvBfuyU9k90H2trGLqVsmeZFya2vlvd1PZGLFMdIk2NyDcjFdEIxcYN1ptEo8aNSalfv8Lzb9OmDUuWLGHf3n3kFxSQmlIflKZ7jx5s376dVatWoYCwDrPiuxUorOzn9PQmgGLz5s3kHcilYVojt370GWecgdfjdQ0kqxZrFa6/qtr5KwPQBqZtNEVeF9EXfdEX/Xjpr/puJd99t4pTOnXizDO7V1NfqC1KO6Uaw/CQvW8PD9/1Jr36NmHzPpOsTVuBdGAyAJf2/wPZuVlk7d7C/K+/4O6/j8AwjJhObjwzsL766iv3b6/XS0JCQtyOXZZ58+YxefJkVq9efdgJlyqicePG5S4vb8giWGY7WENWK9oGrCyeeBnS+fn5PPXUU3z11VfuUNYjSYcOHSpc59QDDwaDbNmyxe10VbfNd955J+vXr+ebb74hPz+fmTNnMnPmTAzDoGfPnvzxj3/kN7/5DYmJie4+kR3a22+//Wc1nEyv9evXu/VYq9JZhNJOXtOmTUlNTa1wu/bt2/PVV1+xa9cud1LPitiwYYPbnsN1lCPX/fDDD1x++eUx20Ren5/jrLPOwjAMd0Kkiy++2B0C36tXL5KSkjj33HN5++23WbBgARdeeCGbNm0iLy8PiK5VWd3noizVuecc/H5/hWUJnP0XLlzIzp07KSgokJqVQtw5FuI0WPV6R4wYQTgcpkuXLjz44INxPX5N39OcjMumTZvSwC7JWR4dOnSosiFd07ha1c8O8eJw743p6emkpaWRl5cXk61anfNNS0vjueee44477iAYDLJixQpWrFgBWOffv39/rrzyyqg2OYYyWF8o/FypquzsbPbv3096enq1Y3I8Y2dtHNfv91fptSsxWWLykSL+hrRjYCjTuum1tVBHzjKlNEorN0P5aPgGlnSpvpsVaCi7gKoVwB2cQeZRx6DUEEeVHsN6/HPnX6rfs0cP3n3nHbZt3UZ+QQG7du5yXwgdO3bAMAzatm3L1q1bWbZ8ORdddBHf24Z0D7ucBwpU5DfWVbz+lT1/7exv2h9MSlMhRV/0RV/046K/fMUyVnz3HRkZGfTs2ZOU+il2O6qoL9QK0Z1S6zonJio69jXo0bclT15/LdoIoMM+PvvwNELF+YS1h43rNzL87HNp0iAFn9dH2AzHHK+2akmHQiGGDx/Oa6+95k4OHC+effZZXnjhBfexz+ejefPmNGjQgPr167No0aK46gG0bt2aZcuWsXfv3gozQSB+Q3W3b9/OzTffzI4dO9xljRs3plGjRtSvX58GDRrwxRdfxEWrpjj3UE3anJiYyCuvvMKiRYt47733mD9/Pnl5eZimybfffsu3337LrFmzmDRpkmsER34Rcbh6nWvWrKFLly40a9YMsLLcHWoru7y6HO59NHJdPF63DRo04PTTT2flypUsXbo0qvN73nnnub/ffvttd7mTidWkSZOoCZqq+1xUl+qcv8QooTY5VuJ0IBBg+PDhZGdnk5aWxrPPPlurZmptvqdV9TV9LMXV6hJ5HWtyvueffz6ff/4577//PnPnzmXdunVorcnOzmbKlClMmzaNxx57jD/84Q8AMZNuVhQH1qxZQ4sWLaKM/XjE5Nq6zyQmVw6JyccWtVCyw82lA0otDY1VsNoyFBTa1ChDle4Rtuo/+zxW8pyzo2H/Dpg64qhWJjWUFsHW9h+hsLXc1FadRkfDr62E6CKs4efR3/AqK+NO4Zob2jZfnKoeBgaRNUrBysjTpkmH9u1ZunQpWdnZFBYWUj8lpdzz/+mnnwBo1qw59evXd4eVn356V3x+P8FAgDXff+9mPvXs2RPDrr/au3dvtm7dytIlS2nfvgMHDhwAoEf37rYxjptpWJXrb71eq3D+1v+2GWSdv+H8LfqiL/qiX0P9JUuXsHLlKtp3aE/vnr1Irpdsm+FV1xdqD6dT6vV6CJSU0LFrN959fzIeL3gNRcP6Bpu3ZnJ6p5O54vL+7M3KZ/v2/WS0SeftGa+xe89ut45bbWZeLVq0iHvuuYcFCxawdOlSHn/8ce6///4Ktz9cdnPkcFKHwsJCXn75ZcAaIvvUU0/RrVu3qLIc48eP58UXX6zBWcRy2mmn8c477xAMBtm4cWO5ZTvC4XClawb/HG+//bbbiRw8eDDDhg2LyrINBoNxrfdZHhs3bqywk+JkQ/l8Ptq1axeXNhuGQb9+/ejXrx9aazZt2sRHH33EG2+8QV5eHqtWreL5559n1KhRgNXJWrBgAR6PhxkzZlQ6I79Dhw7ucOSKsoIqonPnznz99ddkZmaSn59fYZb0pk2bAGviw8NlR4OVEeb1egmFQlFZZhUdEw7fwawK55xzDitXrmTJkiWUlJS4nVun83vWWWfh8/nYuXMn27ZtcydP6tevX9R7R3Wfi7JU9Z6LJBAI8NNPP5GRkXHY/Vu1aiWZWEKtcCzE6UcffZSVK1diGAbPPPMMLVu2/Nl9qhqna/qe1qlTJ+bPn09mZiYHDhyoMEvaKatQWepCXK0uhzvX/fv3u1myTo1mqPn5pqenM2TIEIYMGUJBQQGLFy9m5syZLFq0CNM0ue+++zjnnHNo2LAhHTt2xGOX/hs6dCjDhw+v9LlVNybXVuyUmFyKxORfJnGf1DAyi1ibkcudfzVo20Cw3QWlLDPCo5T9G5T947F/DKXcch5KqYjl1o/H3U+jlMajlP0Tua50n/L03dZrbWXhYe2DcrL5ok1x7KDcvmMHsI2Q9etK37gizz8UDNpvFJqOHTtG6Sck+Oja1ar7s3r1arcYfK9evVz9Xr17AZrly5ezeuUqwHrBtGjRwqqlqrVtxlT/+lf2/A1Hw/lwIvqiL/qiHwf9pUuW8N2KFZxySkfO6tOHevWS46IvxJfICY5CoTDBYIhkv0FWzi72bfqOz96cxMKFS9i+ZS0okxVrN/PVgm/JytvJ/n17aNQ4nWVLl7pDgWtrwqTBgwfTsGFDnnzySU444QQApk2bxrvvvhuzrfPhs+wEdg6hUMj9UjmSb7/91s3EufHGG+nevXtMjWgnpseTyM7GQw89RCAQiNnmkUcecTuFNcWp99eoUSPuvvvuGFNz+fLlcdE5HM4Q3bJorVm1yvpcdPLJJ7vZ4vFss1KK9u3b87e//Y2PP/7YnbzS6XxB6XMSDocPO6lOWfx+vzu0dMWKFRVOfLl48WKmTp3Km2++GaMJuNegLIFAwK2JWBlzw+/3u0NfKzpm2XXx7PyCNUR53rx5lJSUcNJJJ9G6dWvAqoHp1KWeP3++2zmOHBoc2Z6qPhdlqeo9V5bvvvuu3OUlJSXuc3LqqadWu32CUBHHQpx+9913mTVrFgAjRozgrLPOOuz21Y3TNX1Pi3yNVrT/gQMH3ISyylIX4mp1+fHHHyksLCx3XeQ1ijSk43m+9evX5+KLL+a1115zy3Ford1jJCYmuiUsKjN3QiTVjcm1FTslJpciMfmXSdwNaRONMzpbG9h5dmCZEdaEU67ZYddy1ib4vAqPV2E6taS19RMyrR+Px/rx2z8m1k/I+bG3U4b141PWj2n/BLB+zDCYQWL03XrWyg629kk4WXhWvVI3H9t2WAyUhg4d2uOc6YRnJ3CgID/m/CdOnEh2dhag6NChQ4x+D7tG6jfffMOG9esBRffu3V39U0/pREpKffLzDzDn3TmAlUFttcvKP9Q1uP6VP3+NVmbU+Yu+6Iu+6MdDf+OPVqZn3779SExMrLG+UHs4ndL69VMoCQRomJJMc0+Igl276Nq+DanF2axd8g1tTjyR5mn16N31ZE49qRUeA5qkp/PBO++6Rm5tdXad0hxpaWn83//9n1vPdvTo0TEdFOcDaF5eXrkfeGfNmlXuxECRwwLLW798+fIKPwDXhFNPPZU+ffoA1hfZw4YNY968eeTm5rJ48WLGjBnDjBkz4qbndMhCoVCM+R0MBpk6dWrctCrilVdeYbVdriySl156yc1iiuxIVLfN27ZtcyfVmjx5csz6hg0b0rBhQ8DqjDlEdgBHjx5dbmd9/vz5XHrppVx66aV89tln7nJnMqKNGzfy3HPPxey3detWhg4dyiOPPMJ7771XruaYMWPK/QLikUceITMzM2b7w+EY16tWreK1116LWb9t2zaeeeYZAJKTkyvMOKqIoqIi3n33XRYsWBD1GurSpQtpaWlorZkwYQJQmonl4DyePn062dnZKKXo169f1DY1eS4iqeo9V5Zx48axc+fOmOX//ve/3QmcIg0bQYgndTlOr127ljFjxgBw8cUXc8stt/zsPtWN01Cz97TI1+iYMWPIzc2N2ldrzT333FPl+SPqQlytLkVFRfzjH/+IWZ6dnc2//vUv93Hk6K3qnu+4ceMYMGAAgwcPdmNZJG3btnX/jpxo0YkDCxYsKDcRIRQKMWzYMC699FJuuOGGqHXVjcm1FTtrOyZv2LCBmTNnkpWVFbVcYrJwJIh7yQ7LaACn4qi289lMIqowmwrQtmGgwQCvUviUwmt5FBhlY52KbrBrOkSvxlNmPydmavuYIaUIG4aTqOfqRx7QtP8wwB4GjpWh54hpx7CxzI8mTdK5duC1zJhpzTQ6auQo+vfvT5fTurBn914WLlzAR3PnAoq2bdrQ/3e/t/QtATCgZ69evPjSS+zduxcNnNqpE2kNGrj6ymvQvXt3vvzqK3bv3A1Ajx497GaX1mHVVb3+umrnrzFQprbUlBZ90Rd90Y+b/tVXXwNKWRk5cdAXaoeytSS11uzYsYNGaWmcf8mvMTV4PR5Sm7QiOyeHBL+P/APWLOr5hYUUFhTyhyuvjJksCai1GtIdO3Zk7Nix/P3vfycQCHDHHXcwZ84ct25g5AfQe+65hwcffJDOnTuTk5PD3LlzmTRpUrnH7dOnjzssdOrUqaSnp3POOeeQn5/PwoULeeaZZ2qlLrDH4+HZZ5/l6quvZsuWLSxYsCBm1vIGDRrQvXt3Pv/88xrrnX322WzYsIH8/Hz++c9/cs0119CuXTt++OEHXn31Vb799tsaa/wcwWCQ22+/nRtuuIF+/fqRn5/Pl19+6XbO0tLSGDp0aI3b3Lp1a/Ly8ti5cydr1qxBa81FF11E69at2bVrFxMmTGD3butz2KWXXuru17x5c2699VZefvllNmzYwM0338zVV19Njx49OHToEPPmzWPSpEkUFRVRr149evfu7e47dOhQd9LBiRMnUlhYyEUXXUSTJk1YsmQJ06ZNo6ioCICbb77Z3a9Zs2YMHTqUiRMnsmvXLoYMGeJq7tixg08//ZS33noLsIYhX3311ZW61n/5y1/48ssvyczM5MknnyQ7O5tzzz2XRo0asXjxYqZNm+Z2KB944IGYUQE/x8iRI/nkk08AGDt2LFdeeSVglUnp27cvc+fOdTMdzz333Kh9zzvvPB5//HF3fefOnd0vCBxq8lxEUtV7riwHDhzglltuYdCgQfTp04ddu3bx3//+l9mzZwPWvXbttddW6doJQmWoy3E6Ly+PO+64g5KSEho2bMhf//rXck0isLJpk5OTgerHaajZe9pJJ53EwIEDmTlzJrt37+aWW27hmmuuoXv37mzatIkPPviAr7/+usrXoS7E1Zrw2WefMWLECPr370+7du1YtmwZM2fOdE3jG2+8kebNm7vbV/d827dv7345fPvttzNixAjOOOMMtNbMnz+fp59+GrDulZ7O3FrAsGHD+Prrr9m/fz8PPPAA27dvp2/fvrRs2ZItW7bwwgsvuAkDkbEcqh+Tayt21mZM3rRpE5dddhkAr776Kp9++qm7v8Rk4UgQd0NaK2VPLuUYCNbfCmW7BbgZcq6ZbEI4bBIKa/xK4QGC9uvIb/8O2KMlQvbjBE/0cme7EmdUhe2v+OzfJhB246dJ5Je7ygTT0BjarpvqFE7V2n4MERVQ7WPr0sdacf3115OVncUn//0vGzdudN8crSNZ55+ens4jjzxCcr2kmPM/ofUJNGvWjH379qHQ9OzVE+fqOfq9evXiq6++BKXwer2cfvpp9nW2Piigqn/9K3v+SpmUWj+l5y/6oi/6ol9TfY/Hg532HBd9ofaInNiocePGhEIhduzYQVJSIk5ftVmzphQVHWLf3r00bNSIhAQ/LVq2IDExifQmjd0PvLVVP7osv/vd7/jhhx+YPHkye/fuZfjw4bz++ut4vV769u3LpZdeyscff8yuXbu47bbbovZ1JincsGFD1PKUlBSuvfZapk6dSl5eHv/85z+j1icmJvKrX/2qViYmSk1N5eWXX+ahhx5yJ5Rx6NWrF/fff39U5k5NuPLKK3nvvffIzs7m448/5uOPP45a71y72uSmm25i8uTJjBs3Lmadx+Nh/PjxbmmWmrTZMAzuuusu7rvvPoLBIE888QRPPPGE+8WDQ69evfj9738fte+IESPYs2cPH374IatWrSp3eK3f7+e5556LqlGYnp7OpEmTuOaaazhw4ADTpk1j2rRpMfteddVVXHDBBVHLhg8fTmZmJnPmzGHNmjU88MADMfu1aNGCSZMmRWWPHY6WLVsyadIkrr32WgoLC3nllVd45ZVXYrYbPnw4V1xxRaWOGUnkdVm1apVrSIM11Hfu3LmA9frp1atX1L4ZGRm0atWKXbt2uduXR3Wfi0iqes9FkpaWRr9+/fjoo4+iMgYd6tWrxwsvvFBhPVpBqCl1NU47cRYgNzeXyy+/vMJt77//fgYNGgRQ7TgNNX9PGzVqFJs2bWLJkiWsWbMmZi6K5s2bc8YZZ7hftFWGuhBXq0v//v359ttvy203WM/V3XffHbWsuuf729/+ljfeeINVq1axevVqbrzxRgzDiCqlkZCQwMiRI6MmJGzVqhUvvfQSgwYN4uDBg0ycOJGJEyfGHP/cc8/lL3/5S9Sy6sbk2oqdtRmTI2Pjrl272L9/f1SdZonJQm0T/xrSWpcaDThmgp0ZFxHDtP2PwkqY25+bS2ZONpnZeWRm57I/O5v92dlkZueSmZ1LVpkfa7s8srJzyMrOYX92Lvuzc8nKyiMrK4/99k9mTg6ZOTn2drnW49y8GH3lmDEaq2aIts0N+2y0tgwOT8Q3Rtbwc8OyWxSMGPE3rh04MOpGVoBheDj77LN57LHHaNKkSbnnr7SiR48ets+i6NWzV4x+zx493Yt4+umnk5SYFKWvVPWvf2XPXzmZlKiY8xd90Rd90a9L+kLt4s7p4PHg9/tp164dLVq0pGXLlrRo0YK0tDS6du1Kv3796HTKKZx66qmc3K4dJ7RqSUJCQrlDgOPR2XU6JOVliPz9739361QuW7aM559/3t328ccf58orr3TjtEOfPn2YPHmym/FR9rijRo3i3nvvjZlopUuXLrz22mvu0M/I841sZ0Vtrcw2J5xwApMmTWLBggXMnDmTqVOnMn/+fKZOnUrHjh0pLi4+7PHLErld5N8ZGRm89dZb9O7dO6o2X0JCArfddhuPPfbYYa97dYk81u23386YMWNo1KhR1DZt27Zl/PjxbgmTeLT5t7/9LXPmzKFXr15uqZdwOIxSipNOOok777yT119/PabjopTikUce4dZbb42pj+nxePjNb37DnDlz6Nu3b8y5ZmRkMHnyZM4+++yY/Tp06MDDDz/MQw89VO71feihhxg6dGjMtfF4PFxyySVMnjy53ImADvecdezYkVdffbXctrZq1YpRo0aVm4lUmft6yJAh+P1+0tPT+dOf/hS1LnKob58+ffD7/TH7Rw4ZrqjzW93noib3XFn9Rx99lOHDh0eVdgHrveHFF190a5wKQm1RF+N0VWJE2feT6sZpqP57GlglwCZMmMBll13mlgNzuPjii5k+fTpNmzaNaXNkW8our26Misdnh+riHLd58+bMmDEj5gtSr9fLFVdcwTPPPBO3801ISGDmzJnceeedtGjRAigt/5GSkkKfPn2YPXt2zBfEYJVvmDRpUrkZty1btuTBBx/k+eefLzfOVDcm1+Q+q42YXNH953DJJZe4NaqvvPLKmM8KEpOF2kbpOI+P3bxlC9bXrk4WmysFTtmLiFUHDx1ix/YdvJXaF7/fC2GFz6Pw2jU7nHvQtJNSlP1aCtr7e01nubW9kwXtsbPsnImtQloTDpvosKY4EOKqom9o3bo1ScnJtl1i2tl1seeksE8pIkk6ep223BANWoEZDpOdnU1eXh6JiYmkp6eTlJRc7vlbD+Orr0rXRG8p+qIv+qJ/nOgrRZVrqP0ce/fuRSlFWlpajTpmZfepKAw7s8WX/eB1NNm7dy/p6elRbXb+rurvitYdOnQoapjn0WDnzp0cPHiQli1bVmm27czMTLKysmjevHmtPm+HDh1ys8BatGhR4fX685//zOrVq+nduzdTpkxxlz/wwAPMnj2bpKSkKte4dmYq93g8nHjiiRVOHhMKhapdrsQwjAqPq7Vm9+7d5OXl0aRJE5o2bfqzr8PKtrk8TNNk586dHDp0iNatW7vDx3+OcDjM3r17yc3NJTU1lZYtW8YYGRVRWFjIrl27UErRpk2bcjuAFWnu27ePnJwckpKSaNGiRaXbW5n2hMNhGjduXKlr/nOUlJQc9nmOJzV5LqBq99zo0aN58803adiwIYsWLQKse2jHjh0cPHiQpk2bxphpQvyQOC1xujLU5D3t0KFD7NixA6UUJ554ojvJbU2oSYyqLCUlJdXe1+/3V3h9qnM9anK+hYWF7Ny5k5SUFFq1alXp562goMAtt+Vk01dFszoxuTZiZ20dt7CwsNKjqGqKxOTjm7JxOu4lOwxloHUYE3viKhwPQZeaCY6JjHJTtHOzMvEn+AmHNIZhuCU4lMf6Q4esnZTXehyynWZP2N7QPhMnfjq3pPMNmmlaf2tTEQyUQDIorVyPwxlSrsCuV1pqcLhmSsRx3SHiKFBOnVPrOF6Ph/SmTa0Xx8+cv1I67voKXenrL/qiL/qi/0vUN1TcBwAJEUQOBS5bq/Lnfpd3nCNVtqOyVDTk7+doasf+2iYUCnHzzTdz6NAh0tPTmT17dkxWy5QpU9zJX8pmrHzzzTdue6tK5Izvh2PkyJF8+OGHVT4+WJlA77//frnrlFK0atWKVq1aVfp4lW1zeRiG4c4oXxU8Hk+V2+mQkpJCx44dq6XZsqWV/RhPqtuew5GQkBDX4x2OmjwXUL17LhLDMDjppJOqta8gVBeJ0xVTk/e05OTkuL8f1iRGVYaffvqJX//619Xe//nnn+eiiy4qd111rkdNzjclJYVTTjmlyvvVr1+/2s9bde+X2oidtXXcI2VGg8RkIZpaMKQVIY01VNs1FKJRhkZrhWk7FMpQEAqj6yXjTfBYw4OczGb7D49dDDpkZ04n2OsDZnTQdCwIZRsYfvt3WBuEtSZUEkYdOojhMTCdLGrXKbGm4cI07ANp6zgRRkrpiHEDpTSmjjZdFApdhfM3RF/0RV/0RT/u+opyxIW4UF7HtSqdXSCqw3u4jrBQPqmpqfzpT39iypQp7N+/n/79+9O1a1c6d+5MSUkJS5YsYe3atQA0bNjQ7Yg+8sgjzJs3z80ScsqJ1AaR9R2ritwHgiAI1UfitBBJTeJxPPYXBEGoiLgb0ignU02DoezaoNpdhwZTW2aClfymSEpMoO2PK9hi9IR6qYDCCFumgmkb0m5wtA1px4cO2DU6nKHezpe2jiHtMTSmVmi7HaED+bTdtxJ/8+YYhl231P7XdT5UqfOhtWGt11gmiTOnlr3MrmSKdo+kq3T+VqKf6Iu+6Iu+6MdT3ynjJMQXpRSmaWIYRq10dutS9lVd584776SkpIQ33niDgoICFixYwIIFC6K26dChAxMnTnSzSN577z3y8/MBy6gePnx4rbXvxhtv5JJLLqnWvjKpjCAIQvWQOC2UpUWLFkyYMKHa+3fr1i2OrREEQSgl7oa0x/ASUiGUVq5p7DoP2rIOFLhGhdfrpV69FM4/MZlTM78ka+shSkImylTW0G3KBrwy5oXzt5UShwqXZtFF7q3RJPkMGtdPpGmbZqSmpOL1eCOOYf3WaAylrNrTrmleKm0NMS+1QACrnaaym6JQhq70+Yu+6Iu+NWpG1wAAIABJREFU6It+/PUNo/zJO4Sa4fP5OHToEElJSXg8nhp3dqG0w6u1JhQKHZGasr8E6tWrx5gxY/jDH/7AokWL2LRpE3v27CEtLY1OnTpx6qmn0q9fv6gawueffz4JCQm0a9eOAQMG1OoQzS5dutClS5daO74g1EX69u2L3+8/osOfBSESidNCWRITE2tUskMQjlUkJtd94j6p4d69ezl48CCWO+Cks9nWsFJutptWoE3rW9ZASTGFRUUU5hdQXFyCGQ4T1trKdja1PcTbrvZsmw5ljelY6zpa3zA8GB4PSYkJpNRLITmlHn6fH4/Hg0JjKmVnWSvQGq1UXPUrOn9lLxN90Rd90Rf9+OnXq5dE8+YtiCcyWZI1ec2BAwfIy8sjEAjEbeiuUgq/309aWhoNGjSIy0RsgiAIwvGFxGmJ04IgCELdpdYnNSz9xtSu54myhlBr7Kw30NouEWrXAU3wJ+Hx+khJSiZkz8iuTafCdBmzQYNSoCOWuraEsg9uo+xWaKXxKAOtFV6vgcfjxef1oAyPtac9LNza3jI9DLR1KAWmto0UANPJ0ovWIUa/cucv+qIv+qIv+vHX9/sqNwO2UDUSExMBa0KyYDAY146uz+cjMTHR1RAEQRAEoWpInBYEQRCOFeJuSCcmJGBlw9nBT2ucyhuGbSMYyjGQtbXeo/B5fHh9PhLt7DlFZP6bjTOECG2ZGdo6htYKhWkZINpeF1Gj1NrXlos8rq3vlPgwnUXK3cXd3tVHW0sj9E1HXxOlX9nzF33RF33RF/346idIZ6lWMAyD5ORkyYwSBEEQhDqIxGlBEAThWMGI9wETk5JISkpEAc6ErBoFpfNUlZrM2mmCtUQp+wfLkdYq6tAobdrmhLJnNdQo26BWKLRS9qSHWvRFX/RFX/SPU/2kxCTJ3hEEQRAEQRAEQRCEOkrcDWmPx0NKSoo9GYJlNRjoSN+hDBplbUHkcGutQdmGBqp0S+08tg0LjbImX8AyIgxtZ9aJvuiLvuiL/nGpn5KSgscjkxoKgiAIgiAIgiAIQl0k7oY0QP36qaSlNQS0PTxbRZgRlnFgmQyW06CVleEG1pBsK0vOmtjK3sDe3d7KPpb1W1vJcpigbZNCK5TtgIi+6Iu+6Iv+8aPfoEEaqfVTEQRBEARBEARBEAShblIrhrRS0LBhQxqkNbST3jRQWisUlFUw1LEZtMZKiVNobU0+CMp2HKwfy5vQpeaE40pg5dcpHPPCWmf9p0Rf9EVf9EX/ONFPa5BGw0YNHa9bEARBEARBEARBEIQ6SK0Y0mBNqNCkUSPS09NJSkoCFIZtTliGgrWdOx2hAq01hmHahoaTVecYHbYBYc+Qpd11GtPJwovYHLD1nIWiL/qiL/qi/0vUT0xKIj09nUaNG2EYtRbWBEEQBEEQBEEQBEGIA95aPbpSpKamUq9ePYqLiykuLiYYDBIKhQmHQ2htok0wlEKbpjXI206jcwZpYy+z6oSaKBRKaTCt35ZxYdkaYGBq27MwbOODyOw7QFkmiJu1p0EZyjJDRF/0RV/0Rb/O6RuGAUpjKAPDUBjKj9fnxefzkZCYSFJiotSMFgRBEARBEARBEIRjhNo1pG08Hg/16tWjXr16R0JOEARBEARBEARBEARBEARBqIPI2GZBEARBEARBEARBEARBEAThiCCGtCAIgiAIgiAIgiAIgiAIgnBEEENaEARBEARBEARBEARBEARBOCKIIS0IgiAIgiAIgiAIgiAIgiAcEcSQFgRBEARBEARBEARBEARBEI4IYkgLgiAIgiAIgiAIgiAIgiAIRwTv0W5AJKZpEggECAQCaK3RWgNU+NvB2VZrTaNGjfB669RpCYIgCMIvAonTgiAIglB3kTgtCIIgHCvUqQzp4uJigsEgAEoplFLu3+X9dlBKYZomOTk5FBQUuMcQBEEQBCF+SJwWBEEQhLqLxGlBEAThWKHOGdIQHSgrG0S11hQVFWEYBoWFhRJEBUEQBCHOSJwWBEEQhLqLxGlBEAThWKFOjcUJBoP4/X601iil3N9AzLLI3876QCCAz+cjFApRWFhISkoKPp8vrm186623CAaDdOnSha5du8b12HWV9evXs3z5cpRSXHXVVXg8Hnfd8Xg9BEEQjlckTv8yWLduHTNmzOC0007jqquucpebpsm0adPYunUrgwcPJiMj4yi28vikovu3os9ix+NzdrjPpYJwvHMsxOlfIitWrGDdunUkJCQwYMAAd/mGDRuYPn06nTp1YuDAgUexhUJ1qCgmV7T8eHy+5XO3UBPqlCHtBMPyAmRFwdP5HQ6HCQQCUfWuaiOIPvzwwwQCAW666abj5gU3f/58nnrqKQAuv/xykpOT3XXH4/UQBEE4XpE4/cvgnnvuYdOmTcyePZsOHTrQrVs3AL788kseffRRADZv3sy0adOOZjOPSyq6fyv6LHY8PmeH+1wqCMc7x0Kc/iUyd+5cpk+fTkpKSpQhPXLkSNauXQtAu3bt6N2799FqolANKorJFS0/Hp9v+dwt1IQ6ZUhD+YEykoqCaDgcJhgMxmRJSBAVBEEQhPghcfrYxzDKr9gW+VyWfV6FUt555x22bt1K48aNueGGG45qW+Q5EwShLBKn6w7yHl37SEwWhGOXOmdIA1Hf5DqPA4EQhqHKnS3YNE2CoTAlgUC5nSwJooIgCIIQPyROH9uMGzeOWbNm0blzZzc7GuC8885j1KhRbNu2jeuuu+4otrBu8+GHH7Jo0SJat2591Du/8pwJglAeEqfrBo8++igzZ86kY8eO9OrV62g35xdJXYrJ8nwLQtWok4Y0RH+jFAgE8Ps9eA27/hUQ+X2T1hoz5CMl+f/Zu+/4qKq88eOfzEwahDRCSAhICUUgiGwUkOY+64Ky664o6AYURJqCJYKAikhREUEQBB6KoSVUQcCFnxQBCwnSUZEWIJGSUNJJI8m03x/zzGUmMxNSJiGB7/v14pXh1jN3Zu73nHNP8fy/bd2sjmU0GsnJycHb29uqC5IQQgghykfidM314IMPMnXqVJvlKpWKQYMG3YUUifKSz0wI4YjE6buvZcuWTJky5W4nQ1QR+byFKJtqF02Kj3NVUFBA3bp1+TM5naupBahULtwOn0bMD34LC7W4ufsSHx9PWloabm5uuLq6otFo0Gg0eHp6otVq8ff3r/QnuwaDgdTUVFJSUvDy8iI4OBgPD49KPWdZFBQUkJycTFFREU2bNnV62goKCrh48SKurq40bNgQd3d3px5fCCHE3XMvxOnKlJuby8WLF6lfvz716tUr8/55eXkkJiYSEhKCv79/qfap7LhenMFgICkpiVu3btG0aVObiovKpNPpOH/+PP7+/tSvX99mfUFBAX/++Se+vr4EBweX6pgGg4Hr16+TlpZG3bp1CQoKcupEeXfzelmmwZw3Lct3q6rk5uaSnJyM0WgkJCSEOnXqlPkYN27cICUlhaCgoDL/9sy/Wy8vL0JCQmr0PUgIidMly8vL49q1axQUFBAUFETdunVLPbxCQUEBSUlJ6PV6mjRp4rRybkXjRHnyDs6QmppKeno6zZo1s5vm69evk56eTosWLUr9npwRD+50/Irk05zhXo/JFa0Pkph8/6h2FdJwO4jm5RXg7uZCwpVM1h3MR+NuWcAyBQ0XoxGjiwtGoxrtLXj2YTdaP+hPbn4RXrU9gdtjJZoDcmV9oXU6HYsWLeLrr78mLS1NWa7RaPj73//O22+/TZMmTZTlp0+fViY9mDVrFv/4xz+sjnfw4EGGDBkCwKRJk4iIiLBaf+rUKZ5//nkAvvjiC5566qkS05eens7MmTP57rvv0Ol0gOma9OzZk/fee4+YmBhiYmLw8fHhwIEDZX7/ly9fZubMmezdu1fJBLm6uvLMM88wfvx4vL29y3xMIYQQ1U9NjdOnT59myJAhZGdn4+3tzcaNG2nUqBGvvfYa+/bto3379qxbt87uvkOHDuXAgQM8+uijREdHW63TarUsXryYzZs3c+3aNWV5QEAA4eHhTJkyBT8/P6t9MjIy6NatGwCTJ08mKCiI+fPnc+bMGfR6PQCBgYG89957NvkDs/LG9c8//5wVK1bg5eXF4cOHleUFBQWEh4djNBoZO3askgcxO3v2LNOmTeOPP/6goKAAMMX55s2bM3jwYJ555hnHF78cPv74Y9atW0dAQAA7duxgwoQJxMXFkZeXB0Djxo35+OOP6dixI0lJScyYMYM9e/YoeZDAwED69u1LZGSk3ePrdDqWLFnC6tWryczMVJb7+voSERHBG2+8YdUS8O9//ztXr17FYDAApnxPmzZtAGjWrBn/7//9P6vjV8X1utNnptfrWbJkCWvXrrXKmwYHB/PII4/w/vvv37EgXJn51T/++IO5c+eyf/9+q306derEmDFj7jhBksFg4Ouvv2bBggWkpqYqy0NDQxkzZgxPPPGE1fbFf3ft27fn008/tfod1K5dm4iICN5++20pBIsaq7rG6U2bNvHhhx+Wattp06bx7LPPAlQ4ToPpfvPll18SFxdntbxhw4a8/PLLDBw40GFaMjMz+fzzz9m6dasSb1UqFb169WLs2LEO9/viiy9YunQpnp6eHDt2zGZ9WeOEM/IO5VH8vHXq1GHRokWcP38eALVaTUREBGPHjsXDw4NNmzbx5ZdfKvdlV1dX2rRpw/Tp02nWrJndc5Q1HpQlJpcnn1Yed/q87/WYXNb6IInJotpVSFs+0VWpXdCoVWTkGqhTpw5+ni7ojGDbyQg0Klcy3d0pMBrwrqPCSAFubtZfWKPRSEFBgdOfsplNnjyZTZs22SzX6XTs3LmTEydOsG7dOqVFT8uWLalVqxa5ubkcPnzY5mYSGxur3GD37dtnczM5cuSIsj48PLzEtBUWFjJy5EhOnDhhtdxoNPL9999z4sQJOnToYBo/TKst2xvH1Cqlf//+pKenWy3XarV88803XL9+nSVLlji1xZEQQoiqV1Pj9NmzZxkyZAhZWVn4+vqyfPlyGjVqBJji9J3in6Ntbt26xYABAzhz5ozNPmlpaezatYv4+HiWLVtGSEiIsk6v1ysx/NixY3z//fdKYdQsJSWFMWPGkJeXpxQezCoS1x29F4PBoBRozX/Nvv32WyZOnKgUxM20Wi1nzpzh3Xff5dq1a7z22ms216G8zOksKipi3Lhx/PDDD1brL126xNChQ4mKiuLdd9/lxo0bVutTUlJYtGgRBoOB0aNH2xz/k08+Yf369TbLs7KyWLx4MRkZGXz00UfKcq1Wq3xmZub/F7+WVXW9SvrMAKZOncqGDRtsll+7do1t27Zx9OhRFi5cSOvWrR2eo7Lyq4mJiQwZMoScnBybcx46dIhhw4axfv16QkNDHaZt3rx5xMTE2CxPSEjgrbfeYvny5XTq1ElZbvm7O3v2LDNmzCA/P99q37y8PJYtW0ZOTo7V5y9ETVGd47T5vl4alve0isRpgPj4eF555RVyc3Nt1iUlJTFt2jTy8vLs3pN1Oh1vv/02hw4dslpuMBjYuXMnx48f5y9/+UuZ01SeOFHRvEN5WZ736NGj7Ny50+o96fV61qxZQ3Z2Ns2bN2fOnDk27+n3339n8ODBrF27loYNG1qtL088KG1MLm8+rTzu9D29l2NyeeqDJCYL+9Os32UuLi7KP1xccHVV4abW44IeNXrUGFCjQ40elVGHyqgDgw43lQ5XjektGbGdUdg8e3Bl+PLLL5XK6LCwMD7++GO2b9/O4sWLlSdYV69eZcSIEUog1Gg0dOnSBTDdGIqLjY1VXh86dMjmxmZ+cvTggw+W2N3EaDTy7rvvKoXWDh06MH36dHbu3Mn8+fPp3bs3169fZ8eOHeV9+3z33Xekp6fz5JNPMn/+fLZv387UqVN58MEHAYiLi2P27NnlPr4QQojqo6bF6fj4eAYPHkxWVhYBAQGsWrVKaUVTURs2bFAKOd26dWPx4sXs3r2bOXPm0LNnTwAuXrxot7WW2datW/Hw8GDq1Kls376d7du38+qrryot0r744gtu3bqlbF8Vcd1SYWEhs2bNQqfT4ebmxgcffMCWLVvYtGkTkZGRSh5k7ty5ZGVlOeWclrKysvjhhx946aWX+Oabb9iyZYtSyNZqtQwePJgbN27w73//m7Vr17Jjxw4mTpyoFHpWrlxpU+BfsWKFUhndoUMHPv/8c7Zv387s2bOViR43bNjAsmXLlH3Wr1/Prl27lBZC9evXZ9euXezatcvq873b18ts4cKFSsHXPK7l9u3bmTt3Lv/6178AUyG4pNZ9UDn51YyMDEaMGEFOTg4ajYbXX3+d9evX8/XXX/PGG2+gVqvJyclhxIgRZGRkOExbTEwM9erV45133mHLli2sXLmSl19+WbmXREZGkpycbHffdevWkZ+fzwsvvEBUVBRbt27l/fffVypKNmzY4LAlphDVXXWN0//617+U+2bxf1u2bFFahwYHB9v0cCivq1evMnz4cHJzc1GpVAwdOpSVK1eydetWJkyYwAMPPACY7smbN2+22f+zzz5TKqPbtm2rlPPnzp3LE088QUpKCjt37ixTmpwRJ8qad3CWbdu2Ub9+fb744gt2797N/PnzCQgIUNbNmTMHPz8/ZsyYwe7du1m1apVS8ZmSksK2bdusjlfeeFDamOyMfJoz3OsxuaL1QRKT70/VtoW01czARgOu6HB1UaHj9mzBapUKlUqFykWFiwqM6FGpjBhxUYJn8RmGK4O5BQ5ASEgIUVFRSpePZs2a8de//hWNRsP69euJj49n/fr1DBs2DDDdFL///nsSEhLIyMhQgvCNGzc4d+4cAG5ubuTl5fHrr78qs7UajUalG0j37t1LTF98fLwSJFu0aMHSpUupXbs2AE2aNKFnz55oNBqb4FBWf/vb35g7d65y7Zs1a8YTTzzBc889R0pKCsuXL2fQoEEEBQVV6DxCCCHunpoWp8+dO6dURtevX5+VK1fStGlTpx3/0qVLdOrUCT8/P6ZPn46np6l7c6NGjXjiiSfo0aMHWVlZVt0Pi3N3d+err77ioYceUpaNHj2ajIwMNm7cSGZmJgkJCYSFhQFVF9fNzp07R2hoKKGhofTv39+qe2fbtm3x9PTks88+A0wttpxViWBpwIABTJw4Ufn/xx9/zNWrV5VupU899RQzZsxQvldNmzYlIyODhQsXUlhYyPnz55UWR2lpacycORMwFQqjoqLw8vICTHmXHj16EBERQUJCAnPmzGHgwIG4ubkpY1LXqlULMH1ujRs3tklrdbheKSkpzJs3DzB1316+fLlSYdCsWTOeeuop1Go13377LQkJCRw8eJDOnTs7PJ6z86sLFiwgKSkJMH2W5m75AO3btycwMJBJkyaRnJzM6tWreeutt+ymy9XVlQULFlh1I+7cuTM+Pj7MmzePrKwsFi5cyLRp0+zuP2jQICZMmKD8v2XLlnTr1o3nn3+e/Px8PvvsM55//nmZxE3UKNU5TteqVcvufRNuxz1XV1fmzZvnlCEUABYvXkxKSgqAzdBGLVu2pEePHvTr14/c3Fw++eQT+vTpo1TqXr58mdWrVwOmSvKlS5dalfN79erFq6++alUJWBrOiBNlzTs4S506dVi6dKkyFGmjRo0ICAigf//+gGkokxUrVigVkY0aNWLJkiU8/vjj5OXl8ccff1gdr7zxoLQx2Rn5tIq6X2JyReuDJCbff6ptC2kAlYsLRiN4uKmo7+dKXR8N9Xxcqedt+ltbo0Wfl0p2aiJ5qX9ivJWKCh3KeFgu1n8ry8mTJ5XXjsYfmjBhAoGBgTbbW94ILJ9wmce2CgsLo0ePHlbLwBTEbt68aXOMO6Xvo48+UgqtlqZNm1ahLtKenp7MnDnT5loHBARYjRN2+vTpcp9DCCFE9VBT4vSFCxcYPHgwmZmZhISEsGbNGqdWRoNpfL7o6Gjmzp2rFHLM3Nzc+Oc//wmYKpEddVPu2LGjVYHSzLwvmArFZlUR1y21a9eO6OhooqOj7c5XYTnGZWXF+ZdeeslmmbmFEMCzzz5r8z165JFHlNcXL15UXp88eVKpXJk8ebJSGW1Wp04dxowZA5i638bHx5cprdXhelkW+CdPnqwUfC1NmDCB119/nVGjRt2xcOfs/Kq5dX/nzp2tCr5mL7zwgvIAwfL7XtywYcPsjmk5cuRIpTLEXjdtMI0bO378eJvloaGhvPnmm4CpFWNiYqLD8wtRXdWUOG22cuVKpVfP5MmTadeundOObb6HtG/f3macfTA9yDUP65Sfn2/1m7e8R9sr56tUKmbNmlXmsW2dESfKmndwlu7du1vNiwWma2vOi7Rp00a5/5p5eXnRsmVLwDoeg/PigSPOyKdV1P0QkytaHyQx+f5U7R4tFH+iq1KruZl+jSNx8fh5e6A3GFCpNRiNeg7v28aFk78QGFgP9HqOnUrk5QH9eHf8WDRqld3jVQbLH6Wjgd7d3Nxo3bo1KSkpVjek4OBgQkNDSUhI4MiRIzz55JPA7RvH448/TlBQEHv27CE2NlYpIJlvPLVr11a6ljpiPp9araZt27YO09e2bVsOHjxYmrdso0WLFjYFOrOHH35YeX3mzBn+9re/lescQggh7r6aEqcTEhJ4+eWXla6Fq1evVlrTVJaCggIuXbpETk4O2dnZ5Obmsn37dsDUKsVgMCitrizZK1ACVi1IzBP5QdXE9ZJcu3aNtLQ0srOzycnJsRpvsDKGXKldu7bdSZAsJ8dp3ry5zXpzQwDAqpBpmW/LzMy0meAKsOqSevLkyQpVjlT19QLr9+honhFvb2+lkHcnzsyvFhUVKenLzs62e/0BZRzKU6dOOUyXo3FbXVxcaN++PWfPnuX8+fNotVqbCqOHHnrIYaG/eN7VXJEiRE1QU+K02eHDh/n8888B6NevnzLcpTMUFRUpLUZLmpDNMg6fPHlSiSmWlWeW9wVLPj4+NGvWrMwPLy2VJ06UNe/gLPbioUqlonbt2uTl5dGiRQu7+5nn0bL8DjkzHpRGefNpFXU/xOSK1gdJTL4/VbsKabDsFmREpVKTfuMan4z5mo5dAki4YSDtwp9APWA5AL2f/jfpmWmkXU0kdt+PjH1nNCqVyiZ4VtaTXfMPODAw0GbmUEstWrTg559/Jjk5WZlUCUxdLhISEpRuIgaDgV9++QWAHj16KEHlzJkzpKWlERAQoNxMOnXqdMcnsgkJCQA0aNAANzc3h9s1a9as3AXXkm4K9erVw9fXl6ysLIetVIQQQtQcNSFO//zzz8prjUaDu7u7045d3N69e1m+fDknTpwo18TAdevWtbvcUcyuirheXHZ2NrNnz+bnn3/m+vXrTjlmaZX0Hs3K8t2xLEy98cYbd9z+7NmzpT622d28XnD7oUVgYKCS36woZ+VXz58/rxzz9OnTyjB2jqSnp5Oammp3vpSS8p/mShGtVktiYiKtWrWyu76kfc1ptGytKERNUBPiNJiGGBg9ejR6vZ6wsDAmTZrk1OPHx8crcwjYe3BpZrnu1KlT9OnTB7jdwyIwMBAfHx+H+7ds2bLMFdIVjRNlzTs4y53yU2X5jjgzHpSkovm0irofYnJF64MkJt+fql2FtHWwM93MPDxcaNVFxSNdGjDr5Rcxqoow6l3Zs60duoJs9EY1586eI7JbDwJ8vHDVuKI36G2OV9ljSZdX9+7diY6O5ty5c2RlZXHp0iVu3ryJr68v7dq1Q6VS0apVK+Lj49m/fz/PPPOMcjO503AdAA888ABHjx7l+vXrdluImFVGl57iqutnIIQQonRqYpzW6XRERkayYsUKp487N2/ePBYuXKj839XVlaCgIHx8fKhTpw4HDhxw6vmg6uP65cuXGTp0KFeuXFGW1a1bF39/f+rUqYOPjw8//vijU85VFSwLoyWNrXny5EnCwsKUVl2lVR2ul/l77szux87KrxafYNLRZ3Dy5EmCg4MdVrqUhb17S2UPQSDE3VJT4nRRURGRkZGkp6fj6+vLvHnzKrUytaTfvOW68rzHst5PqkOcqA6qIh7cjXxacRKTb3P0+5KYfH+qdhXScDvoaTRqigoLadW+A1v+uxy1BjQqF/zqqEj4M4WHWjfnuT5Pcz0tm8uXU2nWpB4b16zg6rWrNGrUCKBKWki3bduWffv2kZKSQnZ2tsNW0hcuXABMEx9aPhl79NFHcXd3p7CwkGPHjilPjbp37650GXn88ceJj48nNjaWsLAwpStpaSqk27Vrx+bNm9FqtZw7d85u9169Xl+uMZnMzF2h7ElNTVVmBzaPPSSEEKLmqilx+sCBA4wbN464uDiOHDnCjBkz+OCDDxxuX1KrGcvus2a5ubl89dVXgKmL7OzZs+nQoYNVd8+5c+eyePHiCrwLW1UR1y1t3LhRKTQPGjSIUaNGWeVjtFqtU8f7rGxhYWHExcWhVqtZs2aN01vPV4frFRYWxk8//URaWhrp6elOqdR1Vn61VatWqNVq9Ho9I0eOJDIystxpOnfunMMHBuZWX66uroSGhtrd1xFznh0k7ypqppoQp6dPn85vv/2GSqVizpw5NGjQ4I77lDVOt2rVCo1Gg06ns2oJWpzlb96yQq5169bExsaSkpLCzZs3HbaSLul+Yk91iBPVgTPjgT13K59W3P0QkytaHyQx+f5U7SY1tJw4QafTo9XqqOWmIi0jmRsXfmXP11Hs33+Yy4mnwcXA8dMJ/Bx3iLSsJFJvXMO/bj2OHjmidDGqiokYLIPW77//bneboqIiZQyq4sHF3d1dmfn08OHDyrg95oHowXQzAdi/fz+HDh0CTBMwNGzYsEzpmzp1KkVFRTbbfPrpp8pNojzOnz9Pbm6u3XWW10RuIEIIUbPVlDg9aNAg/Pz8mDVrlhIrV61axZYtW2y2NU/+d+PGDbvH0ul0XLp0yWb5oUOHlJYlr7zyCuHh4TZjDx49erRC78OeqojBgcvnAAAgAElEQVTrlsz5En9/f8aOHWvT3dQ8Y3tNYb5+er2+QkOJFW9VZFYdrpdlXtPRd/DWrVusWrWK6OjoUnU1d1Z+1cPDQ+kebzmvSnkcP37c7nKj0ajkP5s3b263F8GJEyccfoa//fab8lryrqKmqQlxesuWLaxbtw6A0aNH89hjj5W4fXnjtJubm9Ld31E5vfg6yxjbpk0bu9tYunnzpjKUVmlVhzhRHTgzHti7n9+tfFpx90NMrmh9kMTk+1O1q5CG28GuTh0vCouK8POqRZBaR05yMu1bNMG7IJ3Th3+hSaNGBPnWplP75rRpHIJaBQH16rF18xbly1wVldKWQWvKlCl2C4CffvopKSkpNtubdevWDTCNb3TixAlcXFyUZWAayN3b25vMzEyio6MB29bRt27dYsuWLcTFxVl1hWjTpg2dO3cGTD/0UaNGsXfvXjIzMzl48CBTpkxhzZo15X37yrnfe+89m+Xp6el89NFHyv8dTb4khBCi5qgJcdrcPdLX15f//d//xcPDAzDNbl48w20ucGZlZdmt4Fq3bp3diYEsY6299ceOHePXX38t/5twoCriuiVzF1OdTmdT+a3VaomJiXHauaqCZT5s8uTJdgtQsbGx9O7dm969e7Nnzx6rdebKzatXryp5O0vV4XpZvsePPvrIbiXOtGnTmDZtGtOnT1cmKzKLj49n7dq1pKWlWS13Rn7VMn1xcXF2HxLpdDpGjRpF7969GTx4sMP3uXTpUk6cOGGzfMmSJcrY35YVSpaSkpKUidQsJSYmMn/+fMBUmWWvdbUQ1V11jtOnT59mypQpAPTs2ZPhw4ffcZ/yxmm4XRn4+++/s2LFCpv1Fy9eZM6cOQDUqlXLahJdy8qvKVOmkJmZabWv0Whk3LhxZR6XuDrEieqiovGgpJh8t/Jpxd0PMbmi9UESk+9P1W7IjuJjVBmNRq5cuYK/ry9/7fUkBiNo1Gq8A0JIz8jA3c2V7Jum2Wizc3PJzcnl33372kzCAJU3fnH9+vUZOXIkixYtIjk5mWHDhhEREcEjjzzClStX2L17Nxs2bABMg71HRETYHKN79+5Mnz6dpKQkwHTz8PPzU9ar1Wq6du3Kjh07lKe/ljcbgPfff5+dO3cCphta3759lX3nzZtHREQEiYmJxMXF2cye6uPjQ3h4OD/88EO5r8OePXsYPXo0Tz/9NKGhoRw9epS1a9cqgeGVV16xmvVXCCFEzVMT43SrVq2YNm0a77zzDkVFRbz55pts2rRJ6TJpWeAcN24ckyZNom3btmRkZLB9+3aioqLsHrdz585KN8eYmBjq1atH9+7dyc7OZv/+/cyZMwe9Xu/091NVcd2sW7duxMfHk52dzYcffkj//v0JDQ3l1KlTLFu2TGl1U1MEBQUxYsQIvvrqK+Lj4xk6dKiSb8vPz2fv3r1ERUVx69YtateuTadOnaz2DwkJUV5PnTqViIgIHnjgARo3bgxUj+tVt25d3nnnHWbPnk16ejrDhw9nwIABPPbYY1y+fJkff/yRb775BjD9Prp06aLse+HCBWXCoGXLlrF7926lRZkz8qsAo0aNYt++faSmpjJx4kQuX75Mly5daNCgAYmJiSxcuFCpJOjdu7fD96nVannjjTcYPHgwXbt2JTs7m59++kmpdPL19WXkyJEO94+OjqawsJCePXsSFBTEgQMHiImJUSouxo0b5/Rx54WobNU5TmdlZfHmm29SWFiIn58fr7/+unI/Kc7f359atWoB5Y/TAK+99ho//fQTKSkpzJo1i/T0dHr06IG/vz8HDx5k1apVyoPJiRMnWrWgbdy4MQMGDGDt2rVcvXqV4cOH079/f8LDw7lw4QJbt25l3759Zb4O1SFOVBcVjQclxeS7lU8r7n6JyRWtD5KYfP+plp+m5YQJdevWRafTceXKFTw9PTDHwPr1A7l1K58b16/j5++Pu7sbwQ2C8fDwpF5AXeVHWtnjR5tFRkaSkpLCpk2bOHnyJBMnTrTZJjg4mKioKLy8vGzWNWvWjJCQEJKTkwHrrhZmjz/+ODt27ABMTwLNXTTMLLtC/P7770qFNIC3tzdfffUVU6dOJTY21mq/jh078sEHH/Dtt9+W4R1be/rppzl06BA7duxQ0mipS5cujB07ttzHF0IIUX3UxDj9z3/+k1OnTrF8+XKuX79OZGQkK1euRKPR0KVLF3r37s2OHTtITk7m1VdftdrXPPlN8S6UXl5evPjii8TExJCVlcWHH35otd7Dw4P/+Z//qZSJiSo7rlvq27cv3377Lenp6XbjvPna1SSjR4/m2rVrbNu2jd9//91uV2w3Nzfmz5+vdBU3e/LJJ5Wu5nv37mXv3r00btyYXbt2AdXneg0fPpyrV6+ybt06zp07p7RItBQYGMgnn3xitczyWiQnJ5OamqqM0+yM/CqYKhCWLFnCwIEDycvLY9GiRSxatMhmux49evDaa685fI9Dhgxh+fLlzJw502adWq1m7ty5Doe369evH9u2bWP9+vWsX7/eZn3fvn0ZOHCgw3MLUZ1V1zhtjrMAmZmZ9OnTx+G2H3zwgfIbLG+cBmjQoAFRUVG8+OKL5ObmsnTpUpYuXWqzXWRkJM8995zN8gkTJnDhwgUOHz7MyZMnbeaiCAoK4uGHH1YahpVGdYkT1UFF40FJMflu5tOKu9djckXrgyQm35+q5ZAdcLtrkFqtVprmBwc3oEGDBgQHB+Pr60v79u3p2rUrrR98kDZt2tA8NJSGIQ1wd3e327XIGUFUrVYD2Iw9BKYnciNHjsTf399mn169erF8+fISZ2q3fFpl72Zi2b3i0UcfxdPT02r9sGHDcHNzo169ejz//PM2+zds2JCoqCji4uJYu3YtMTExxMbGEhMTQ6tWrSgoKLD73iz/X3yd+XoEBQWxZs0a/va3v1mt12g0PPfcc8yZM0fZVgghRM1XE+P0O++8o4xTefToURYsWKBsO2PGDPr27UtAQIDVPp07d2b58uVKi5Pix50wYQLjx4+3ie9hYWGsWLGChx56SHlvlu/PMibaS2tptilvXHfEUbxv1qwZGzZsoFOnTlZj8bq7u/Pqq6/y2WeflXjdy8t8LEf5B8tz2dumpPUuLi58+umnjBgxwmbsTrVazVNPPcWmTZusWimZde7cmTlz5vDII49YHc+sItfL0XJHn01JeTQwtfZ76623bL7X/v7+9OzZk02bNtnMbdKrVy9lzNW+ffvafLcrml81a9OmDVFRUTYt0MFUgTRp0iQWLFiAm5ub1TrL9/nGG28wZcoUm7x306ZNmTt3rjK0jaPzr1mzhvDwcKvlnp6evPzyy0yePNnhvkLUBNUxTpclRhSPgeWN02Bqdbps2TK79/SQkBAmTJjgsDeFRqPhyy+/5JlnnrFpndmzZ09Wr15NYGCgTZot01J8eXnjhDPyDuVRlvM6Wm9ebm99eeMB3DkmlzefVtJ7ulOsdpRvuRdjsrPqgyQm359cjJXVP7Ycrl+/Tr169ay6Aplfl/Wvo3X5+fmVPmyEXq/nxo0bZGRk4OnpSXBwsNLdqLIVFhaiUqmsAlt+fr7ytDg4ONjh+3/hhRc4ceIEnTp1UsYYKo/8/HyuXLmCi4sLjRo1cnjTE0KImuT69eu4uLjg6+tboYJZ8X0chWHzbPHFK1rupnslTt9JUlISeXl5NGjQwKZ1bElSUlJIS0sjKCioUj+3isb1iRMn8s033+Dp6VnmsROLioq4dOkSarWaRo0a2Z0sDkzjDZa3G2zxfExl0+v1XL9+nczMTLy9vWnQoEGpu4Tm5uai0+moVauW3YJyaa9XZbPMm9arV6/EBhJmubm5dnv1VYacnByuXr0K3G7pWBZGo5GrV6+SlZVFQEAAgYGBdu/PqampSuF80qRJDBgwQDl/UlIS7u7uNGzY0O5nKao/idMSp0sjNzeX5ORk9Ho9devWdXi/sKcyyrlVEScKCwvLva+bm1ul92KzVJF4cKeYXFX5tDu512NyaX8nEpPvP8XjdLUfsqP4GFh3+mvvOFXVHdhMrVbToIHp6XNVc3d3t1mm0+kYOnQo+fn51KtXj2+++cbmphcdHa1MCmNvoPuyqFWrFq1atarQMYQQQlRfNT1O34mjLv53EhgYqLSSqkwVjeu//PKLkt6ycnNzU1rqlOT9999n27ZtZT4+mFqy/fe//y3XvuWhVqsJCQmxGoeytO5UOCzt9aps5cmbVlXBF6BOnToVyju6uLiU+zM0n99yjFohajqJ0455eXmV+35TGeXcyo4Tly5d4sknnyz3/gsWLODvf/+7E1NUsorEgzvFrarKp93JvR6TK/o7kZh8/6h2FdL2AmJZgihYP9UtKcDeL7y9vXn++eeJjo4mNTWVp59+mvbt29O2bVsKCws5fPgwp0+fBsDPz69CAUsIIcS9TeL03VfeuP7pp5+yd+9epdWLuZtqZTAYDOXeV74HQghRfhKnhaWKxGNn7C+EEI5UqwppFxcXDAYDKpWqUoJodXqqW9XeeustCgsLWb9+PTk5OcTFxREXF2e1TcuWLVm0aFG5W5cIIYS4t0mcrj7KE9e//fZbsrOzAVNFdWRkZKWl75VXXqFXr17l2resXUOFEEKYSJwWxQUHB/Pll1+We/8OHTo4MTVCCHFbtRpDOiMjA41Gg6enJ2q1utTjWJXmr8FgQKvVAtVrnK+qdvz4cQ4cOMCFCxe4du0avr6+tG7dmjZt2tC1a9cqG+taCCFqGhmbUuJ0dVSWuD5+/Hjc3d0JDQ2lX79+Vdr9U4jqID8/nzlz5gDwj3/8Qypa7jESpyVOCyFqDonJ95/icbpaVUjn5+dz8+ZNsrKyKCoqclqXIBcXF9zc3PD19cXHx0cqXYUQQpSZFHQlTgshhKi+JE5LnBZCCFF9VetJDT08PADTxHxardapAdTV1RUPDw/lHEIIIYQoG4nTQgghRPUlcVoIIURNUa0qpFUqFbVq1ZInrkIIIUQ1JHFaCCGEqL4kTgshhKgpVHc7AUIIIYQQQgghhBBCCCHuD1IhLYQQQgghhBBCCCGEEKJKSIW0EEIIIYQQQgghhBBCiCohFdJCCCGEEEIIIYQQQgghqoRUSAshhBBCCCGEEEIIIYSoElIhLYQQQgghhBBCCCGEEKJKSIW0EEIIIYQQQgghhBBCiCohFdJCCCGEEEIIIYQQQgghqoRUSAshhBBCCCGEEEIIIYSoElIhLYQQQgghhBBCCCGEEKJKSIW0EEIIIYQQQgghhBBCiCohFdJCCCGEEEIIIYQQQgghqoRUSAshhBBCCCGEEEIIIYSoEpq7nQAhhBBC1AwGg4GioiKKioowGo0YjUYAh3/NzNsajUb8/f3RaCT7IYQQQjibxGkhhBA1hbSQFkIIIUSpFBQUoNVqAXBxccHFxUV5be+vmYuLCwaDgYyMDHJycpRjCCGEEMJ5JE4LIYSoKaRCWgghhBClUlBQAFgXaEtb2DUajdy6dQuVSkVubq4UdoUQQggnkzgthBCippC+OEIIIYQoFa1Wi5ubG0ajERcXF+UvYLPM8q95fVFREa6uruh0OnJzc/Hy8sLV1dWpadywYQNarZawsDDat2/v1GPfK86cOcOaNWto164d//nPf5TlBoOBVatW8eeffzJo0CCaNWt2F1MpyuPs2bMcO3YMFxcX/vOf/6BWq+92kkqlpqZbiOqmJsTpe9Hx48c5c+YM7u7u9OvXT1keHx/P6tWrad26NQMGDLiLKRR3Q03Nk0pMFlVFKqSFEEIIUSrmQqu9gqyjQq75r16vp6ioyGpcysoo7H7yyScUFRUxZMiQGpX5r0rjxo3jwoULfPPNN7Rs2ZIOHToA8NNPPzF9+nQAEhISWLVq1d1MpiiH2NhYZs+eDUCfPn2oVavWXU5R6dTUdAtR3dSEOH0v2r59O6tXr8bLy8uqQvr999/n9OnTAISGhtKpU6e7lURxF9TUPKnEZFFVZMgOIYQQQpSavS6/lv8cbaPX69FqtajVajQaDRqNBrVaLd2C7wKVyn72z7L7dvGu3EIIIWoGidPVh8RVIYRwTFpICyGEEKJMLFtcmf9fVKRDpTItt+z+C6ahILQ6PYVFRXYrQ6UFVtWaOXMm69ato23btkrraIDHH3+cCRMmcPHiRV566aW7mEIhhBAVIXG6epg+fTpr166lVatWdOzY8W4nRwghqhWpkBZCCCFEmVm29CkqKsLNTY1G9X/jVAKW7YCMRiMGnStetTz/b1s3q2MZjUZycnLw9va26iosKseDDz7I1KlTbZarVCoGDRp0F1IkhBDC2SRO330tW7ZkypQpdzsZQghRLUk0EUIIIUSpFR+PsqCggLp16/JncjpXUwtQqVy4Xcw1Ym6gVVioxc3dl/j4eNLS0nBzc8PV1VXpFuzp6YlWq8Xf379Gt8DKzc3l4sWL1K9fn3r16pV5/7y8PBITEwkJCcHf379U+xQUFJCcnExRURFNmzbFw8OjzOctC4PBQFJSErdu3aJp06Y2FReV7c8//0Sv19O4ceNSf1fy8vK4du0aBQUFBAUFUbdu3TJ1n9ZqtZw7dw53d3eaN2/ucDudTsf58+fx9/enfv36NusLCgr4888/8fX1JTg4uFTnvtvXu7wMBgPXr18nLS2NunXrEhQUVOaJkW7cuEFKSgpBQUFl/j0ZjUaSk5PJysoiJCQEPz+/Mu0vRE0lcbpkFYkHBQUFJCUlodfradKkCe7u7k5JU0Xv8+XJOzhDec5rMBhITU0lJSUFLy8vgoODy5xvkZhcdrm5uSQnJ2M0GgkJCaFOnTplPkZFYrI5f+zl5UVISEiNvocI55EKaSGEEEKUibmwm5dXgLubCwlXMll3MB+Nu2WB4v/GpTQaMbq4YDSq0d6CZx92o/WD/uTmF+FV2xO4PaaxueBcWZnU06dPM2TIELKzs/H29mbjxo00atSI1157jX379tG+fXvWrVtnd9+hQ4dy4MABHn30UaKjo63WabVaFi9ezObNm7l27ZqyPCAggPDwcKZMmWJTGZaRkUG3bt0AmDx5MkFBQcyfP58zZ86g1+sBCAwM5L333uMf//iH3TSlp6czc+ZMvvvuO3Q6HWC6hj179uS9994jJiaGmJgYfHx8OHDggLLf559/zooVK/Dy8uLw4cPK8oKCAsLDwzEajYwdO5YhQ4ZYne/s2bNMmzaNP/74g4KCAgBcXV1p3rw5gwcP5plnnnF88cvh448/Zt26dQQEBLB7924mT55MbGws6enpAKjVanr27MmHH35I3bp17R7jjz/+4MsvvyQuLs5qecOGDXn55ZcZOHBgief973//y7vvvsuRI0e4desWwcHB/Pjjjzbb7dixgwkTJhAXF0deXh4AjRs35uOPP6Zjx44kJSUxY8YM9uzZo1QUBQYG0rdvXyIjI+2mvbKv96hRo/jpp59o2rQp3333nc36gQMHcuzYMQICAvj5559tKmzM+zdv3pytW7cqy3U6HUuWLGH16tVkZmYqy319fYmIiOCNN94osYWlwWDg66+/ZsGCBaSmpirLQ0NDGTNmDE888YTNPpafxd69e1m5ciVLliwhNzdX2ebhhx9m/Pjx/OUvfyndBRKiBquucXrTpk18+OGHpdp22rRpPPvsswAVjtNQvnhglpmZyeeff87WrVuVeKtSqejVqxdjx451uN8XX3zB0qVL8fT05NixYzbry3qfd0beoTyccV6dTseiRYv4+uuvSUtLU5ZrNBr+/ve/8/bbb9OkSROb/e6HmHz69GllMsxZs2bZXMODBw8qebJJkyYRERFhtf7UqVM8//zzgOk799RTTynr/vjjD+bOncv+/fut9unUqRNjxoy542SLZY3Jxb8r7du359NPP7XKb9auXZuIiAjefvttqZi+z0mFtBBCCCFKzbLllUrtgkatIiPXQJ06dfDzdEFnBNvOwKBRuZLp7k6B0YB3HRVGCnBzs86EGo1GCgoKytVq407Onj3LkCFDyMrKwtfXl+XLl9OoUSPAVEgyGAwlTtrkaJtbt24xYMAAzpw5Y7NPWloau3btIj4+nmXLlhESEqKs0+v1GAwGAI4dO8b333+vFHDMUlJSGDNmDHl5eUpBw6ywsJCRI0dy4sQJq+VGo5Hvv/+eEydO0KFDB7tpdvReDAaDUrA0/zX79ttvmThxolIQN9NqtZw5c4Z3332Xa9eu8dprr9lch/Iyp7OoqIjx48eza9cuq/V6vZ6dO3dy6tQpvvvuO5tWSvHx8bzyyitWlZJmSUlJTJs2jby8PJs0m89bUFDA6NGjOXjw4B3TN27cOH744Qer9ZcuXWLo0KFERUXx7rvvcuPGDav1KSkpLFq0CIPBwOjRo63WVcX1Dg8P54cffiAhIYG0tDQCAgKUdTk5ORw/fhyDwUBKSgpnz56ldevWynqDwcDRo0cxGAw2FbyffPIJ69evtzlfVlYWixcvJiMjg48++shhuubNm0dMTIzN8oSEBN566y2WL19Op06drNZZfqcnT57M5s2bbfb/7bffGD58OBs3bqRZs2aOL4wQNVx1jtPm32ppWMahisRpKH88MB/37bff5tChQ1bLDQYDO3fu5Pjx4w4fdJWUpvLc5yuadygvZ5x38uTJbNq0yWa5Tqdj586dnDhxgnXr1tm0ZL4fYnLLli2pVasWubm5HD582KZCOjY2Vrn++/bts6mQPnLkiLI+PDxcWZ6YmMiQIUPIycmxOeehQ4cYNmwY69evJzQ01GHayhqTLb8rZ8+eZcaMGeTn51vtm5eXx7Jly8jJySkxPyDufVIhLYQQQogyMbeUdHFxARcXXF1VuKn1uODC7Q75psKuMqmSAdxURlz/r2WkEaPdSZeKZ/adIT4+nsGDB5OVlUVAQAArVqygRYsWTjn2hg0blMrobt268dJLLxEaGsrJkyfZvn07u3fv5uLFi0RHRzNhwgS7x9i6dSu+vr68//77PProowD897//JSoqCoPBwBdffMHTTz+Np6eppZrRaOTdd99VKqM7dOjACy+8QIcOHTh//jzbt29nx44d7NixwynvsbCwkFmzZqHT6XBzc2PcuHE88sgjGAwG9u3bx9q1a0lNTWXu3LlERETg6+vrlPOaZWVlsWvXLnr37k2/fv0IDQ3lwoULfPbZZ1y4cIErV66watUqhg4dquxz9epVhg8fTm5uLiqVildeeYXu3bvj7+/PwYMHWb16NZcvX2bu3LkEBgby3HPP2Zw3OzubgwcPEh4eztNPP82DDz7oMH0//PADL730En369EGtVrN27Vo2btyIVqtl8ODBAPz73/8mIiICPz8/9u/fz/Tp09Hr9axcuZI333xTaTVcVde7e/fufP755wAcPXrUqkXVgQMHrCqD4uLirCqk4+Pjyc7OVo5jtmLFCqUyukOHDgwYMIC2bdty5swZVq9eza+//sqGDRto3Lix1edlKSYmhnr16jFo0CC6devGzZs3+fHHH4mJiUGv1xMZGcmmTZusHvCYZWZmsnnzZpo0acKLL77IY489RlJSEt9//z2bN28mLy+P119/nQ0bNlTKgy8hqovqGqf/9a9/0blzZ7vr8vPzGTp0KBkZGQQHB9vtDVEeFY0Hn332mVIZ3bZtWyIiIggPD+fcuXNs27aNvXv3snPnzjKlyRn3+bLmHZylPOf98ssvlcrosLAw/vOf/xAeHs7ly5fZs2cP33zzDVevXmXEiBGsWbMGLy8vm/PeyzFZo9HQpUsXvv/+e44cOWKzPjY2Vnl96NAhtFqtVctic+vjBx98UBlKIyMjgxEjRpCTk4NGo+HVV1+le/fuuLi4EBsby6JFi8jJyWHEiBFs3LjR4ZArFYnJ5t4ML7zwAj179qR+/focOHCAVatWkZSUxIYNG2jdujX9+/cv8zUT9wapkBZCCCFEqZkLp1aFVKMBV3S4uqjQcbvgqlapUKlUqFxUuKjAiB6VyogRF6vCsmVh19nOnTunVEbXr1+flStX0rRpU6cd/9KlS3Tq1Ak/Pz+mT5+uFMAaNWrEE088QY8ePcjKyrLqqlicu7s7X331FQ899JCybPTo0WRkZLBx40YyMzNJSEggLCwMMFUGmgu/LVq0YOnSpdSuXRuAJk2a0LNnTzQaDdu2bXPKezx37hyhoaGEhobSv39/q4rLtm3b4unpyWeffQaYWk45qxLB0lNPPcXs2bOVbuNBQUEsXryY3r17o9VqOXLkiFUF5+LFi0lJSQGwGX6kZcuW9OjRg379+pGbm8snn3xCnz59lGNb6tWrF7Nnz75jl9IBAwYwceJE5f8ff/wxV69eVbrIPvXUU8yYMUP53jdt2pSMjAwWLlxIYWEh58+fVyp8q+p6t2zZksDAQFJSUjh8+LDVecxd2j08PCgoKCA2Npbhw4cr683fZ41Go7SMSktLY+bMmcqxo6KilEqFZs2a0aNHDyIiIkhISGDOnDkMHDjQ7tibrq6uLFiwwKobcefOnfHx8WHevHlkZWWxcOFCpk2bZvd9eXt7ExUVpfSAaN68OX/9619xcXFh06ZN/Pnnn6xZs8aprfmFqE6qc5yuVasWjRs3trvOHPdcXV2ZN2+e08Z9r0g8uHz5MqtXrwYgODiYpUuXKulq1qwZvXr14tVXX7WqMCwNZ9zny5p3cJayntfc8hggJCSEqKgoq2v417/+FY1Gw/r164mPj2f9+vUMGzbM7rnv5ZjcrVs3vv/+exISEsjIyFAqiG/cuMG5c+cAcHNzIy8vj19//ZWOHTsCpkYK5uFgLB8QL1iwgKSkJOX9m4e/AWjfvj2BgYFMmjSJ5ORkVq9ezVtvvWU3XRWNyYMGDbJqkNGyZUu6devG888/T35+Pp999hnPP/+8TJZ6n7LNeQshhBBClMCcgVe5uGA0goebivp+rtT10VDPx5V63qa/tTVa9HmpZKcmkpf6J8ZbqajQoQQDXocAACAASURBVIxb6WL919kuXLjA4MGDyczMJCQkhDVr1ji1MhpMY/lFR0czd+5cm1ZIbm5u/POf/wRMlciOuil37NjRqmBnZt4XTIVis5MnTyqvP/roI6Uy2tK0adOc1gK0Xbt2REdHEx0dbVUQM7McN/H06dNOOWdxQ4YMsakwbtiwoXLdLl26ZLXOfI3at29vMxY2mCruzV1y8/PzSUxMtHveUaNGlWp8w5deeslmWZcuXZTXzz77rM33/JFHHlFeX7x4UXldldfbXHgt3iLLXCE9atQoAI4fP66MwwmmFtUAf/nLX5RK55MnTyqVVpMnT7Zp4VanTh3GjBkDmLpWx8fH203TsGHD7I5pOXLkSKVFnL0hcszGjx+vVEZbmjRpklLAr6zvqRDVRU2J02YrV65UevVMnjyZdu3aOe3YFYkHlvcKe/NBqFQqZs2aVeZxcJ1xny9r3sFZKpJnsXcNASZMmEBgYKDN9sXdyzHZsjLZMiab43FYWBg9evSwWgamCvObN2/aHMPci65z585WldFmL7zwglLpXtI1r0hMbtiwIePHj7dZHhoayptvvgmYWqA7yoOJe588hhBCCCFEqRVveaVSq7mZfo0jcfH4eXugNxhQqTUYjXoO79vGhZO/EBhYD/R6jp1K5OUB/Xh3/Fg0apXd4zlLQkICL7/8MhkZGQCsXr261DOol1dBQQGXLl0iJyeH7OxscnNz2b59O2BqwWIwGOy2wrVXsANTK2Azy8rAP/74AzBN6te2bVu7+7q5udG2bVuHYy1WxLVr10hLSyM7O5ucnByrsQmLjz3tDK6urg675po/U8vrU1RUpLQmKmmyHsvrfvLkSZo3b261vnbt2rRq1eqO6atdu7bdMYm9vb2V18WPDSiFb6DEMVUr83p3796dTZs2cf78eTIzM/Hz8yMxMZGrV6/i5ubGwIEDWbNmDTdu3ODgwYM88cQTGI1GpbBsnrgIrAu0mZmZNhOHAcrv0by9vUonR2Oxuri40L59e86ePcv58+dtuizfaX93d3dat27N/v37pUJa3NNqSpw2O3z4sDJ8UL9+/ZTJ3ZyhovHA8l7x8MMP293Xx8eHZs2aOXzIVhrluc+XNe/gLGU9r2VscPQZuLm50bp1a1JSUpQ8TnH3ekwODg4mNDSUhIQEjhw5wpNPPgncrnx+/PHHCQoKYs+ePcTGxioPeM3xuHbt2nTo0AEwfe/N1z07O9tuPAaUSaJPnTrlMF0VickPPfSQw5bPlr+nM2fO0LJlS4dpEPcuqZAWQgghRJncLpQaUanUpN+4xidjvqZjlwASbhhIu/AnUA9YDkDvp/9NemYaaVcTid33I2PfGY1KpbIp5DqzBdbPP/+svNZoNLi7uzvt2MXt3buX5cuXc+LEiRInXHKkbt26dpfbG84ATJXtAA0aNHC4DZi6wjqrQjo7O5vZs2fz888/c/36daccs7S8vLwcvk97y+Pj45UxTu0VOs0s1506dYo+ffrYHLs038mSPgOzsn63q+p6P/bYY6hUKmWSwp49eypdzzt27Iinpyc9evRg48aNxMXF8cQTT3DhwgWysrIA69ZYlgXaN954447nPnv2rN3lJRVKzWO/a7VaEhMTbSon3NzcHA4HYN5///79JCUlkZOTI+NIi3tWTYjTYBqOYPTo0ej1esLCwpg0aZJTj1/ReGBu+RkYGIiPj4/D/Vu2bFnmCumK3ufLmndwlrKe11wxGhgYaFUpXFyLFi34+eefSU5OViagLn78ez0md+vWjYSEBGVYLIPBwC+//AJAjx49lEr/M2fOKJMRmyukO3XqpFQInz9/Xjnm6dOnHQ6BYpaenk5qaqoy/rSlisTkkuZrsVx3+vRpq5bm4v4hFdJCCCGEKDXrQqkpQ+/h4UKrLioe6dKAWS+/iFFVhFHvyp5t7dAVZKM3qjl39hyR3XoQ4OOFq8YVvUFvc7zKGktap9MRGRnJihUrnD5G3bx581i4cKHyf1dXV4KCgvDx8aFOnTocOHDAqecDeOCBBzh69CjXr1932EoUnNdV9/LlywwdOpQrV64oy+rWrYu/vz916tTBx8eHH3/80SnncraSCp2W6ypzHPOyqsrr7ePjw0MPPcRvv/3GkSNHrCqkH3/8ceXvxo0bleXmwm9AQIBVy3XLhzEljVl68uRJwsLCqF+/foXSXp7PrLKHHRCiOqgpcbqoqIjIyEjS09Px9fVl3rx5lVqZWpnxoKz3lpocV+83VflZde/enejoaM6dO0dWVhaXLl3i5s2b+Pr60q5dO1QqFa1atSI+Pp79+/fzzDPPKDHZ8gFx8YlHHcXkkydPEhwc7PAhQ1nY+91IzBV3IhXSQgghhCgTc6FUo1FTVFhIq/Yd2PLf5ag1oFG54FdHRcKfKTzUujnP9Xma62nZXL6cSrMm9di4ZgVXr11VxnitzJZXBw4cYNy4ccTFxXHkyBFmzJjBBx984HD7klo3W3bJNMvNzeWrr74CTF1VZ8+eTYcOHayG5Zg7dy6LFy+uwLuw1a5dOzZv3oxWq+XcuXN2h+3Q6/UljglYFhs3blQKYoMGDWLUqFFWLZe0Wq1Tx/usqFatWqHRaNDpdFathIq7cOGC8trZkz5VRFVf7+7du/Pbb79x+PBhCgsLlcKtuUL6sccew9XVlaSkJC5evKi03OratavVbzYsLIy4uDjUajVr1qwpd6+Ec+fOOaysNn+erq6uhIaG2qwvKiri0qVLdrtrW+4fEhIiraPFPa0mxOnp06fz22+/oVKpmDNnDg0aNLjjPmWN0xWNB61btyY2NpaUlBRu3rzpsJW0eViQ0qppcbUi2rZty759+0hJSSE7O9thK2nzZxASEmLTOvpuqsrP6tFHH8Xd3Z3CwkKOHTumtNDv3r27krd8/PHHiY+PJzY2lrCwMGUoLMsK6VatWqFWq9Hr9YwcOZLIyMhyp6kiMbmk34Xlb848lrW4/8ikhkIIIYQoNcsJjnQ6PVqtjlpuKtIykrlx4Vf2fB3F/v2HuZx4GlwMHD+dwM9xh0jLSiL1xjX869bj6JEjSlfgypowadCgQfj5+TFr1iwaNmwIwKpVq9iyZYvNtuaKqRs3btg9lk6ns5k0D+DQoUNKK5RXXnmF8PBwmzGizZO/OZNlYXnq1KkUFRXZbPPpp58qwypUlHnsQX9/f8aOHWtTUDTP7l5duLm5KV1Bf//9d4fbWa6rThXSVX29zYXY+Ph49u7dS2FhIY0bN+aBBx4ATONShoeHAxAbG2u3NRbcvoZ6vb7ESQfv5Pjx43aXG41G5TNr3ry5w54Bv/76q93lhYWFyniwbdq0KXf6hKjuakKc3rJlC+vWrQNg9OjRPPbYYyVuX944XdF4YHmvcLT/zZs3laG0SqumxdWKsLyejq5hUVGRcn+ubhXxVflZubu707FjR8A0trr53ObJDOH2w+L9+/dz6NAhwDQxpzmvC+Dh4aEMQ+NoTO7SqkhMPnHihE1rbbPffvtNeS0V0vcvqZAWQgghRJmYC6V16nhRWFSEn1ctgtQ6cpKTad+iCd4F6Zw+/AtNGjUiyLc2ndo3p03jENQqCKhXj62btygZ1Moq7JqH5vD19eV///d/8fDwAGDy5Mk2mXNzgTMrK8tuxnvdunV2Jway7J5ob/2xY8ccVo5VRJs2bejcuTNgyuyPGjWKvXv3kpmZycGDB5kyZQpr1qxx2vnMk/vodDqbym+tVktMTIzTzuUs5gLt77//zooVK2zWX7x4kTlz5gBQq1Ythy1q74bKut7x8fGsXbuWtLQ0q+VhYWH4+vpiNBr58ssvgdsFXjPz/1evXk16ejouLi507drV5jhmkydPJjc31yYNsbGx9O7dm969e7Nnzx676Vy6dCknTpywWb5kyRJl3OmSKpRnzpxJUlKSzfKPP/5YaUkmhV9xr6vOcfr06dNMmTIFgJ49ezJ8+PA77lPeOA0ViweW94opU6aQmZlpta/RaGTcuHFlnj+iJsbV8rKMDVOmTLH7sPzTTz8lJSXFZvvqoKpjsnmy4L1793LixAlcXFysJhB++OGH8fb2JjMzk+joaMD2ATHcvo5xcXF2G2PodDpGjRpF7969GTx4sMN0ViQmJyUlKROWWkpMTGT+/PmA6aGRvdbV4v4gQ3YIIYQQotSKjyVpNBq5cuUK/r6+/LXXkxiMoFGr8Q4IIT0jA3c3V7JvmmYiz87NJTcnl3/37WszWRJU3ji+rVq1Ytq0abzzzjsUFRXx5ptvsmnTJmXMPMsC57hx45g0aRJt27YlIyOD7du3ExUVZfe4nTt3VrpExsTEUK9ePbp37052djb79+9nzpw5FZpx3RG1Ws28efOIiIggMTGRuLg4mxnUfXx8CA8P54cffqjw+bp160Z8fDzZ2dl8+OGH9O/fn9DQUE6dOsWyZcuUFjrVyWuvvcZPP/1ESkoKs2bNIj09nR49euDv78/BgwdZtWqVUmE6ceJEm5btd1NlXO8LFy4oEwYtW7aM3bt3K+9ZpVLRpUsXtm/frrQwtGyNBaYK6RkzZijr27Zti5+fn9U2QUFBjBgxgq+++or4+HiGDh1KREQEjzzyCPn5+ezdu5eoqChu3bpF7dq16dSpk920arVa3njjDQYPHkzXrl3Jzs7mp59+UiqSfH19GTlypMP3evPmTYYPH87AgQPp3LkzycnJ7Nq1i2+++QYwjcH+4osvlvUSClFjVOc4nZWVxZtvvklhYSF+fn68/vrrdh8ggalFaq1atYDyx2moWDxo3LgxAwYMYO3atVy9epXhw4fTv39/wsPDuXDhAlu3bmXfvn1lvg41Ma6WV/369Rk5ciSLFi0iOTmZYcOGKbHhypUr7N69mw0bNgCmCfQiIiLucoqtVXVM7t69O9OnT1d+Fw8//LBVvFWr1XTt2pUdO3YoMdmywtps1KhR7Nu3j9TUVCZOnMjly5fp0qULDRo0IDExkYULFyqNJnr37u0wrRWNydHR0RQWFtKzZ0+CgoI4cOAAMTExygOkcePGOX1+F1FzyCcvhBBCiDKxnNiobt266HQ6rly5gqenB+ayav36gdy6lc+N69fx8/fH3d2N4AbBeHh4Ui+grpLxrqzxo4v75z//yalTp1i+fDnXr18nMjKSlStXotFo6NKlC71792bHjh0kJyfz6quvWu1rnqQwPj7earmXlxcvvvgiMTExZGVl8eGHH1qt9/Dw4H/+538qZWIib29vvvrqK6ZOnapMNmfWsWNHPvjgA7799lunnKtv3758++23pKens2PHDnbs2GG13nztqpMGDRoQFRXFiy++SG5uLkuXLmXp0qU220VGRvLcc8/dhRQ6VhnX27KbdHJyMqmpqVZjQnbv3p3t27cDpu+tucuwWbNmzQgJCSE5OVnZ3p7Ro0dz7do1tm3bxu+//263e7abmxvz5893OIbzkCFDWL58OTNnzrRZp1armTt3rlXXZEu+vr507dqV7777jo8++shmfe3atVm4cKHDcWCFuFdU1zhtjrMAmZmZ9OnTx+G2H3zwAQMHDgQod5yGiseDCRMmcOHCBQ4fPszJkydt5qIICgri4YcfZufOnXe+AP+nJsbVioiMjCQlJYVNmzZx8uRJJk6caLNNcHAwUVFReHl53YUUOlbVMbl4vC3+gBhMD4nN53R1dbWJ2WAai3vJkiUMHDiQvLw8Fi1axKJFi2y269GjB6+99prDtFYkJvfr149t27axfv161q9fb7O+b9++ym/8/7N352FSVFcDh3+3qrtnBgYYVoHBDRRkUTREICBoVFASjUY0URPc9xiJRjFiAmrivqHyKYqgIJsKihpRo8QFlEU0yg4CgmzDOgOzd3fV/f6orqJ7uhunFzbnvM/DM0x3VZ1aeuZWnTn3XlE3HTzlIEIIIYQ4ZLhdeE3T9LrbtWrVmtatW9OqVSsKCgro2rUrvXv3puNxx9GpUyeOadeONoWtycnJSdgFOBsPu6ZpAiSseP3rX//qjVO5YMECRo4c6S378MMPM3DgQJo1axazTs+ePRk7dqxXnVJzu0OHDmXIkCFxE7506dKFl156iRNOOME7tujjc/cz2b7WZpk2bdowevRoZs+ezaRJkxg/fjyzZs1i/PjxdOjQgaqqqr1uv6bo5aL/37ZtW1577TV69OgRM0ZgTk4O119/PQ899NBez3u63G1Fn4dUlunQoQNjxoyhV69ece8VFhYydOjQhFU9tYlbm+Wiz0WiZZK9n8n5TnYN+/fv742jOnDgwLjPa/TwGz179iQQCMTtb/QwHskS0kopHnjgAa677rq4cTZN0+Tss89m2rRpcdckel9vvvlm7rnnHpo0aRKzzNFHH82IESO84WqSxX/wwQcZPHgw9evXj3mvS5cujBo1yhtXU4ifuoOxnU6ljajZBqbbTkP67QE4Q4A99dRTnHfeeXGVnP369WPChAm0aNEibp+j96Xm6+n+ns/GvUM6shH33nvv5cYbb4z73W6aJv3792fs2LEJJ887lNvkZK//WJscXfGcKCEd3QaffPLJ5OXlxS0DzlAao0ePTtgjqXXr1gwbNoyRI0fGtfnZapM7derExIkTvXkoXHl5eVx++eUMHz486bqiblB6X/WPFUIIIX5CioqKUEpRUFCQ0YNZzXWSNcPubPE1bwAPpKKiIpo3bx6zz+7/U/2a7L2Kigpatmy5Lw/jR23YsIHy8nJat26dtIozka1bt7J9+3Zatmy5T69bRUWFVwXWqlWrpOfrd7/7HQsXLqRHjx7eOIPgdEmeOnUqeXl5KY9xHQwGWbduHaZpcvjhhyedWC4cDqc9XIlhGEm3m66ysjI2btyIZVk0bdqUFi1a7POq/Gyo7fmurbKysv1WfWZZFkVFRRQXF9OwYUNat26dUrdcrTWbNm2ipKSEZs2a7fWaDR8+nFdffZXGjRszZ84cwBn3c/369ZSXl9OiRYu4JJb46ZF2Wtrp2sikPaioqGD9+vUopTj88MOTJgJTke3f84lUV1envW4gEMhqe2lZFlu2bGHnzp3k5eXRqlUrb2iWg92h3CaXlpayadMmYE+PglTUtk3etm2blzAfNmwYl156qRd/w4YN5OTk0KZNm4R/+BY/fTXbaRmyQwghhBApie4KXHOsyh/7mmg7+2vYjtpK1vXwx7Ro0cKrktqXwuEwV199NRUVFTRv3pypU6fGVdeMGzfOm4SmZjXrF1984e1vqgKBgFfVszd33XUX77zzTsrbB6eS7a233kpr3WTy8/Pp0KFDVre5P9T2fNfW/uwKbZomhYWFFBYWprW+Uiqj9Q3D4Mgjj0xrXSEOddJOJ5dJe1CvXr2styXZ/j1f07p16zjrrLPSXn/kyJGceeaZWdsf0zRp3dqp1D/UHMptcoMGDTL67GbaJjdo0EAmFBZxJCEthBBCiFpL9OCaysMuxFZf7e1BWCTWsGFDLrroIsaNG8e2bds455xz6Nq1K507d6a6upr58+ezdOlSABo3buw9iD7wwAPMnDnTq5BxhxPZF9xZ6dMhnwMhhEiftNMiWibtcTbWF0KIZCQhLYQQQohaUUph2zaGYeyTh92DqfrqYHfLLbdQXV3NlClTKC0tZfbs2cyePTtmmfbt2/Pcc8951SzTp09n9+7dgJOoHjx48D7bvyuvvJL+/funta5MOCeEEOmRdlrU1KpVK5566qm01z/ppJOyuDdCCLGHJKSFEEIIUSt+v5+Kigry8vIwTTPjh12IHZcyHA7vk7ETf4rq16/PPffcw29+8xvmzJnDqlWr2Lx5MwUFBXTs2JFOnTrRu3fvmHEZTzvtNHJycmjXrh0XXnjhPu0q2qVLF7p06bLPti9EtF69ehEIBPZr92chDkbSTouacnNzMxqyQ4hU1K9fn0GDBgHIEB3iR8mkhkIIIUQtyGRJzmQ+u3btoqSkhGAwmLWuu0opAoEABQUFNGrU6JCZ3EYIIcTBQ9ppaaeFEEIcvGRSQyGEEEKkJTc3F4CcnBxCoVBWH3T9fj+5ubleDCGEEEKkRtppIYQQhwpJSAshhBCiVgzDoF69elIZJYQQQhyEpJ0WQghxqDAO9A4IIYQQQgghhBBCCCGEqBskIS2EEEIIIYQQQgghhBBiv5CEtBBCCCGEEEIIIYQQQoj9QhLSQgghhBBCCCGEEEIIIfYLSUgLIYQQQgghhBBCCCGE2C8kIS2EEEIIIYQQQgghhBBiv5CEtBBCCCGEEEIIIYQQQoj9QhLSQgghhBBCCCGEEEIIIfYLSUgLIYQQQgghhBBCCCGE2C8kIS2EEEIIIYQQQgghhBBiv5CEtBBCCCGEEEIIIYQQQoj9QhLSQgghhBBCCCGEEEIIIfYLSUgLIYQQQgghhBBCCCGE2C98B3oHhBBCCHFosG2bYDBIMBhEa43WGiDpV5e7rNaaJk2a4PPJ7YcQQgiRbdJOCyGEOFRIhbQQQgghaqWqqopQKASAUgqllPf/RF9dSils22bnzp2UlpZ62xBCCCFE9kg7LYQQ4lAhCWkhhBBC1EpVVRUQ+0Bb24ddrTWVlZUYhkFZWZk87AohhBBZJu20EEKIQ4X0xRFCCCFErYRCIQKBAFprlFLeVyDuteiv7vvBYBC/3084HKasrIz8/Hz8fn9W9/G1114jFArRpUsXunbtmtVt/1QsW7aMiRMncvzxx/P73//ee922bV555RW+//57LrvsMtq2bXsA9/Knbfny5Xz11Vcopfj973+PaZoHepdECuT3jDhYHQrt9E/R119/zbJly8jJyeHCCy/0Xl+xYgUTJkygY8eOXHrppQdwD8XeSJt8aJM2+dAlCWkhhBBC1Ir70JroQTbZQ6771bIsgsFgzLiU++Jh91//+hfBYJCrrrpKbkqTuOOOO1i1ahVTp06lffv2nHTSSQB88sknPPjggwCsXr2aV1555UDu5k/arFmzePzxxwE4//zzqVev3gHeI5EK+T0jDlaHQjv9UzRjxgwmTJhAfn5+TEL6rrvuYunSpQC0a9eOHj16HKhdFHshbfKhTdrkQ5cM2SGEEEKIWkvU5Tf6X7JlLMsiFAphmiY+nw+fz4dpmtIt+AAwjMS3f9Hdt2t25RZCCHFokHb64CHtqhBCJCcV0kIIIYRISXTFlft9MBjGMJzXo7v/gjMURChsUR0MJkyGSgXW/vXII48wefJkOnfu7FVHA5x66qkMHTqUtWvX8sc//vEA7qEQQohMSDt9cHjwwQeZNGkSHTp0oHv37gd6d4QQ4qAiCWkhhBBCpCy60icYDBIImPiMyDiVQHQdkNYaO+wnv15eZNlAzLa01pSWltKwYcOYrsJi3zjuuOO499574143DIPLLrvsAOyREEKIbJN2+sBr374999xzz4HeDSGEOChJayKEEEKIWqs5HmVVVRVNmzbl+4072LStCsNQ7HnM1bgFWtXVIQI5BaxYsYLt27cTCATw+/1et+C8vDxCoRBNmjQ5pCuwysrKWLt2LYcddhjNmzdPef3y8nLWrFlDYWEhTZo0qdU6VVVVbNy4kWAwyNFHH01ubm7KcVNh2zYbNmygsrKSo48+Oi5xsS+FQiFWrlxJTk4OxxxzTNz75eXlbN68maqqKlq2bEnTpk33SzfpbF2DjRs3UlVVRdu2bVPe73Q+O7ZtU1RUxPbt22natCktW7as9WRO27dvp6ioiKOOOor8/Px9ts7+UlZWxsaNG9FaU1hYSIMGDVJav6qqirVr1+L3+2nTpg05OTkpx1+7di35+fkUFhYe0r8HxYEl7fTeZdJOVFVVsWHDBizL4qijjkr55zyZTNvVdH7/Z8OWLVsoKiqibdu2CX9n1uU2+fvvv8eyLI488sha/7xk0g79lNrkTO5NXJm0yVprNm7cSElJCYWFhTRu3DjVQxC1JAlpIYQQQqTEfdgtL68iJ6BYvb6YyXMr8OVE3/BHxqXUGq0UWpuEKuG3JwboeFwTyiqC5NfPA/aMaew+OO+rB92lS5dy1VVXsXv3bho2bMjrr7/O4Ycfzg033MBnn31G165dmTx5csJ1r776aubMmcPJJ5/MuHHjYt4LhUKMGjWKN954g82bN3uvN2vWjG7dunHPPffE3czu3LmTU045BYDhw4fTsmVLnnnmGZYtW4ZlWQC0aNGCv/3tb/zqV79KuE87duzgkUce4d133yUcDgPOOezXrx9/+9vfGD9+POPHj6dRo0bMmTPHW+/RRx/lpZdeIj8/n/nz53uvV1VV0a1bN7TW3H777Vx11VUx8ZYvX87999/PokWLqKqqAsDv93PMMcdwxRVXcN555yU/+Wn45z//yeTJk2nWrBlvvfUWd955J19++SWVlZW0atWKjz/+2Ft20aJFPPXUU8yePTtmG23atOHyyy9n0KBBcdtftGgRv//97wF44YUXvOsR7euvv/aGL3nppZfiJqRK9xpE01rz0EMP8cEHH3ifnwYNGtCtWzfuvfdeDjvssJjls/HZCYfDPP/880yYMIHi4mLv9YKCAi6++GJuvvnmhFWQlZWVPPzww3z88cds2bLFe72wsJA//vGPXHHFFXEP7emsU9PSpUu9icIee+yxuOOaO3eu93kdNmwYF198ccz7S5Ys4aKLLgLgiSee4Oyzz/beW7RoESNGjODzzz+PWadHjx7cdtttPzpB0g8//MAjjzzCzJkzvSSg3+/nvPPOY8iQITRs2DBm+ZrXr2vXrjzwwAMxP4v169fn4osv5i9/+cshnfgTB87B2k5PmzaNf/zjH7Va9v777+e3v/0tQMbtNKTXTriKi4t59NFHefvtt73f9YZh0L9/f26//fak6z3xxBO8+OKL5OXl8dVXX8W9n2q7mo3f/+moGVcpxdixY1m7di3gXKuBAwd6y6dzrrNxjQ9Emxx9r/Lhhx8yfPhwZs2axY4dOwAwTZN+/frxj3/8g6ZNmyaMmW47dKDa5JtuuolP82EyDwAAIABJREFUPvmEo48+mnfffTfu/UGDBvHVV1/RrFkzPv3007jtuesfc8wxvP32297r6d6bREu1TY6+fjNnzuTll1/m+eefp6yszFvmxBNPZMiQIfzsZz/ba2yROklICyGEEKLWoiuvDFPhMw12ltk0aNCAxnmKsIb4zsDgM/wU5+RQpW0aNjDQVBEIxD7Qaq2pqqpKuTKxNpYvX85VV11FSUkJBQUFjB07lsMPPxxwboBt297rpE3JlqmsrOTSSy9l2bJlcets376dDz74gBUrVjBmzBgKCwu99yzLwrZtAL766iv+85//eA+jrq1bt3LbbbdRXl7uJdNc1dXV3HjjjSxcuDDmda01//nPf1i4cCEnnXRSwn1Odiy2bXsPtO5X1/Tp0/n73//uPeC5QqEQy5Yt484772Tz5s3ccMMNcechXe5+VlVVceuttzJ37tyEy61YsYIrr7wy5uHBtWHDBu6//37Ky8vj9i36GtQ83kTLuF9dmVyDaI888givvvpqzGulpaV88sknXHXVVUyYMCHmDxqZfnbAmZF+ypQpca+XlJQwatQodu7cyX333Re3zWuuuYaVK1d6r7m/DzZu3MjDDz/M3Llzef755zNaJ5H27dtTr149ysrKmD9/flyiZdasWd45+eyzz+IS0l9++aX3frdu3bzX16xZw1VXXUVpaWlczHnz5nHNNdcwZcoU2rVrl3C/tmzZwiWXXOIlHlyhUIipU6dSVFTE888/H1PZFX39li9fzsMPP0xFRUXM+uXl5YwZM4bS0tK46yDEjzmY22n393ptRP9ezqSdhvTbCXe7f/nLX5g3b17M67Zt8/777/P1118nTVTtbZ/SaVez8fs/HdFxZ82axX//+9+k1zHdc53pNT5QbbK7T8FgkCFDhvDBBx/ErGtZFu+//z5Llizh3Xffjat+T7cdOpBtcrdu3fjvf//L6tWr2b59O82aNYs5V19//TW2bbN161aWL19Ox44dvfdt22bBggXYth33c5POvUm0dNrk6M/U8OHDeeONN+K2+80333Dttdfy+uuv07Zt272eG5GaxNOsCyGEEEIkoZTy/qEUfr9BwLRQWJhYmNiYhDGxMHQYQ4fBDhMwwvh9zq2HRsdVTCilkiYGM7FixQquuOIKSkpKaNasGa+88gqdOnXKyrZfe+01Lxl9yimnMGrUKD788EOefPJJ+vXrB8DatWsTVvK43n77bXJzc7n33nuZMWMGM2bM4Prrr/cq0p544gkqKyu95bXW3Hnnnd5D10knncSDDz7I+++/zzPPPMOAAQMoKirivffey8oxVldX89hjjxEOhwkEAtx99928+eabTJs2jcGDB3tDk4wYMYKSkpKsxIy2e/du5s6dS7du3Rg+fDiTJ0/miSeeAGDTpk1ce+21lJWVYRgGV199NS+//DJvv/02Q4cO5YgjjvD2LdFDRrqyeQ1effVVfvGLX/Dss8/yySefMGnSJO8hbfXq1YwePTrpuql+dsCp9HYf+E466SQeffRRZsyYweOPP+5Ncvnaa68xZsyYmPWmTp3qPcRefvnlzJ49m2+//Zbx48fz85//HIBPP/005g8H6ayTiM/no1evXoCTXK5p1qxZ3v/nzZsXl2xwq4+PO+447/O6c+dOrrvuOkpLS/H5fPzpT39iypQpvPrqq9x8882YpklpaSnXXXcdO3fuTLhf7777Ljt27OCss87imWeeYcaMGdx7770cd9xxAMyePZvHH3886XFNnjyZiooKfve73zF69Gjefvtt7rrrLtq0aQM41yFZpaAQe3OwttPnnnsuH3zwQcJ/b775pjfcRKtWrTjjjDPSPwFRMm0nHnroIS8Z3blzZ/75z38yY8YMRowYwRlnnMHWrVt5//33U9qnbLSr6fz+z4aPPvoIv9/Ptddey3PPPcekSZPo27cvULfb5JKSEj744AMGDBjAmDFj+OSTT3jxxRe94cXWr1/PK6+8ErNOJu3QgWyT+/Tp4/1/wYIFMe/NmTMn5ndEzSr5FStWsHv37rjtpHtvEi2TNrm4uJg33niDo446irvvvpt///vfjBo1igsuuABw/lD8pz/9KeEfDkT6pEJaCCGEELXmVlJEV2ChbfyE8SuDMNpb1jQMDMPAUAbKAI2FYWg0ynvIjdnOPrBy5UovGX3YYYfx8ssvc/TRR2dt++vWraNHjx40btyYBx98kLw8p3vz4YcfzhlnnEHfvn0pKSmJ6Y5fU05ODi+88AInnHCC99qtt97Kzp07ef311ykuLmb16tV06dIFcG7m3YffY489lhdffJH69esDcNRRR9GvXz98Ph/vvPNOVo5x5cqVtGvXjnbt2nHJJZfEDHfQuXNn8vLyeOihhwCnYitbSYRo/fv35/HHH4/rJj5q1Ci2bt0KEDfMSPv27enbty8XXnghZWVl/Otf/+L888/3HtYzkc1r8LOf/YxRo0Z54xu2bNmSF154gTPPPJOSkhIWL16cdN1UPzvbt2/nkUceAZzzM3r0aG/cyLZt29K3b18uvvhiVq9ezZNPPsmgQYO8aq4PP/zQW+6uu+7y4nXv3p0RI0YwdOhQqqurWbNmDT179kx7nWROOeUU/vOf/7B69Wp27tzpJa62bNniPWAHAgHKy8v53//+R/fu3QEnUeF2lY9++B05ciQbNmwAnC677tAAAF27dqVFixYMGzaMjRs3MmHCBG655ZaE+3X66aczYsQI73da27ZtOeOMM7jgggvYunUrY8eO5bLLLqNly5YJ17/ssssYOnSo93379u055ZRTuOiii6ioqOChhx7ioosukonkRK0dzO10vXr1OPLIIxO+5/7u8vv9PP3001kbtzWTduKHH35gwoQJgJMkf/HFF739atu2Lf379+f666+P+aNYbWSjXU3193+25ObmMmbMmJjeJq663iafffbZPP74494xtWzZklGjRjFgwABCoRBffvklV199tbd8Ju3QgWyT27dvT4sWLdi6dSvz58+P+fy6Cejc3FyqqqqYNWsW1157rfe+ez/s8/m8YdAyuTepKZM2uWHDhowePdrrQXnMMcdw2mmnoZRi2rRpfP/990ycODGrvQHrOqmQFkIIIURK3Js8Qym0htyAwWGN/TRt5KN5Iz/NGzpf6/tCWOXb2L1tDeXbvkdXbsMgjDdupYr9mm2rVq3iiiuuoLi4mMLCQiZOnJjVZDQ449WOGzeOESNGeMloVyAQ4Ne//jXgPCwl697avXv3mAdKl7suOA/FruiHofvuu8976Ip2//33Z23ok+OPP55x48Yxbty4mIcOV/QYl0uXLs1KzJpuuummhGOWuueia9eucWNeg/MgeuuttwJQUVHBmjVrsrI/2bwGgwYNiptsJz8/36s4W7JkSdJ10/nsuIml4cOHx01i1KBBA2677TbA6ca6YsUK7z33AbukpCRm3Elwxkt/4YUXGDduHJdeemlG6yQTnUyOrpJ2H367dOninbPoiqyVK1eya9euuG24lXQ9e/aMSQK4fve733ndjJMlIPLy8njkkUfifoc1a9YsZpzcZD8Xbdq0YciQIXGvt2vXjj//+c8AXnJAiFQcKu206+WXX/aqV4cPH87xxx+ftW1n0k5E/+wmmg/CMAwee+yxlMfUzka7murv/2zp3bt3wmQ0SJt81VVXxSXY27Rp412ndevWxbyXSTt0sLTJNXstue3vTTfdBDhzcZSXl3vvuxXVP/vZz7x7kEzuTaJl2iYPGTLES0ZHGzZsmPdH8H11n1tXyZ/ahRBCCFFrNSuvDNNk147NfDl7BY0b5mLZNobpQ2uL+Z+9w6rFX9CiRXOwLL5asobLL72QO4fcjs80Em4vW1avXs3ll1/udXGcMGECrVq1ytr2E6mqqmLdunWUlpaye/duysrKmDFjBuBUadq2nbASKNEDJRBTvRF9M79o0SLAmSinc+fOCdcNBAJ07tz5R7tdpmPz5s1s376d3bt3U1paGtN9cV8MuVK/fn06dOgQ93owGPQqY/c28Vz0+V28eLHXfTYT2bwGyRIvrVu3BpxrHw6HE1bIpvrZiX6gLS4ujutKC8R0C168eLG3fz169GDJkiXs3LmTc889l3POOYdf/vKXnHTSSXEPj6501kmmVatWtGvXjtWrV/Pll19y1llnAXsefk899VRatmzJRx99xKxZs7yHV/dhuX79+l6332Aw6J2L3bt3JzwPgDcOZbIExLHHHpv0OE488UTv/8uWLeP000+PW+aEE05IWvlcc/327dsnXE6Img6Vdto1f/58Hn30UQAuvPBCbwLTbMi0nYhOPkX/TEZr1KgRbdu2TZokq4102tVUf/9nS7JkdF1vk/1+vzc0RE3u/Wf09ci0HTrQbXKfPn2YNm0a3333HcXFxTRu3Jg1a9awadMmAoEAgwYNYuLEiWzZsoW5c+dyxhlnoLX22uToiaQzuTeJlmmbnGws+JycHDp27Mjnn38uCeksk4S0EEIIIVKy56FUYxgmO7Zs5l+3vUr3Xs1YvcVm+6rvgebAWAAGnPMbdhRvZ/umNcz67GNu/+utGIYR95CbzQqsTz/91Pu/z+eLq3bJppkzZzJ27FgWLly414lykkk263qy7oirV68GnIejZMuA000xWwnp3bt38/jjj/Ppp59SVFSUlW3WViAQSPjZWLFihTcZ1N4eaKPfW7JkCeeff37G+5TNa+BW3dS0t+26Uv3sRD/Q3nzzzT+6/eXLl3v/v+WWW1i+fDlffPEFu3fvZtKkSUyaNAnDMDj55JP57W9/y9lnn01ubm5G6+zNKaecwurVq70uv7Zt88UXXwDQt29fLxGzbNkyb6Il9+G3R48eXhXjd999521z6dKlXHPNNXuNu2PHDrZt2+aN6+raW5K4efPmFBQUUFJSknDSU3AenpOJfm/p0qUxFZNC/JhDoZ0GZ8idW2+9Fcuy6NKlC8OGDcvq9jNtJ9yf3RYtWtCoUaOk67dv3z7lhHSm7Wqqv/+zJdnv67reJufn5yddJtHrmbZDB7pN/sUvfoFhGN4khf369fOGrunevTt5eXn07duX119/ndmzZ3PGGWewatUqb0z06B5LmdybRMukTQ4EAkmHEwKnTf7888/ZsGEDpaWl+2QC9rpIEtJCCCGEqLXYh1LnwTQ3V9Ghl8HPe7Xmscv/gDaCaMvPR+8cT7hqN5Y2Wbl8JYNP6UuzRvn4fX4s24rb3r4aSzocDjN48GBeeumlrI/D+vTTT/Pss8963/v9flq2bEmjRo1o0KABc+bMyWo8gCOOOIIFCxZQVFREKBRK2lU4W111f/jhB66++mrWr1/vvda0aVOaNGlCgwYNaNSoER9//HFWYqVrb0mS6Pey9Rnb39cgW6L/YLK3cUUXL15Mly5dOOyww7zXcnNzefHFF5kzZw7Tp09n1qxZlJSUYNs28+bNY968eUyePJnRo0fTsGHDtNfZmz59+jBu3DhWrlxJSUkJ69atY9euXRQUFHD88cdjGAYdOnRgxYoVfP7555x33nleQjr64ddNmvzYuVi8eDGtWrVKmviprWSfu309DIKomw6VdjoYDDJ48GB27NhBQUEBTz/99D5Npu7LdiLVn+VDoV3NhLTJPy7TduhAt8mNGjXihBNO4JtvvuHLL7+MSUifeuqp3tfXX3/de91tj5s1axZTTZ7JvUk69sfPuKgdSUgLIYQQIiXuQ6nPZxKsrqZD15N4862xmD7wGYrGDQxWf7+VEzoewwXnn0PR9t388MM22h7VnNcnvsSmzZu8Mdr2ZeXVnDlzuOOOO5g9ezZffvklDz/8MHfffXfS5fdW3ZxoVu2ysjJeeOEFwOki684EHj0sx4gRIxg1alQGRxHv+OOP54033iAUCrFy5cqE3VMty9rrxDupeP31172H5ssuu4ybbrqJgoIC7/1QKJTV8T5rq0OHDvh8PsLhcEylUU2rVq3y/p/sQSfZtU82m/r+vgbZ0qVLF2bPno1pmkycODHlngOGYdC7d2969+6N1ppVq1bx7rvvMmXKFEpKSvj2228ZOXJkzCR96ayTzMknn0xOTg7V1dV89dVXXpVTnz59vJ+7U089lRUrVjBr1iy6dOnidfONTkh36NAB0zSxLIsbb7yRwYMHp3QeXG739ES2bdvmVYK5Y4Cmsn705zbZ+kIkcyi00w8++CDffPMNhmHw5JNPekMi7E2q7XSm7UTHjh2ZNWsWW7duZdeuXUmrpPf2s5zIwdquZiJbbXKq1xgOzTY5G+3QgW6T+/TpwzfffMP8+fOprq72Es5uQvoXv/gFfr+fDRs2sHbtWq93U+/evWN+l2R6b+LKpE0OBoOsW7eOtm3bJlzf/UwXFhZKdXQWyaSGQgghhKi16AmOwmGLUChMvYDB9p0b2bLqf3z06mg+/3w+P6xZCsrm66Wr+XT2PLaXbGDbls00adqcBV9+6XUF3lcTJl122WU0btyYxx57jDZt2gDwyiuv8Oabb8Yt695Y1pzgxRUOh+MmogGYN2+eV+Fy5ZVX0q1bt7gxot3JW7Ip+gHu3nvvJRgMxi3zwAMPeDfemXLH8mvSpAm33357zEMzwFdffZWVOKkKBALesAbffvtt0uWi34s+d9HVP8mufbIJl/b3NcgWd78ty0o6jERtKaU49thj+ctf/sJ7773nTerpPnBma51oOTk5dO/e3VvH/Wy6k03Bngfhzz//nHnz5gHORFru7wFwqsTcbuPu2KPp+O677ygrK0v4XvTnLllCeeHChXFVcq5vvvnmR9cXIpFDoZ1+8803mTx5MgC33norv/jFL/a6fLrtdKbtRKdOnRIuE23Xrl3ekBG1dbC2q5nI9Fyne41rbudQaZOz1Q65DkSb7P6hd8WKFcycOZPq6mqOPPJIjjjiCMCZu8Edc3zWrFkJeyxB9u5NMm2T//e//yV8vbq62hs7Ovp3gsicJKSFEEIIkRL3obRBg3yqg0Ea59ejpRmmdONGuh57FA2rdrB0/hccdfjhtCyoT4+ux9DpyEJMA5o1b87bb7zpJWH21cOuOzRHQUEB//d//+eNhzd8+PC4G3/35rKkpISvv/46bluTJ09OODFQdJe/RO9/9dVXSW9uM9GpUyd69uwJOAmtm266iZkzZ1JcXMzcuXO55557mDhxYtbi2bYNOA+DNR/yQqEQ48ePz1qsVLkVZN9++y0vvfRS3Ptr167lySefBKBevXoxlS9HHXWU9/D10Ucfxa1bWVnJhAkTEsbd39cgW6If2ocPH57wwW3WrFkMGDCAAQMGeOdl7dq13mRjY8eOjVuncePGNG7cGHAeQNNdx1VZWcmbb77J7Nmz47rWuhMhzZw5k4ULF6KUipkc6cQTT6Rhw4YUFxczbtw4IP7hN/pczJ49O+EfqsLhMDfddBMDBgzgiiuuiHvf3c+//e1vca/v2LGD++67z/s+2SRbGzZs8CZzi7ZmzRqeeeYZwEnytGvXLuH6QiRzMLfTS5cu5Z577gGgX79+XHvttT+6TrrtNGTWTkQnru655x6Ki4tj1tVac8cdd6Q8f8TB3K5mIpNznck1PtTb5FTboYOlTe7SpQsFBQVorXnqqaeAPX8UdrnfT5gwgR07dqCUonfv3gnPA6R2b1JTpm3yI488woYNG+Je/+c//+n1tpI/EGeXDNkhhBBCiFqrOZak1pr169fTpKCA0/qfha3BZ5o0bFbIjp07yQn42b3LmTV+d1kZZaVl/GbgwLjJkiB7YwnW1KFDB+6//37++te/EgwG+fOf/8y0adO88fiiby7vuOMOhg0bRufOndm5cyczZsxg9OjRCbfbs2dPr7vl+PHjad68OX369GH37t18/vnnPPnkk1iWlfXjMU2Tp59+mosvvpg1a9Ywe/bsuBnJGzVqRLdu3fjvf/+bcbxTTjmFFStWsHv3bv7xj39wySWX0K5dO5YsWcKYMWO8KtQD4YYbbuCTTz5h69atPPbYY+zYsYO+ffvSpEkT5s6dyyuvvOI92Pz973+PqWB3xxv+5ptvmDNnDg888AAXX3wx+fn5LF++nMceeyzpRFP7+xpkS8uWLbnuuut44YUXWLFiBVdffTUXX3wxP//5z6moqGDmzJmMHj2ayspK6tevT48ePQBnfM6SkhI2bNjA4sWL0Vpz5plncsQRR7Bx40aeeuopNm3aBMCAAQPSXsd111138f777wNw//33M3DgQO+9Pn368OCDD3oPjSeeeKL3EA3OtenduzfvvfeeV00XnbB23XTTTXz22Wds27aNv//97/zwww/06tWL1q1bs2bNGp599lnvD0o19y/aRx99xK233so555xDu3btWLBgAZMmTWLr1q2A03vCnWwxkXHjxlFdXU2/fv1o2bIlc+bMYfz48V7i5Y477sj62Pfip+1gbqdLSkr485//THV1NY0bN+ZPf/pTwgQQONXD9erVA9JvpyGzduLII4/k0ksvZdKkSWzatIlrr72WSy65hG7durFq1SrefvttPvvss5TPw8HcrmYik3OdyTU+VNvkdNuhg6VNNgyDXr16MWPGDK+9je6xBE5C+uGHH/be79y5c0ybDenfmySSSZu8a9curr32WgYNGkTPnj3ZuHEjH3zwAVOnTvXO4R/+8IeksUXq5O5GCCGEECmJntioadOmhMNh1q9fT15eLu6z6mGHtaCysoItRUU0btKEnJwArVq3Ijc3j+bNmnoPIftq/Oiafv3rX7NkyRLGjh1LUVERgwcP5uWXX8bn89GrVy8GDBjAe++9x8aNG7n++utj1nUnKVyxYkXM6/n5+fzhD39g/PjxlJSU8I9//CPm/dzcXH75y1/uk4mJGjZsyAsvvMC9997rTRbj6t69O3fffTfTp0/PSqyBAwcyffp0duzYwXvvvcd7770X87577g6E1q1bM3r0aP7whz9QVlbGiy++yIsvvhi33ODBg7ngggviXh86dCiXX345lZWVjB8/Pq4q7bTTTuOTTz5JGHt/XoNsuvXWW9m8eTPvvPMO3377bcKu1YFAgGeeecbrQm0YBrfddht33nknoVCIRx99lEcffdT7g4yre/funHvuuWmv44rep2+//TYmId22bVsKCwvZuHEjEP/wC84DsPuZ9Pv93jAf0QoLC3n++ecZNGgQ5eXlPPfcczz33HNxy/Xt25cbbrghwZmEc845h3nz5iX8uQDo1asXt99+e8J1AS688ELeeecdpkyZwpQpU+LeHzhwIIMGDUq6vhDJHKzttNvOAhQXF3P++ecnXfbuu+/2Pv/pttOQnXZi1apVzJ8/n8WLF8fNRdGyZUtOPPFEL2FXGwdzu5qJTM51JtcYDs02Od126GBqk/v06cOMGTMA5763Zntbs81O1GMJ0rs3qSmTNrmgoIDevXvz7rvvxlRTu+rXr8+zzz6bdBx5kR4ZskMIIYQQKXO78Jqm6XUpb9WqNa1bt6ZVq1YUFBTQtWtXevfuTcfjjqNTp04c064dbQpbk5OTk7ALcDYedk3TBIgbyxngr3/9qzdO5YIFCxg5cqS37MMPP8zAgQNp1qxZzDo9e/Zk7NixXjVHze0OHTqUIUOGxM343aVLF1566SVOOOEE79iij8/dz2T7Wptl2rRpw+jRo5k9ezaTJk1i/PjxzJo1i/Hjx9OhQweqqqr2uv2aalYPu9q2bctrr71Gjx49Ymauz8nJ4frrr+ehhx7a63lPl7ut6POQSIcOHRgzZgy9evWKe6+wsJChQ4dy4403Jlz3hBNOYOTIkXTp0iWmCjU/P58hQ4ZwzTXXeK8l+nymew2SnetoyX4uMv3sKKV44IEHuO666+LGLTVNk7PPPptp06bFnc9f/epXTJs2je7du3tD4FiWhVKKI488kltuuYWXX3455mEtnXUArrnmGgKBAM2bN+eiiy6KO77oiudECenoB96TTz7ZG5qlpk6dOjF69OiE1VatW7dm2LBhjBw5kkAgEHeewEmQTJw4kdNPPz3mfZ/PxwUXXMCTTz65189vp06dmDhxojfGpisvL4/LL7+c4cOHJ11XiB9zMLbTqbQRNX+PpdtOQ2bthM/n46mnnuK8886L663Qr18/JkyYQIsWLeL2OXpfar6ebruajXuHdKSyzXTPdabXGA5Mm1ybe5W9LZNuO3SwtMnRw2/07Nkzbj8hdhiPZAnpdO9N3PchszZZKcWDDz7I4MGD44Ys6dKlC6NGjfLG/BbZo/S+6h8rhBBC/IQUFRWhlKKgoCCjB7Oa6yRrht2ZxJs0aZJyjH2lqKiI5s2bx+yz+/9UvyZ7r6KiYq/d2/eHDRs2UF5eTuvWrVOaSXvr1q1s376dli1b7tPrVlFR4VUItWrVKun5+t3vfsfChQvp0aOHN5YuON1kp06dSl5eXspjXLuzkJumyeGHHx7zIB0tHA6nPVyJYRhJt/tjysrK2LhxI5Zl0bRpU1q0aFHrn9Oqqiq+//578vPzad269V4fLjO9BgcLy7IoKiqiuLiYhg0b0rp161oND2HbNhs2bKCiooIjjjjC61afzXWqq6sz+iykqrS01Ouu7FbipaKiooL169ejlOLwww9PmgTftm2b90A+bNgwLr30Ui/+hg0byMnJoU2bNgkf6sXeSTst7XRtZNJO1PbnPBW1bVczUV1dnfa6gUAg7T9EZHKuU7nGP5U2Od126KfWJqd7bxKttj+rw4cP59VXX6Vx48bMmTMHcM7N+vXrKS8vp0WLFnF/IBHpq9lOy5AdQgghhEhJdFfgmmNV/tjXRNvZX8N21FabNm3SWq9FixZeldS+FA6Hufrqq6moqKB58+ZMnTo1rkJ73LhxLFy4EIivRvniiy+8/U1VIBDg2GOP/dHl7rrrLt55552Utw9OddVbb72V1rr5+fl06NAhrXVzc3NrPVlNptfgYGGaJoWFhRQWFqa0nmEYHHHEEft0nZycnJS2n6kGDRqk/dn9XpHEAAAgAElEQVQBZ4KuTNZv0KCBTJYkskba6eQyaScy/TlPpLbtarrWrVvHWWedlfb6I0eO5Mwzz0xr3UzOdSrX+KfSJqfbDv3U2uR0702iZfKzahgGRx55ZNqxRe1JQloIIYQQtZbowTWVh12Irb7a24OwSKxhw4ZcdNFFjBs3jm3btnHOOefQtWtXOnfuTHV1NfPnz2fp0qWAM2u6+yD6wAMPMHPmTK/6xh1OZF+wbTvtdQ+Fz0G610AIIfY1aadFtEza42ysvz9ImyzEoUkS0kIIIYSoFaUUtm1jGMY+edg9mKqvDna33HIL1dXVTJkyhdLS0oQzyrdv357nnnvOqzCZPn06u3fvBpwHssGDB++z/bvyyivp379/WuseKhPGpHMNhBBiX5J2WtTUqlUrnnrqqbTXP+mkk7K4N/uOtMlCHHpkDGkhhBCiFmRsSti5cyc+n4+8vDxM06z1eJO1+WrbNqFQCDi4jvlg9/XXXzNnzhxWrVrF5s2bKSgooGPHjnTq1InevXvHjAk4ZMgQcnJyaNeuHRdeeCH5+fkHcM9/OlK5BkJUVFTw5JNPAs4EU4dKsudQIO20tNNCSJssUvHBBx+wYMEC8vPz92mhhnDUbKclIS2EEELUgjzoOomUXbt2UVJSQjAYzFrXXaUUgUCAgoICGjVqJA8LQgghUibttLTTQgghDl4yqaEQQggh0pKbmws4E5uEQqGsPuj6/X5yc3O9GEIIIYRIjbTTQgghDhWSkBZCCCFErRiGQb169aQySgghhDgISTsthBDiUGEc6B0QQgghhBBCCCGEEEIIUTdIQloIIYQQQgghhBBCCCHEfiEJaSGEEEIIIYQQQgghhBD7hSSkhRBCCCGEEEIIIYQQQuwXkpAWQgghhBBCCCGEEEIIsV9IQloIIYQQQgghhBBCCCHEfuE70DsghBBCiANrR6nN/O+C/O/7alYUBdlSotlWFqY0qCkLayrDmnILbEtjKVAoNBo0mIClAA1KgaEVFjYohakjb6Cw0M6yAJGXTcBWCq11ZF2wlEZhYGi9Z1mcmIaW+BJf4kt8iX8wxbdNKDAU9f2K+j6DvICmeb6P1o18tG/l46Sjc+h+bICmDaQOSgghhBB7SEJaCCGEqKMsWzN5djnT5lUwfWUVZiRTYUUlLIh6zQRMTeR7hYmGyGuWAq3BVhpTK2yikx8aE4WlnCSGs20nSYK2UUqhtbOwGUmKWETiazf+nlgSX+JLfIkv8Q+O+IYFxbamOKRRysbQYO+w0DoIC52Yvz02jwt61uOSU+phGpEstxBCCCHqNElICyGEEHVQaaXmiX/v4p//2Q0oUDhVdHpPgsPSCiJJDFODHUl6AKB1pJpOEclRQOT/XvICjaWdyj07sm0ASylsL5miQKtIEkTiS3yJL/El/k8t/vRVlbz9XSVrisLcem5DGuRJUloIIYSo66TvlBBCCFHHWLbmyXdKuec/u7GVWym3JxHhVsqhNNFpA7drt/uiqRWGjiQ1AKW0k7GIvGYrHbUuWG5fcTRaK9BIfIkv8SW+xK8j8e/7sIQn/r0Ly9YIIYQQom6ThLQQQghRx0yeXcF9H5aA2pNkcMYTjSQlwEtSuNkHp4u207Xb1G6Xb4WtIhVxbvWcciriLEBHbjO0VpHhP5ykhKkj3b0lvsSX+BJf4tep+P/8TymTZ1cghBBCiLpNhuwQQggh6pAdpTbT5pUDTqrBiGQSLJyqNitSQaeUAWg0Nk7FnPM6qEgVnfO64SUtbMDARkdec9bUkao8W3mdu72u4RJf4kt8iS/x6178N+aWM+CkPJnoUAghhKjD5C5ACCGEqEPmfhdk+soqwKlcs1RkEkPAUrZTyRapdnNyEIZXPWcrA6Vt/LaNshXK1hjaxsLGcrbobDOStNBaoZQdiawjvblVpPIuvfjgVOihDW87lnIq+CS+xJf4El/iH/zx3/6uirnfBRFCCCFE3SUJaSGEEKIO+fb7akBjK1BqzyRWKIWyndsCJz+hI92sbWxtg21BuAJtVWFbVRhWBYTKsa0qzHAlZrgKywqidBgVmezKyVhEum2723Sr51KIb3l7r70tqUgSxelmrqPGP7UlvsSX+BJf4h/k8b9dW40QQggh6i4ZskMIIYSoQ1ZuDqOUMxYoOF20TSJjhxoaS7uJBCfZ4LcBO8wJhds57vh8DF8epqGw7DCGMjH9JrYNurqS4h+2887CAvDXB8BUBhbOGKVaKyfToXVK8U3tJDSsyAClJs5kWVrbkXFMnXFJiSRXnIm7FFo725X4El/iS3yJf/DFX7EpjBBCCCHqLklICyGEEHXI5pI9SQClNBoniWA6/amd17SKvKcIYWEES2ndzk+x5ccOhbFtjdYarTQBn42hwNB+zMNbcEHOZqbNt8BXH8sEZSt8QBgLdGSMURS21hiKSELDwK8tbK3AICa+FUlimN5eO7HBwFJ7Ku6ISqQ470cq9rQzTqqFDTqSIE/h+CW+xJf4El/iZz/+ll2SkBZCCCHqMklICyGEEHXI1nILQzuVbdFVbE41HNjsSSygbUwriA6WszPUgIpgNZbPRzCsUZZFyNAEDBvL0BhhTX2/QU6jFvTrU8zGpbtZv6sRZZZJODIwqaEVtu0kKGycijy/DWEgbGoMbWLbCvBhmM5YpE4VngJsrEiRnTOuqTNpFjjjoKJ1pALPqdZT6MhxKmxl43Yh15qkx//Irwu4vl8DVm0Jc8XzW1m0I7xf4yc8/xJf4kt8if8TjL+lbM9gIEIIIYSoeyQhLYQQQtQh5UEdSSAAKtJlW4OlnWplpxpOeTkJW9koO8iWakUwbFNlhqnWYFsW1ShyfJGkQtAiz1D4/ZpATkMaHe/jOEOBXwMKw3aq6LRlEzaccUa1UhiRMUb9gKkscuwqipdXsaioOYbhJ2w4+2opA7RTXQ2a6FSGGdl3M7LPFmBEupqjNBqD6Cq+RMd/WK7Bbec2wDQUPzvaz2U9G/C3d0uw1f6Jn/z8S3yJL/El/k8vfnkIIYQQQtRhkpAWQggh6pCqSBLABNBOcsBWBqbWztigzpgZToIBJ7Hg0xYl2Oy0NXZllZNxCGl8KEp9PqcyzrIp1xpfjo1ZYVCsqzFNBTb4tcLOBVCYtjNJlmkYGBqqwmF8GE5hnamwfH5atQoT+mE3ZqAADH+kGs9Ja1hupgSNqdWe752BSvckWNBEsi6RYwOt9qxT8/jLQ5pdFZom+QqAbaVuysXYL/GTnX+JL/ElvsT/KcavCtoIIYQQou6ShLQQQghRh1SG7Uglm1sdt6eLtna7Yjs5WSxA2RqtLXYGbewqDVUaI2xjhxVhbUPA2ZYRchK4wZCNH6i0bQwNvrAiDJAbqZizI0kIw3C6fIcs/JF9s/wmvhyb8jwfhMuxAvmg99yqWIBSCkNrLGU433v7rr0xS8HNj6iY43PHO010/GVhuOrZHQzsUY+NO8O8OK/MGz91f8RPdv4lvsSX+BL/pxi/LLxn20IIIYSoeyQhLYQQQtQhO2zt9Jz2KtzsSPbAGfsT7Yzx6XDGCVVKUWgGOKdXIc0aBQj4TCwLbDQ5htO9W5vOOibO68p20xAKrTS2DbaCQGR2LHcsadCEFdhhqA5b7KioZsbiTWwNB7EilXq2cvMibpdvt5u4W7e3J7FhRsY0NbUzqZalI6sRmWTLE3/8b62q5N/fVXorOOOr7r/4ic6/xJf4El/iHyzxf97CZGu5zYYynXH8itgXhBBCCFHHSEJaCCGEqEOMSBLAVk4lnMJAa41STlLBSXZorxoO0/n/mV0Oo2mjPAIBA79pgKnwAQEnH41WTrJEKWc8aB0phLYVGBqsyPd+nxNfa41GoRX40ISUxjYNCvwmp3c8jEkzN3vb07jdx8HSTobD2z+0kw7RigY++HX7PEwDFm2sZmGxRbfmJqccm8tRzX1UVGu+KwoxbVEVZbYdd/w9W/o5qpkfK6x5fbmTmFaR7bvxTz8ywM+PyqVlgcmOMotF64O8ubKKPMPg/I65ACwrCrJoeziyhtuF3dlGpwI/p3fMpU0zE6Vgww6Lj5dXsnBnOOH5rxl/b8evcLrMx6Z5YuO72aHaXn+JL/ElvsR34w+/oDErNoR47pMyVpfpjOIHNUIIIYSowyQhLYQQQtQh7oRSe8b5BJRCRxIdKCKJCo3WThWdXyvy6ucSUoDlJoiddSsUgMa0ncRGpIiPsBOGeqaTjKg2AKWpCjsJCVM5qQwrUnnnfG+AbZOfm4OJTTAyvIdbbeds0fD2zetNrpyJuM48KofJf2kGwEv/Lac6rLnmjPr4zNgUyf3FFlc9u50P1lbHHP+9AxvTr2skqfy3jSzaYRHJydM8z2Dqn5rTu0NO3Dn9clWQl/9bxv9d1wSA8Z+UcfnEne6msbTz9fnfN+Hy0+L3x7YbM/7TMq6cVBx3/t34tTl+NFiRY3FHwI6ObxNJH6Vw/SW+xJf4Et+Nv2JTmMtOyyfHr/i/maUs2xXOPL4QQggh6iRJSAshhBB1jQILd7IpJ4NsALay0VpFJq9SzvAbNk71sm0Qsp3vLa0xlULhJp5VpCRaOYlqpbDCBpayUJGKuCoNNs62I4ugtMZCATY+FCFtE7Q1YQ0WBj4MQtpJkJja7TquY/dPOZXWFs7wIq4rT6+f9PBbNzZ5+aZmnH7/Fpbvtrzjj+56rrVyup9rTcBUTLy2WcJkNMDJxwQ4+ZgmMefXjOyTjhzrY+cUcPUZ+QnXNwy44pf5FJfZ3PZ2SczxWVrX+vgBTG1jK4WhY+Nrtxu+0ildf4kv8SW+xHfj3/duCdrSDDotnxyfYsSHu1lSEk47vhBCCCHqLklICyGEEHWIO8mUrdwqNncsUe0lj4GYya0MrQgqC6UN8pXG1oqwBgNNSDvDbvgtA600SjmdvC1lo5WiPOwkPZzJr5SzTe0M44FWGAaAokJrlAYrrLHtyMRZkXkQtXYTL4ZXme0egzveqYVC7dl9z/v/q2La3DK27LLo3SGX6/o1oHG+QcvGJuNvbEavR7dgW3sSOi4jsn00PP7bxpx+fK733riPy3j/2yqqQhZ9OuRx/VkNqJ8TFVzjVQiaaK47OZ/bftPQe/vlj8t4/5tKbA0DTqznJc9vPbchyzeFGLOgfM/516kcv8ZGoWvEt7ST9HeqGFO8/hJf4kt8iR+JXxbW3P/BLqoivU/8Pnji/V0s3GmnGV8IIYQQdZUkpIUQQog6xB2yQxFJFqCwlZOM0JFyNgu86jVtOEkKNw3iVDkr7/9O0lp7S7gjiDpzZGkvzaGUQumobtuoSNLXSXgrpbDsSDldVGIkUl7nbDeyE05VtUZrhRWp8DOju7BH/HdRFb95bivhyPIzVgf537ogkwY3x1Dw83YBTmnt55MNwZhkTAyluKBHnvftyPdK+fMbJd7xTv8uyLc/hHjpT00xojehdOQcKm7svycZ/cyMUm55sxilwNDOWNXVYc0N/Z3q6UtOyeeFryr2VA+mcPzu8CdgO1XakfjKzdRrlfL1l/gSX+JL/Oj4xSF4fOZuqkOam85qgN+veOTfu/h2Rzjl+EIIIYSou4wDvQNCCCGE2H9M7SSHnXyDAdqpVnbHf1aRkjgLpzJO2ZowNmZYEbAgpDVhW1OlFdVakwPkoAgpRRAVqXpT2GFF2AZLKyxLYSqNoTSEFco2sHFq5qpCBlVhCFiaHBuUT6N9TqLCIrIT3n5rLKUx0ZhEJsmKJGHsGnns6pDmsjE7CEUq/DTOmKVTl1QyaVa5t1zXIwJ7jj+KHQndsaHJYQXOdFw/bLP4y/SdcfHHL6zg9S/KY9YnkizK9ymOK3T+/r9xp8VfpxfHnf/bpu6krMqJf/wR/pjzn/rxa68S0Yokl6KPP9XrL/ElvsSX+DXj7w5pnvuslKdnlHJB9/oMOadRevGFEEIIUWdJhbQQQghRxzgVyjoyURWRijhn8ilnLFGcMT+VxjAUSploFDYaAwNbGRD5zumkvae6TisnmauU7VREK2f4C6dSDlDOWKXOmKQ2KE0YIzLmaNgbc9TlDAESGbdag60MrEjixNlHG1Mb2BrQe1b8bnOYonLLq0S2cMZ1Bs2C1dX8sa8zTMYJR+RgfVGGqWueJQUKuh8d8F75Zm0QWxtO9XeN+PO+C/L73vX3rKo0hobubQL4fc5+FTYxef7ippGt2UQnZPJznWWaNjA4vqnJoh3OuXEHO6nV8TsDczvnHye+neD4U7n+El/iS3yJnyj+jjDUywG/D0IhTaRbTMrxhRBCCFE3SUJaCCGEqEOcqmMwMZyUciRpYCsFOjKkB85CTpJWY2KDaWMrEx82BgY+BVrbkUo4UKaT1NBA0E0OKwXYYIBlOYNi+AC0QbUziDROHtamSiksywA0VqTO2m9DmD1DX7gTYVk4SW4nkeJUB+pIdZ5rVVEYS7kTd7Hn2DSs2Bzyljuu0Od0Mq85VEjk+Asb77lV2lxiecmVmvE3lYSjV8XQYCnFiW0CRNvbZIuujocFWLSjMpIASuH4tTNgitZO9WSy40/l+kt8iS/xJX7N+D6l+fuZjbj2jHxe/6KcER/uBlKPL4QQQoi6SxLSQgghRB3iVAxHMgREJvPTThdwN1nt1xA2nO/9tk1IO3XQKKeuF+WsqxTeGNLuuNIW2qtqNjRowxlr2oxU86nIum58HZnwCqXRSqNt8NvOuKZhI1K5F4kN2l0N3HGntVONZ+rYDuC5/j3JEKd7eKTWT0E9/54lK4MaHTn+6IS2UmApWFW0J3nd9rDIbVOC+Mce5o86yW7Voabaik26fLs2uCeM2vPfE48KUB3SLNsYYluJU9ntVS7W8viJXEOlnGrHZMefyvWX+BJf4kv86PhKwT1nNeK6fg14/5tKHn63hGU7LW8bqcQXQgghRN0lCWkhhBCiDtFEEg84iQw3sWzhTj+oCSkjkqRQhAwTnzKdlcLgy1H4FQS1M9GVoTVKK6q1iiQrnOE7fIbTddvUBqayUYYTJ2yD1gpbOwN+GAYYKJTWGEClsgkrjaEVflsRikqGuMkRBVjKqc5G2ehIlXZ0guO4Qr+TSPGSzUSq9KBj4Z6q5cU/hJzETo1qPa2d6sO560LeMCI/OzpAi1yTomo7Lv4vj8+NOclOUkbx1bpq7+VPl1Rx2lNb3XLGyHxhCqWcbuzu+deRsV1NImNy1/L4TR3ZgtZe/ETHn8r1l/gSX+JLfDc+KB76VSOuOTOfdxZUcv+/i/lulzuJYTrxhRBCCFFXyWwSQgghRB1iaiDSLdvQGrdSTdnOOM7arV5T2knSKo2hnQpopRSGcpINplL4lMZUCsMApWwMQ2MqO/K9wlRgGLZTla0ir2kwlHbeU07XbqUUBgoT5y/lTuW1TRgL3C7j2k2O2BhaY2rlTO6llTe5lx1VcHdEc5PTj/BjEjtWqh84+2d7kseL1we944+p2Isc/w+VYdZtc1IoTRsYjL+uCbnExn/oV404vUtUQlpFqgCV5uvNQSqrnfPd9agAR+SZCc9/54YBTm7m54Qm/rjzX9vjt1Rkm1Hxax5/Otdf4kt8iS/xLeCBcxpy41kNeGt+JfdNL2bNLjvD+EIIIYSoq6RCWgghhKhDbEVkbFAnweBVtBmRYTlQkTFDI3+z1pGEsV9j+p2u3CjAdmp6LVuhlI3PdBIZJgpDQ7WTy8BSKrK4jdbgM53vc7TCBrShsTVYSmMpTdhS6BCYmChMbO2O76xxE8YWak+iI5KYcScvdBkKXrqxOaf+awvrKsKR9eH+XzfilONyvOW+Xl/tHb+7DIChDUw0aM1zH5Ty8KACAM48Po95d7di9vJqDAM6tvHTJ2p77jkDJ4lTpRSL1ofofkyAgvoGr93cnF8/sYWdFt75739kgLeGtCDHrwiFNa1v2UBxKJLF0Tql4/eSPpH4tnKnJdNpXn+JL/ElvsR34v+2ez2mzK5g+PRiNoec6Qszif//7N17eBT1/ff/58wekkAgIUDIQQUTDkVQVBQQhXp5wNLSSoHeBf1hq4AK2lK8Eau1Qq1US1VAvVQKYlUOCuLxLvr1K1UBK3ISFIEgoELCIZAEciDJbnbm98fsDrtsggkEsM3rcV3tJnP6fGYySHjte98jIiIiTZcCaRERkSYmZIDPsgmahts/OWSbToJsO8GDZdjhajkDjx3Cj4nPCFcxm2BZTsTgMZxQIhSuijPN8AP9LKcFRyQ0cfpKG3gNC3C2tYxw1TRAuALbGdskRCgcfhtgW85DsAzbfWAW7j4W2GY47jBizvOcNh5W/6kd//qiCsuGjpk+euYebdfx/AflrCusOXr+UWzDDlckGkxbfpjcdl5uHZAMwPntfZzf3hez/YHDFm1TwscIhy0ebEI2PPByCW9MakeiH3p38rP2T1ks31xJeTWktzT5ee8kPKYz96WfVVES5Oj1b9D5A4YTLDk/V2d8t213+CP5Dfr5a3yNr/E1fnj8ix/ch21BlWWDcfLji4iISNOlQFpERKQJMW2nMjdo4gYNIfdj2VFhBOBUPNt4MAlaIXwhD4mEe46GwwQjkuNaYOFUTduAz+tUShuWUxWXYDrHDFgGtg0hE7BtfIbh5BQ1TqUehg2GU7tnWCHAaRcSClfoHa0MdPa3w/2fDcByHrkIwO6DIc5q7aFtiodfXtE87jr8e1s1Y18udvqkRs4/SuT8DZwe13e+WkzAgl9f2ZzkxKNBSrDGZu4HFby74Qiv350e3tkG42gF9Hu7qrlt1kGev6MNpgkd0j10SE+Om9OW3UHuml8cc/0j49fn/EPhqkQzvE1k/HAZ5An9/DW+xtf4Gj8yfmWNTcgI//evEcYXERGRpkuBtIiISBNiecAIt9uIPMwv8rAsD85r5OPWnnAsETQMDpYcIsnrodzrxfCazse8bQuPx6nXs6xwoBxuyeGxDWzDpsZyqvp8Huej29UhpxWG83AuG8PrVFJX1YAdsqkJhaiuCQEmXsxwOw9nTh470o/UdtqI2M6DE+3wepOjQfF7G6t4/4tK/vR/UumcdfTXnZqQzRurK7lncQkB26mEjpx/Rfj5gyHLpjIY3ZvVuU6/W1LM5P93iPPTvWSleDlYWsPnhTXsr7b55XlHe0jbQOTBhRhOFvPiF0fwPHuQCT9JiauuLi63eG5ZOU8uK2V3pR0OcMLXvwHn74TrBlb45xc9fqR1ihMSNeDnr/E1vsbX+KdgfJ/n6H+vRUREpOlRIC0iItKEpJoGJaGjYbNTEed0D7UgXHkHhmETCrfs8Ns2yS1b4vd7IWTgM0084bTWMJyKabvGOY7pMcCGIDambdDMMjAMGzvcfsN0OnxgGM7DEm3LwHlwlkkoFMQKGfiqg3iwCBAOO2ynRymR+eGE2JYRKbw7+v1RNou/PMLLkyvp1NJDSgI0SzDZcqCGA9VO5bd5zPkPmXMAe7YRPi+wMcCAP13TklbJztYvrizjo93VeHYHosaHa7onuSNv+jYYPj8I2YbbX/X5DZU8/9kRcpO9nJNqciRgc6jKZltZENww3Yi9/uHqwvqcfyi8rQ21jh8KX0sbs/4/f42v8TW+xj8F46eoZYeIiEiTpkBaRESkCWnuMygNWk6lmhHu9Wk7H9t24gHbCZBtE8Ow8VohLMOm5MB+/IkJBGts/KaJaYJhgGGYTlgRtJye0F6nTrnGtrCw8YWc/qKGF7Cd2rgIA4MaK4THNgjaOGXWIYNAsIoQzhjYFiHDaf/h7GQ4FX1GVIQbLsY7usQRqeb7qrTGCZhtJxx3KgHrd/6mbXNxrp9BPZ3A+ccXJ/Grpw/w8f4ghg0pXoMJV7Vg1NVHW3C8t7nSCWPC49t2OCy3nbl+U17DjvKo8Tn++A07f6dSkahqxmPHjzx8rL7nr/E1vsbX+I09fqIvtm+/iIiINC0KpEVERJqQJK/h9iA1bRvLMAjZ4V6hNoQMG8IVbCEbgqaJaXiwQzZ4muFL9ODBxLBssME2LUKGjdfrBNOWYQI2Cbbz4MKA18LA+Ri3SXSI4SQciYaBFR7btqAqEMSurMQDBCwr/HFwsMIfEQdnzpGgIxIuRz4KHs0T+dg4zjlGzqkh5x8yDJ54t9QNpHMzvKx8MJPSSpv9JSEy0zwxPaU/2FTF58XBcHDTOOM35Pydfq+Wxtf4Gl/jf6/Hb65/hYqIiDRp+lVARESkCWnuN8DG6feJkwI7lXIAkeo3p4LN6Q5tYngS2PnROs698hKM5BRqbAPbMvAYNjXhBwka7kMODafvM2DZBjWWRTh7diqoAY+TeWDbNl6P04fUskywIXjoMN/8ewNBTzZ4vG6oEQofxGMT/v5o25FIxZ4dm0cTck4J7Eh/UydEb9D52wb/+qaaO+YUMXVEK1KbO1V9LZMMWibF/hr1jw/KGfdKCR6ckL2xxm/I+VuGjcfW+Bpf42v87/f4Sf6jb+SJiIhI06NAWkREpAlp19wDRSHnwVOEq4htIxxCOA+4igQMIdsAjwd8zfkqvyVfzV6Bn0qae0OAk1UYduTBWE7abBsGhm1Fjeg8vNAOB9ZmyKmwM8IBRjivAAMqQx6CoURCzdthJScDXjfE8NjRPUudnZyPmYfrom3YWhhi7r8qAHj/iyq3Is8wwAqfGzhVf/U+//D4sz6tYNnWSn55aQs6ZXrplOmjMmBRVGbxxa4g63ZW8/92VDsnFM5ZGnP8+px/pEbcDY80vsbX+Br/ezp+22QPIiIi0nQpkBYREWlCMlJN2GVjhyvfrHAfUadqzQkiPLaBJxw4ePAQ8jUnlJwN/pZUh6qotC08VggvRz/Obdk2pgFWOLhw1llYtuEuBwOvxyJgGJi2s940TCzbxjJMPIaHoC8RjzcZjy+ZkMdD5EPfALbtPEQxEoA41dPOcUPYbCsNMmphEeBU4FmGHa7wc4KUEAaecEV3fc8/evy8wyH+vOzw0fHdq+qMb0QFNs74VqOO/13n7/R+1fgaX+Nr/O//+O9+UKIAACAASURBVJkp+meoiIhIU6bfBERERJqQTpl+PBurADv8MWs7/KApJ0j22OGPWuOEuZbhwfAkYHn8eHzNCVkhvNiEbJsgTvWb7fbkAEynqK7aNsMHdVaZgIVBECvcZ9TGchZiGODFJGSCiY8awxtuARL5X/gj4jaE3CDYCD+YyybyoMRIpbWBs50zqhO+e7DDvU6P9jatz/lHntil8TW+xtf4Gr/xxu+UpX+GioiINGX6TUBERKQJufjcBKfy2XaCAxMD7HDP0HD7DbAxwg8ntLHAMJ0QwpuIjUHQAKduzsC0gXA1NJhYhh1eFvmItxM+2Ib74W4snODDCUKc9UGi+poChLd3Okw7FXuRMUNG5Ci1jE9kfGfPSI2fFTV+5KPp9T5/ja/xNb7G1/iNOn7PDgmIiIhI02We6QmIiIjI6dOrk5+fd0wEnLA4ZNjhgAFChuUEz05G4VS82U4YbRlgGc6vDZ7w8nC+4PQbDVfS2bZBKBxa2LaBYUT6STsf57Yx3P00vsbX+Bpf4ze98X/WKZFenfyIiIhI06VAWkREpAlp3cJkSJ9mWIbzcevIQ6wwDAzL+bXAySfs8EezrfBHuJ1lkRTCCIcYzse8bfdBWGBhhB925WxruntC5MFWtsbX+Bpf42v8Jjr+kD7Nad1C/wwVERFpyvSbgIiISBMz4ormTLkmJVzN5vDYYJs2IfeD1eGwARMPRrhizsCDGW7F4VTT2eBWxDlhgwE4D8py1tvhNqQGkX6khnH0eBpf42t8ja/xm874UwakMOKKZoiIiEjTpkBaRESkifGYBhN+2pIpA1qAcfTj1thO1Ry2gWGAHQ4aQuFqOadizsa2ncq3SAjhwcZ5UJXDWR+umLMjfaItiApAIDyWxtf4Gl/ja/wmMf4D16Zw16AUPKaBiIiING16qKGIiEgT1CLJ4P6hKeS28/Haqgre2F6FxwbL/ag1YFs4Dxp0AoWQEf44t23iwXloFTh9SLGdcMOphLMxsDHD/UQtw3I/wm2HA4oQuFV0IezwR781vsbX+Bpf4/+3jT+4UxJDezdnxBXNFEaLiIgIoEBaRESkyfKYBv9f/+YMvCiJUV8F2PB1Ndv21rD/UIgDFSEqAhYVNRYVQThkmRCyMcOBRXSlnceGEJGPbDtfm3b4Q1iGjY2JU4EX3tdwqvEwDKf6zoZQ+BjYNh4MNxOxwtuGDBNsja/xNb7G1/jfp/ETDGjmNUj2GjTzmST5oV1zLxmpHjpmebmoQwJ9OvnVM1pERERiKJAWERFp4lq3MPnJxYn85OLEMz0VERERERER+S+nt6pFRERERERERERE5LRQIC0iIiIiIiIiIiIip4UCaRERERERERERERE5LRRIi4iIiIiIiIiIiMhpoUBaRERERERERERERE4LBdIiIiIiIiIiIiIiclp4z/QERERE5D+DZVkEAgECgQC2bWPbNkCdrxGRbW3bJi0tDa9Xv36IiIiIiIg0VaqQFhERkXqpqqoiGAwCYBgGhmG4X9f2GmEYBpZlUVxcTFlZmXsMERERERERaXoUSIuIiEi9VFVVAbHBc31Dadu2qaysxDRNysvLFUqLiIiIiIg0UfrMrIiIiNRLMBjE7/dj2zaGYbivQNyy6NfI+kAggM/no6amhvLycpKTk/H5fGfylP4jrF+/ni1btpCQkMCwYcPc5Xl5ecybN4+uXbtyww03nMEZyqmwaNEigsEg3bt3p0ePHmd6OiIiIiIijUaBtIiIiNRLJFyuLXCuK4yOvIZCIQKBQEz/aIXS9bN06VLmzZtHcnJyTCB97733snnzZgByc3Pp3bv3mZqinAIPPfQQgUCAW265RYG0iIiIiPxXUcsOERERqbfaWnNE/6+ubUKhEMFgEI/Hg9frxev14vF41L7jJES3RTm2RYqIiIiIiMj3lSqkRUREpEGiK6Mj3wcCNZimszy6TQeAZVkEa0JUBwKYZvx74aqUPjEPP/wwCxYsoEuXLvTq1etMT0dERERERKReFEiLiIhIg0VX5AYCAfx+D14z3E8aiK7XtW0bq8ZHcrOk8Lb+mGPZtk1ZWRktW7aMaekhx9e5c2emTJlypqchIiIiIiLSIPpXn4iIiNTbsX2jq6qqaN26NV8XFLHnQBWmaXA0jraJFFJXVwfxJ6SSl5fHwYMH8fv9+Hw+t31HUlISwWCQtLS0/+hK6YqKCvbu3UtVVRUZGRm0bt263u00qqqqyM/PJxQK0aFDBxISEhplTpZlkZ+fT2VlJeeee27cGwLfpaKigp07d5KdnU1aWlqjzOl4TnS+lmVx4MABCgsLSU5OJjMzk8TExFM82/qzLIt9+/Zx8OBBWrduTUZGBh6Pp0HHqKqq4ptvvsHn83HWWWc16B6xbZuCggIOHTpEdnY2rVq1augpiIiIiIg0CgXSIiIi0iCRULqioooEv8GO3SUsXHUEb0J0+BfuH23b2IaBbXsIVsLPL/TT9QdplB8JkNw8CcBt4xEJuE80kF6yZAl//OMf67Xt1KlT+fnPfw7A7bffzvLly+nRowcLFy6sdftRo0bxySefcOmll/LCCy/Erf/iiy+YOXMmK1eujFl+1lln8atf/YqRI0fWOZeSkhL+9re/8dZbb1FTUwM412TAgAFMnDixzv0ef/xx5syZQ1JSEuvWrYtbv3XrVqZOncoXX3xBVVUVAD6fj44dO/LrX/+a66+/Pmb74uJirrjiCgAmT55MRkYGTz75JFu2bCEUCgGQnp7O73//e3784x/XOa8T1dD5RtTU1PDMM8/wyiuvcPDgQXe51+vlmmuu4Xe/+x0dOnT4zvHHjRvHhx9+yLnnnss///nPuPUjR45k3bp1tGnTho8++ijujYbI/h07duStt96Kmd+sWbOYN28eJSUl7vLU1FSGDx/OnXfe+Z2fDNi1axfTpk1j2bJl7htCPp+P66+/nkmTJtGyZcuY7f/85z+zcOFC2rRpw7Jly/jHP/7BrFmzKC8vd7e58MILmTRpEhdffPF3XhsRERERkcakQFpERETqLbpC2vQYeD0mxeUWLVq0oFWSQY0N8U07wGv6KElIoMq2aNnCxKYKvz82eLZtm6qqKlq0aHFCc6upqcGyrHptGwlYo/c73sMVj7dNXl4eN998c0zYF5Gfn8/UqVOpqKjg9ttvr/W4v/vd7/j0009jlluWxbvvvsv69evrDAyPN6c33niD+++/3w24I4LBIFu2bOGee+5h7969MXMKhULu9Vu3bh3vvfeeGwxHFBYWctddd1FRUcEvfvGLWud1Ik5kvhGTJ09myZIlcctramp49913+fzzz1m4cCHt2rU77hx69uzJv/71L3bs2MHBgwdp06aNu66srIz169djWRaFhYVs3bqVrl27uusty2Lt2rVYlhX383rooYd4+eWX48Y7dOgQzz77LMXFxTz44IN1zmv//v2MGDGCoqKimOXBYJBXX32Vffv2MWvWrJhq6+h7Y/Lkybz22mtxx92wYQNjxoxh8eLF5OTkHPfaiIiIiIg0JgXSIiIi0iCRylDDMMAw8PlM/J4QBgZHIzEnlHYffmiB37TxhStBbexaH454bCDZED/96U/p06dPreuOHDnCqFGjKC4uJjMzk6uvvvqEx4m2Z88exowZQ3l5OaZpcvPNN9OvXz/S0tJYtWoV8+bNY9euXcyYMYP09HSGDBkSs/8jjzzihtHdunVj+PDh9OzZk23btvH222+zbNky3n333QbNqbq6mkcffZSamhr8fj933303l1xyCZZlsXz5chYsWMCBAweYMWMGw4cPJzU1Ne4Yb731Fqmpqdx7771ceumlALz55pvMnj0by7J4/PHHGTRoEElJSSd45RpnvjNnznTD6O7du/PLX/6Snj17smvXLt5//31effVV9uzZw6233sr8+fNJTk6ucx79+vXjb3/7GwBr167lRz/6kbvuk08+iXkTY+XKlTGBdF5eHqWlpe5xIp5//nk3jL7ooou44YYb6NatG1u2bGHevHl89tlnLFq0iPbt2zNq1Kha5xWp1r7uuusYNGgQubm5rFmzhoULF7J161ZWrlzJY489xqRJk+L2LSkp4bXXXqNDhw7ceOONXHbZZeTn5/Pee+/x2muvUVFRwR133MGiRYtO+I0gEREREZGGUiAtIiIi9RYJkWPCZNvCRw0+w6SGowGzxzQxTRPTMDFMsAlhmjY2RkyoHR1Kn4xmzZrRvn37WtdNmDCB4uJifD4fTzzxRKP1z3322WcpLCwEYOLEidxyyy3uus6dO9O/f3+GDRtGeXk5Dz30EIMHD3ZblOzatYt58+YBkJmZyZw5c9x55eTkMGDAAG677TZWrFjRoDlt27aN3NxccnNzGTFiREyw2q1bN5KSknjkkUcApxK6tnA+ISGBv//971xwwQXussg1XLx4MSUlJezYsYPu3bs3aG6NOd/CwkKeeeYZALKzs5k9e3bM9bvyyivxer28/PLL5OXl8fLLLzN69Og659G5c2fS09MpLCxk9erVMfOItGJJTEykqqqKFStWMGbMGHf96tWrAadNSO/evQE4ePAg06ZNc489e/ZsNxDPycmhf//+DB8+nB07djB9+nRGjhxZZ7/sq666ihkzZrh/bnJycrj66qsZMmQIhYWFzJ07l5tuuomMjIy4fVu2bMns2bM5++yzAejYsSNXXnklhmGwZMkSvv76a+bPn19r9bmIiIiIyKlgnukJiIiIyH+WSChmGga2DYl+k3atfLRO8dI2xUfbls5rc2+QUMUBSg/spOLA19iVBzCpwe0vbcS+nir/+Mc/eOeddwCnvcP555/faMfetGkTAD169IgJoyM6dOjAhAkTAKdKe+fOne66zZs3u19PmTIlLiQ3TZNHH320wT21zz//fF544QVeeOGFmFA1IroXc/QcovXq1SsmjI74yU9+4n69a9euBs2rLic638i1h9qvH8B9991Henp63PZ1iVQ3r1mzJmZ5JJAeN24cAOvXr6eiosJdv3btWgAuvvhiN3TetGmT+2bL5MmT46qzW7RowV133QU4LTby8vJqnVNSUhLTpk2L+3PSpk2bmJ7pdf0sJ02a5IbR0R544AH3IZV17SsiIiIiciqoQlpERETq7dgKadPj4XDRXtaszKNVy0RCloXp8WLbIVYvf5vtm/5NenpbCIVY9+VOfnXDMO6ZNBGvx6z1eI1t9erVbhuGYcOGMWzYsEY7diAQYNu2bYATSNclOtjdtGkTHTt2BGJDwAsvvLDWfVNSUsjJyakzrKyPvXv3cvDgQUpLSykrK6OsrMxdF92Goq45R4uuwI0OZBtTfecbHTDXdf39fj9du3alsLCQL7744jvH7tevH0uWLOGrr76ipKSEVq1asXPnTvbs2YPf72fkyJHMnz+f/fv3s2rVKq6++mps23YD7MhDIY+dX0lJSdwDL8F5kGT09rW9WdKpU6c6W41E3zdbtmzhqquuitumrh7kCQkJdO3alY8//liBtIiIiIicVgqkRUREpEGOhsc2pumhaP9eHrrrFXr1bcOO/RYHt38NtAXmAjBw0M8oKjnIwT07WbH8Ayb+3wmYphkXRjd2pfT+/fuZMGECoVCI7t2788ADDzTq8fPy8tye15GQuTbR67788ksGDx4MOAEiQHp6OikpKXXu37lz5wYH0qWlpTz22GN89NFH7Nu3r0H7ArRu3brW5XW1lDhZJzLfSOCbnp5Oy5Yt69yuU6dOfPTRRxQUFHDo0KFae2ZHXHbZZZim6T6k8Nprr3VbpvTq1YukpCT69+/P4sWLWblyJVdffTXbt2/n0KFDQGz/6C+//NL9+s477/zO89m6dWutyzt37lznPm3btiU1NZVDhw6591M0v99fZxsbcK7Nxx9/TH5+PmVlZeojLSIiIiKnhQJpERERqbfY8NgJkBMTDbr0NbmkbxaP/upGbDOAHfLx/tvnU1NVSsj2sG3rNsZf0Z82Kcn4vD5CVijueI1ZIR0IBBg/fjxFRUWkpqbyxBNPnLIwFY7fdiR63YmcY0OD+l27djFq1Ch2797tLmvdujVpaWm0aNGClJQUPvjggwbP41T5Ps03JSWFCy64gA0bNrBmzZqYQPqHP/yh+7p48WJ3eaQ6uk2bNvzgBz9wjxUMBt2vj9dre9OmTXTv3p127dqd1NxPx70lIiIiItIYFEiLiIhIg0TCY6/XQ6C6mi49LuL1N+fi8YLXNGjVwmTH14Vc0LUjQwYPYt/BUnbtOkBOh7Ysnv88e/bucXvanqoK6YcffpgNGzZgmibTp08nKyvrO/eJDhCPFd02IqJLly54vV5qamr46quv6tx3+/bt7tfRwWTXrl1ZsWIFhYWFHD58uM4q6UhbkPpavHixG+7edNNNjBs3LqYqOBgMNmof7ZN1ovPt1q0by5cvp7CwkNLS0jqrpCPXPzs7+7jV0RH9+vVjw4YNrF69murqajdwjgTSl112GT6fj/z8fL755hv3gYaXX355zD3cvXt3Vq5cicfjYf78+SQkJNTncsQ53s//wIEDbnV2165d49YHAgG+/fZbcnJyat0/ct9mZ2erOlpEREREThs91FBERETqLfpBhDU1IYLBGpr5TQ4WF7B/+2e8/8psPv54Nbt2bgbDYv3mHXy08lMOHsrnwP69pLVuy9o1a9yWHafiwYavv/46CxcuBGDChAlcdtllx90+EsTt37+/1vU1NTV8++23ccv9fj+dOnUCYOPGjXUeP3pddCB93nnn1bpNtMOHD7Njx47jzD5epFdxWloaEydOjAth161b16DjnWonOt/oa1nX9QsEAm5/5PqG8JG2G3l5eSxbtozq6mrat2/POeecA0Dz5s3p2bMnACtWrHAD6+h2HdHzC4VCtbbTqK+vvvqK8vLyWtdFn3dtgTTAZ599Vuvy6upq99pE34siIiIiIqeaAmkRERFpkEh43KJFMtWBAK2Sm5HhqaGsoIAenTrQsqqIzav/TYezzyYjtTm9e3TkvPbZeExo07Ytb732utt7ubFD6c2bNzNlyhQArr32WsaMGfOd+0TCuEOHDrF+/fq49QsXLqzzAX6RkHPjxo08//zzceu/+eYbpk+fDkCzZs1iKlWjA8QpU6ZQUlISs69t29x9993HrdyujWVZgBOkBwKBmHXBYJAXX3yxQcc71U50vtGB9JQpU9xK4Wh/+ctfKCwsjNseoLKyktdff52VK1fGtLvo3r07qamp2LbNzJkzgaPV0RGR7+fNm0dRURGGYXD55ZfXOb/JkyfXGiqvWLGCgQMHMnDgQN5///1az7OyspLf//73ccuLiop48MEH3e+7detW6/7Tpk0jPz8/bvmf//xn96GKdYXZIiIiIiKnglp2iIiISL0d2/PZtm12795NWmoqVw64DssGr8dDyzbZFBUXk+D3UXq4lLKyMkrLyykvK+dnQ4fGPdQQTqwHbrRDhw7xm9/8hurqalq1asUdd9xRaxAHTjVus2bNgNgw7u677+aBBx6gW7duFBcXs3TpUmbPnl3nmLfffjsffvghhYWFPProoxQVFdG/f3/S0tJYtWoVL730khtE3n///Zjm0VqA9u3bc8MNN7BgwQL27NnDmDFjGDFiBD179mT79u289dZbLF++vMHX4YorriAvL4/S0lL++Mc/MmLECHJzc/nyyy957rnn+PTTTxt8zFPpROfbrl07xo4dyzPPPENBQQGjR49m+PDhXHLJJezevZv//d//ZdGiRYDzYMDhw4fH7H/vvffy7rvvAjB16lSGDh0KgGma9O3bl6VLl7qV8f3794/Z94c//CF//etf3fXdunWjVatWMdtkZGRw66238ve//528vDxGjRrlzu/IkSMsW7aM2bNnU1lZSfPmzendu3ed1+j9999nwoQJDBo0iNzcXNauXcuCBQvcsP3mm28mIyOj1n0PHz7MmDFjGDlyJH369KGgoID/+Z//4dVXXwXgnHPO4cYbb6xzbBERERGRxqZAWkRERBok+gGErVu3pqamht27d5OUlEgkU27XLp3KyiPs37ePVmlpJCT4yczKJDExibZtWrvBbGP2j37nnXcoKCgAoKSkhMGDB9e57R/+8AdGjhwJQN++fRk4cKC7/2233RazbUZGBikpKeTl5cUdJysri9mzZ3PjjTdSXl7OnDlzmDNnTtx248ePZ8iQIXHL77vvPrZv387q1avZtGkTf/jDH+LGvvDCC93gtD6GDh3KG2+8QVFREe+88w7vvPNOzPrIuX5fnMx8x48fT2FhIUuWLGHTpk3cf//9cdtkZmYye/ZskpOTY5ZHt7vYuHGjG0iD035j6dKlACQmJtKrV6+YfXNycsjOznbvt2PbdURMmDCBvXv38vbbb7Nx48ZaW4v4/X6efPLJOns4Dxo0iE8//bTWawPO/Ttx4sRa901NTeXyyy/nn//8Z0w1dUTz5s15+umn6+xfLiIiIiJyKqhlh4iIiDRYpNWGx+PB7/eTm5tLZmYWWVlZZGZmkpqaSo8ePbj88svp+oMfcN5559ExN5ezsrNISEiotVXHyYbS0dXH38Xj8cTs99e//pWhQ4fSpk2bmO369OnD3Llz3erX2sbo0qULzz33HH379o1bl52dzX333cfYsWNrnYfX62XmzJlcf/31eL2xdQLXXnst8+bNIz09PW7O0XM5dnlOTg6LFi2id+/e+Hw+d3lCQgK33XYbjzzyiLtP9Pkce01qU59tGupE5xvxpz/9ibFjx5KWlhY31wEDBjB37lzatWsXt9/o0aPx+/20bduWX/ziFzHrottv9OnTB7/fH7d/dBuPugJpwzD4y1/+wq233hrXG9vj8fCjH/2IJUuW1HrvRM45IyOD+fPnc9VVV8Ws93q9DBkyhOnTp8fdA9HjP/zww4wfP57mzZvHrOvevTvPPvssHTt2rHVfEREREZFTxbBP9vOxIiIiTcC+ffswDIPU1NSTClCP3aeuv4bLysoA4kK2M2nfvn20bds2Zs6Rrxv6Wte6I0eO1Nl64HTJz8+noqKCrKysOqtW61JeXk5BQQGhUIjWrVuTnp5e7/vkyJEj7N69G8MwOPvss0lKSjqR6ccIBAJ8++23eDwezj777JjAt7FUV1ef8L5+vz/m+pzMfEOhEPv376e4uJikpCQyMzPdtizHm7tpmqfkutQ2v3379lFSUkLLli3JysqKexPiu9T3Hpk8eTKvvPIKrVq14pNPPgGcXt27d++moqKC9PT0uDdfRP7T6e9pERGR769j/55Wyw4RERFpkOiWHcf2lP6u19qO05htOxrDWWeddcL7Jicn06VLlxPat1mzZie8b138fj+dOnVq1GNG+/bbb7nuuutOeP+nnnqKa665xv3+ZObr8XjIynKq9OsrISHhhMY6ER6Ph+zsbLKzs0/4GCdzj5imSfv27U94bBERERGRxqKWHSIiIlJvtVWd1dV6o7bXY0PnxmrXIWeGZVlndH8REREREfnPowppERERqRfDMLAsC9M046qeG1IpDbEfgY6s+z5VSUv9ZGZmMnPmzBPe/6KLLmrE2YiIiIiIyH8CBdIiIiJSLz6fjyNHjpCUlITH4znpUBpi+0fX1NScll6+0ngSExNPqmWHnBp9+/bF7/eTnJx8pqciIiIiIhJHgbSIiIjUS2JiIocPH6agoIBAIFDng54ayjAM/H4/qamppKSkNMoxRZqy6667Tm8UiIiIiMj3lgJpERERqZfExETAeRBcMBhs1EDa5/ORmJjojiEiIiIiIiL/nRRIi4iISL2YpkmzZs1o1qzZmZ6KiIiIiIiI/Icyz/QERERERERERERERKRpUCAtIiIiIiIiIiIiIqeFAmkREREREREREREROS0USIuIiIiIiIiIiIjIaaFAWkREREREREREREROCwXSIiIiIiIiIiIiInJaKJAWERERERERERERkdNCgbSIiIiIiIiIiIiInBYKpEVERERERERERETktFAgLSIiIiIiIiIiIiKnhQJpERERERERERERETktFEiLiIiIiIiIiIiIyGmhQFpERERERERERERETgvvmZ6AiIiI/GewLItAIEAgEMC2bWzbBqjzNSKyrW3bpKWl4fXq1w8REREREZGmShXSIiIiUi9VVVUEg0EADMPAMAz369peIwzDwLIsiouLKSsrc48hIiIiIiIiTY8CaREREamXqqoqIDZ4rm8obds2lZWVmKZJeXm5QmkREREREZEmSp+ZFRERkXoJBoP4/X5s28YwDPcViFsW/RpZHwgE8Pl81NTUUF5eTnJyMj6f70ye0n+E9evXs2XLFhISEhg2bJi7PC8vj3nz5tG1a1duuOGGMzjDk7do0SKCwSDdu3enR48eZ3o6/3V0feNt3bqVdevWYRgGv/zlL/F4PGd6SiIiIiJNhgJpERERqZdIuFxb4FxXGB15DYVCBAKBmP7RCqXrZ+nSpcybN4/k5OSYQPree+9l8+bNAOTm5tK7d+8zNcWT9tBDDxEIBLjlllsUmJ4Cur7xVqxYwWOPPQbA4MGDadas2RmekYiIiEjToZYdIiIiUm+1teaI/l9d24RCIYLBIB6PB6/Xi9frxePxqH3HSYhui3JsixQREREREZHvK1VIi4iISINEV0ZHvg8EajBNZ3l0mw4Ay7II1oSoDgQwzfj3wlUpfWIefvhhFixYQJcuXejVq9eZno6IiIiIiEi9KJAWERGRBouuyA0EAvj9HrxmuJ80EF2va9s2Vo2P5GZJ4W39MceybZuysjJatmwZ09JDjq9z585MmTLlTE9DRERERESkQfSvPhEREam3Y/tGV1VV0bp1a74uKGLPgSpM0+BoHG0TKaSurg7iT0glLy+PgwcP4vf78fl8bvuOpKQkgsEgaWlp/9GV0hUVFezdu5eqqioyMjJo3bp1vdtpVFVVkZ+fTygUokOHDiQkJDTKnCzLIj8/dAsYBwAAIABJREFUn8rKSs4999y4NwS+S0VFBTt37iQ7O5u0tLRGmVN9VFVV8c033+Dz+TjrrLPqfT1O9HyDwSA7d+4kKSmJs88+u94/t/LycgoKCrBtm+zsbFq0aFGv/cC5tnv27MGyLHJzc+v9hszJ3Gen8rjBYJBt27aRkJBAx44dT3o+DWVZFvv27ePgwYO0bt2ajIyMBj+scP/+/RQWFpKRkUHbtm0btK9t2xQUFHDo0CGys7Np1apVg/YXERERaSoUSIuIiEiDRELpiooqEvwGO3aXsHDVEbwJidFbOf9v29iGgW17CFbCzy/00/UHaZQfCZDcPAnAbeMRCbhPNJBesmQJf/zjH+u17dSpU/n5z38OwO23387y5cvp0aMHCxcurHX7UaNG8cknn3DppZfywgsvxK3/4osvmDlzJitXroxZftZZZ/GrX/2KkSNH1jmXkpIS/va3v/HWW29RU1MDONdkwIABTJw4sc79Hn/8cebMmUNSUhLr1q2LW79161amTp3KF198QVVVFQA+n4+OHTvy61//muuvvz5m++LiYq644goAJk+eTEZGBk8++SRbtmwhFAoBkJ6ezu9//3t+/OMf1zmvk7Vr1y6mTZvGsmXL3Dc/fD4f119/PZMmTaJly5a17tfQ841YtWoVjz32GFu3bnX7mSclJXHRRRcxefJk2rdvX+t+X3zxBTNmzODjjz+OWd67d2/uuuuu4z48cNOmTcycOZMVK1a4y/x+P127duWGG26oc64nc58dz4kc989//jMLFy6kTZs2vPnmm9xzzz2sWbOGyspKMjMz+eCDD+L2GTduHB9++CHnnnsu//znP+PWjxw5knXr1tGmTRs++uijuDA8sn/Hjh1566233OU1NTXMmjWLefPmUVJS4i5PTU1l+PDh3HnnnccN+y3L4pVXXuGpp57iwIED7vLc3Fzuuusurr766uOe/7Jly/jHP/7BrFmzKC8vd7e58MILmTRpEhdffHGdY4uIiIg0RQqkRUREpN6iK6RNj4HXY1JcbtGiRQtaJRnU2BDftAO8po+ShASqbIuWLUxsqvD7Y4Nn27apqqpqUIVptJqaGizLqte2kYA1er/jPVzxeNvk5eVx8803xwRREfn5+UydOpWKigpuv/32Wo/7u9/9jk8//TRmuWVZvPvuu6xfv77OMOt4c3rjjTe4//773YA7IhgMsmXLFu655x727t0bM6dQKORev3Xr1vHee++5wW5EYWEhd911FxUVFfziF7+odV4nY//+/YwYMYKioqK4eb/66qvs27ePWbNmxVW9nsj5Arz44os88sgj7nlH7u/Kykr+/e9/8/Of/5ynn36aPn36xOy3c+dObrnlFsrKyuLO4dNPP2X06NG8/PLL5Obmxq3fvn07t9xyC6WlpTHLA4EAGzduZOPGjWzevJl77rknpuf6ydxnx3Oix43cf1VVVUyYMIFVq1Z951g9e/bkX//6Fzt27ODgwYO0adPGXVdWVsb69euxLIvCwkK2bt1K165d3fWWZbF27Vosy4r7M/HQQw/x8ssvx4136NAhnn32WYqLi3nwwQfrnNcTTzzBiy++GLd8x44d/Pa3v2Xu3Ln07t271vMPBoNMnjyZ1157LW7/DRs2MGbMGBYvXkxOTk7dF0ZERESkiVEgLSIiIg0SqVo0DAMMA5/PxO8JYWBwNCZ0Qmn34YcW+E0bX7hK0cau9eGIxwaKDfHTn/40LjiMOHLkCKNGjaK4uJjMzMxaKx5PxJ49exgzZgzl5eWYpsnNN99Mv379SEtLY9WqVcybN49du3YxY8YM0tPTGTJkSMz+jzzyiBtGd+vWjeHDh9OzZ0+2bdvG22+/zbJly3j33XcbNKfq6moeffRRampq8Pv93H333VxyySVYlsXy5ctZsGABBw4cYMaMGQwfPpzU1NS4Y7z11lukpqZy7733cumllwLw5ptvMnv2bCzL4vHHH2fQoEEkJSWd4JWrXaRq9rrrrmPQoEHk5uayZs0aFi5cyNatW1m5ciWPPfYYkyZNOunzraqqYvr06ViWRXZ2NlOnTqVnz54cOHCADz74gIceeogjR47w5JNPxtxXxcXF3HrrrZSVleH1erntttvo168fhmGwYsUKnnnmGcrKyrj11ltZvHhxTJuT/fv3M3r0aEpLSzEMg5EjR3LVVVfRsmVLli9fzpIlS9i9ezcvvPACF110ET/60Y+Ak7/P6tIYxy0tLWXVqlX07NmTQYMG8YMf/KDO8fr168ff/vY3ANauXeueH8Ann3wS80bRypUrYwLpvLw8N8Tv16+fu/z55593w+iLLrqIG264gW7durFlyxbmzZvHZ599xqJFi2jfvj2jRo2qdV4vvvgibdu25aabbuKKK67g8OHDfPDBB7z44ouEQiHGjx/PkiVLyM7Ojtu3pKSE1157jQ4dOnDjjTdy2WWXkZ+fz3vvvcdrr71GRUUFd9xxB4sWLTrhN9tERERE/tsokBYREZF6i4TIMWGybeGjBp9hUsPRgNljmpimiWmYGCbYhDBNGxsjJtSODqVPRrNmzepsrzBhwgSKi4vx+Xw88cQTjdbb9dlnn6WwsBCAiRMncsstt7jrOnfuTP/+/Rk2bBjl5eU89NBDDB482K163bVrF/PmzQMgMzOTOXPmuPPKyclhwIAB3HbbbTFtHepj27Zt5Obmkpuby4gRI2JCv27dupGUlMQjjzwCOJXQtYXzCQkJ/P3vf+eCCy5wl0Wu4eLFiykpKWHHjh107969QXOrj6uuuooZM2a490hOTg5XX301Q4YMobCwkLlz53LTTTeRkZFxUuf78ccfU1lZCTg/u0jonJWVxY033ohlWbz//vuA84ZGs2bNAHjqqafIz88HnLYNkdYvAD169CA9PZ0HHniAgoIC5s2bx29/+1t3/dNPP82+ffsA+M1vfsO4cePcdeeddx4DBgxg8ODBBAIB5s2b557Lydxnx9NYxx0wYACPPfbYd7bb6dy5M+np6RQWFrJ69eqYn1WkXUhiYiJVVVWsWLGCMWPGuOtXr14NgNfrdauVDx48yLRp09xjz549m+TkZMC5b/r378/w4cPZsWMH06dPZ+TIkbX2FPf5fDz11FMxbVb69OlDSkoKTzzxBIcOHeLpp59m6tSptZ5Xy5YtmT17NmeffTYAHTt25Morr8QwDJYsWcLXX3/N/PnzG1y9LiIiIvLf6rt/UxURERGJEgkKTcPAtiHRb9KulY/WKV7apvho29J5be4NEqo4QOmBnVQc+Bq78gAmNbj9pY3Y11PlH//4B++88w7g9EY+//zzG+3YmzZtApwgMjrMi+jQoQMTJkwAnFBz586d7rrNmze7X0+ZMiUuJDdNk0cffbTBPbXPP/98XnjhBV544YWYwC8iuj9x9Byi9erVKyaMjvjJT37ifr1r164Gzas+kpKSmDZtWtw90aZNm5j+4NHzPtHzjQ5Wt27dGrffyJEj3eNGwmiAzz//HHACy+gwOuL//J//41b2Ru6PY/ft1q0bY8eOjds3JyeHxx9/nHHjxtG3b193+cncZ8fTWMcdN25cve/TSHXzmjVrYpZHAulISL9+/XoqKirc9WvXrgXg4osvdkPnTZs2uW9oTZ482V0e0aJFC+666y7AabGRl5dX65xGjx5da8/vsWPHuhXfW7ZsqfOcJk2a5IbR0R544AG3Qr6uP2siIiIiTZEqpEVERKTejq2QNj0eDhftZc3KPFq1TCRkWZgeL7YdYvXyt9m+6d+kp7eFUIh1X+7kVzcM455JE/F6zFqP19hWr17ttggYNmwYw4YNa7RjBwIBtm3bBnDcB9hFB7ubNm2iY8eOQGxAdeGFF9a6b0pKCjk5OXUGafWxd+9eDh48SGlpKWVlZTF9j6NbJNQ152iRqmQgJixsLJ06dYoLFSOir9GWLVu46qqrat2uvud70UUX4fP5CAaDzJo1izVr1jBo0CB69+5NTk5OrW+UBAIBN8QtLS2NewhgRKQH9pdffukuq66u5quvvnLHruuNmGuuuYZrrrkmZsyTuc/q0ljHbd68OV26dDnuWNH69evHkiVL+OqrrygpKaFVq1bs3LmTPXv24Pf7GTlyJPPnz2f//v2sWrWKq6++Gtu23QA78uDNyHwiSkpKav15FBcXx2xf2xtSdfVpNwyDHj16sHXrVr766iuCwWCtwXtd+yckJNC1a1c+/vhjBdIiIiIiURRIi4iISIMcDY9tTNND0f69PHTXK/Tq24Yd+y0Obv8aaAvMBWDgoJ9RVHKQg3t2smL5B0z8vxMwTTMujG7sSun9+/czYcIEQqEQ3bt354EHHmjU4+fl5bk9r48X/kWv+/LLLxk8eDBwtOIyPT2dlJSUOvfv3LlzgwPp0tJSHnvsMT766CO3RURDtG7dutbltbU7aEydO3euc13btm1JTU3l0KFDcdWqJ3K+qampPPnkk/zmN78hGAyyfv161q9fDzjnP2jQIIYOHRozp0igDM4bCqNHjz7uGEVFRRw4cIC2bduydetW935pSIB7svfZqT6u3+9v0J/dyy67DNM03YcUXnvttW5bml69epGUlET//v1ZvHgxK1eu5Oqrr2b79u0cOnQIiO0fHR3433nnnd85dm2V8HD8+65Tp06A84DMnTt3xv3s/H5/na2CIvt//PHH5OfnU1ZWpj7SIiIiIiiQFhERkQaIDY+dECox0aBLX5NL+mbx6K9uxDYD2CEf7799PjVVpYRsD9u2bmP8Ff1pk5KMz+sjZIXijteYFdKBQIDx48dTVFREamoqTzzxxCkNU48XyEWvO5FzbGhQv2vXLkaNGsXu3bvdZa1btyYtLY0WLVqQkpLCBx980OB5fJ9EX8eTOd8rr7ySf/3rX7z55pssXbqULVu2YNs2RUVFvPDCC7z00ks88sgj/OxnPwOIe+hmXT20N23aRGZmZkyw7/EcfeRnXZXp3+VU3Wen8v49VkpKChdccAEbNmxgzZo1MYH0D3/4Q/d18eLF7vJIdXSbNm1iHpoYDAbdr4/Xz3zTpk10796ddu3andTcT8efXxEREZGmQIG0iIiINEgkPPZ6PQSqq+nS4yJef3MuHi94TYNWLUx2fF3IBV07MmTwIPYdLGXXrgPkdGjL4vnPs2fvHrff6qmqkH744YfZsGEDpmkyffp0srKyvnOf6HDrWNFtHyK6dOmC1+ulpqYmpnL2WNu3b3e/jg7NunbtyooVKygsLOTw4cN1VklH2irU1+LFi91w9qabbmLcuHGkpqa664PBYKP20W5MxzvXAwcOuFWykR7NcPLn27ZtW0aPHs3o0aMpKytj1apVLFiwgE8++QTLsrjnnnvo168frVq1okuXLng8HkKhEGPHjmX8+PH1PrfOnTu7LULqqtStzcneZ6f7uPXRr18/NmzYwOrVq6murnYD50ggfdlll+Hz+cjPz+ebb75xH2h4+eWXx/x3onv37qxcuRKPx8P8+fNJSEg4ofls27atzrA6cm18Ph+5ublx6wOBAN9++y05OTnH3T87O1vV0SIiIiJheqihiIiI1Fv0gwhrakIEgzU085scLC5g//bPeP+V2Xz88Wp27dwMhsX6zTv4aOWnHDyUz4H9e0lr3Za1a9a4LTtOxYMNX3/9dRYuXAjAhAkTuOyyy467fSQk2r9/f63ra2pq+Pbbb+OW+/1+9+P8GzdurPP40euiA73zzjuv1m2iHT58mB07dhxn9vEifXTT0tKYOHFiTDgLsG7dugYd73T66quvKC8vr3Vd9DWKDqQb83xbtGjBtddey/PPP++247Bt2z1GYmKi28Liiy++qPdxwblfIu0e1q9fj2VZtW63atUqXnzxRV555RV3v5O5z443n1Nx3PqItN3Iy8tj2bJlVFdX0759e8455xzA6Uvds2dPAFasWOEG1tHtOqLnEwqFjvvQwe8SadVyLNu23fPv2LFjnQ9u/Oyzz2pdXl1d7faOjv7zLiIiItLUKZAWERGRBomExy1aJFMdCNAquRkZnhrKCgro0akDLauK2Lz633Q4+2wyUpvTu0dHzmufjceENm3b8tZrr7utDxo7lN68eTNTpkwB4Nprr2XMmDHfuU8kKDp06FCtwdTChQvrfIBfpPJ248aNPP/883Hrv/nmG6ZPnw5As2bNYqooo0PVKVOmUFJSErOvbdvcfffdx63crk0k6KypqSEQCMSsCwaDvPjiiw063ulUWVnJ73//+7jlRUVFPPjgg+733bp1c78+0fOdNm0aw4YN46abbqKwsDBu/bnnnut+Hf2gxUgIunLlSl5//fW4/Wpqahg3bhwDBw7k17/+dcy6yAMCt23bxpNPPhm379dff83YsWP5y1/+whtvvOEuP5n77HhO1XEj8vLyWLBgAQcPHoxZ3r17d1JTU7Ftm5kzZwJHq6MjIt/PmzePoqIiDMPg8ssvjztOxOTJk2t9M2PFihUMHDiQgQMH8v7779c6zzlz5vD555/HLZ81a5ZbzX68QHnatGnk5+fHLf/zn//sPlQx+s+7iIiISFOnlh0iIiJSb8f2fLZtm927d5OWmsqVA67DssHr8dCyTTZFxcUk+H2UHi6lrKyM0vJyysvK+dnQoXEPNYST70976NAhfvOb31BdXU2rVq244447ag2JwKmmbdasGRAbFN1999088MADdOvWjeLiYpYuXcrs2bPrHPP222/nww8/pLCwkEcffZSioiL69+9PWloaq1at4qWXXnJDsvvvvx/TPFoL0L59e2644QYWLFjAnj17GDNmDCNGjKBnz55s376dt956i+XLlzf4OlxxxRXk5eVRWlrKH//4R0aMGEFubi5ffvklzz33HJ9++mmDj3k6vf/++0yYMIFBgwaRm5vL2rVrWbBggRsa33zzzWRkZLjbn+j5durUiblznQdv3nnnnUyYMIELL7wQ27ZZsWIFjz/+OODcK5deeqm737hx41i+fDkHDhzg/vvvZ9euXfTt25esrCx27tzJ008/7VbMDhw4MGbMsWPH8tFHH1FQUMAzzzxDeXk511xzDW3atGH16tW89NJLVFZWAjBq1Ch3v5O5z47nVB0XnFYf119/PQDPPfcc//u//+vub5omffv2ZenSpe6nD/r37x+z/w9/+EP++te/uuu7detGq1atYrbJyMjg1ltv5e9//zt5eXmMGjWK4cOHc8kll3DkyBGWLVvG7NmzqayspHnz5vTu3bvWuQaDQe68805+/etfc/nll1NaWsqHH37ohvSpqamMHTu2znM9fPgwY8aMYeTIkfTp04eCggL+53/+h1dffRWAc845hxtvvLHe105ERETkv50CaREREWmQ6AcQtm7dmpqaGnbv3k1SUiKRTLldu3QqK4+wf98+WqWlkZDgJzMrk8TEJNq2ae0GU43ZP/qdd96hoKAAgJKSEgYPHlzntn/4wx8YOXIkAH379mXgwIHu/rfddlvMthkZGaSkpJCXlxd3nKysLGbPns2NN95IeXk5c+bMYc6cOXHbjR8/niFDhsQtv++++9i+fTurV69m06ZN/OEPf4gb+8ILL+Tdd9/97gsQNnToUN544w2Kiop45513eOedd2LWR871+2jQoEF8+umntc4bnJ/VxIkTY5ad6Pn++Mc/5uWXX2bjxo18/vnn3HzzzZimGdNKIyEhgXvvvTfmgYTZ2dnMmjWLkSNHUlFRwTPPPMMzzzwTd/z+/ftz++23xyxr27Yts2fPZsSIERw+fJiXXnqJl156KW7fX/7yl1x11VXu9yd7n9XlVB0XYlt9FBQUcODAgZg+zf369WPp0qWA0wqlV69eMfvn5OSQnZ3t/pk+tl1HxIQJE9i7dy9vv/02GzdurLX9iN/v58knn6yzh/Mtt9zC3LlzmTZtWtw6j8fDjBkzOOuss2rdNzU1lcsvv5x//vOfMVX8Ec2bN+fpp5+us0e8iIiISFOklh0iIiLSYJFWGx6PB7/fT25uLpmZWWRlZZGZmUlqaio9evTg8ssvp+sPfsB5551Hx9xczsrOIiEhodZWHScbSjekejM6YDRNk7/+9a8MHTqUNm3axGzXp08f5s6d61Zm1jZGly5deO655+jbt2/cuuzsbO677746qyu9Xi8zZ87k+uuvx+uNrRO49tprmTdvHunp6XFzjp7LsctzcnJYtGgRvXv3jul5m5CQwG233cYjjzzi7hN9Psdek9rUZ5sTETluRkYG8+fPjwljwblOQ4YMYfr06Y12vgkJCSxYsIDf/va3ZGZmAkfbfyQnJ9OnTx9effVVfvrTn8bN97zzzmP27Nm1VtxmZWXxwAMP8NRTT+H3++PW5+TkMHfuXK644oq4a9C5c2ceeugh/vSnP8Vd35O5z2o7/5M9bl33X8SAAQPcHtVDhw6Ne2hgdPuNPn361Hqtott41BVIG4bBX/7yF2699da4/uEej4cf/ehHLFmyJO78oq/FnXfeyZQpU0hLS4vZ5txzz2XGjBn06dOn1rEj4z/88MOMHz+e5s2bx6zr3r07zz77rNt3XEREREQchn2yn48VERFpAvbt24dhGKSmpp5UgHrsPnX9NVxWVgYQF5CcSfv27aNt27Yxc4583dDXutYdOXIkph3DmZCfn09FRQVZWVl1VlTWpby8nIKCAkKhEK1btyY9Pb3e98mRI0fYvXs3hmFw9tlnk5SUdCLTjxEIBPj222/xeDycffbZdT6U7WRUV1ef8L5+v7/O63Mi1+Nkzre8vJz8/HySk5PJzs6u98+trKyMPXv2AEer6RsyZkFBAYZh0KFDh1pD2ePtdyL32ek+bnl5eUwP7lMpFAqxb98+SkpKaNmyJVlZWXFv9ByPbdvs2bOHQ4cO0aZNm+Oe/+TJk3nllVdo1aoVn3zyCeC8obF7924qKipIT0+Pe4NLTi39PS0iIvL9dezf0wqkRURE6kH/0D0aSMN3B8t1vR57vsduU1FRccYDaam/b7/9luuuu+6E93/qqae45pprGnFG8v+zd+fxUdX3/sdfM5OZLCQQEggJgQsmCIIoWmQpAt5bC9ZeW1CwBVoUQRRoLcIFVETAhYKKCupDpCwKIlCo1cKvggtVQcomqOxBQAgJSzZCMoFk1t8f6RxnmAnMhJCIvp+Ph0443/M95zvnzLC85zufr9SOUIG01C39OS0iIvL9df6f0yrZISIiImEL9Y/8qkpvhHo8/x/6NVWuQ+qGf73luugvIiIiIiJXHi1qKCIiImExmUx4PB7MZrOxEKFv5pj/4oQXe4TAGWe+tppa3FBqT1paGrNnz652/xtvvLEGRyMiIiIiIlcCBdIiIiISFqvVytmzZ4mNjcVisVxyKA2BJTtcLtdlqXEsl09MTMwllewQuVJ169YNm81Wa/WxRURERH5IFEiLiIhIWGJiYjhz5gy5ubk4HI4q62pGymQyYbPZSExMjGhBOBGRunLbbbfpwxgRERGRalIgLSIiImGJiYkBIDo6GqfTWaOBtNVqJSYmxjiHiIiIiIiI/DApkBYREZGwmM1m4uLiiIuLq+uhiIiIiIiIyBXKXNcDEBEREREREREREZEfBwXSIiIiIiIiIiIiIlIrFEiLiIiIiIiIiIiISK1QIC0iIiIiIiIiIiIitUKBtIiIiIiIiIiIiIjUCgXSIiIiIiIiIiIiIlIrFEiLiIiIiIiIiIiISK1QIC0iIiIiIiIiIiIitUKBtIiIiIiIiIiIiIjUCgXSIiIiIiIiIiIiIlIrFEiLiIiIiIiIiIiISK1QIC0iIiIiIiIiIiIitUKBtIiIiIiIiIiIiIjUiqi6HoCIiIhcGTweDw6HA4fDgdfrxev1AlT56OPb1+v1kpSURFSU/vohIiIiIiLyY6UZ0iIiIhKW8vJynE4nACaTCZPJZPwc6tHHZDLh8XgoKiqitLTUOIaIiIiIiIj8+CiQFhERkbCUl5cDgcFzuKG01+vl3LlzmM1m7Ha7QmkREREREZEfKX1nVkRERMLidDqx2Wx4vV5MJpPxCARt83/0tTscDqxWKy6XC7vdTnx8PFartS6f0hVhx44d7Nu3j+joaPr3729sz8rKYsmSJbRt25ZBgwbV4QilOlasWIHT6aR9+/Z06NDhott/jPe7qmshIiIiIlc2BdIiIiISFl+4HCpwriqM9j263W4cDkdA/WiF0uF5//33WbJkCfHx8QGB9GOPPcbevXsByMzMpEuXLnU1RKmGZ555BofDwdChQwPC1qq2/xjvd1XXQkRERESubAqkRUREJGyhAmd/VYXSbrcbp9OJxWIJ2F+hdPX5X/vz74PUjL///e98++23JCcnM2TIkDodi+63iIiIiPxQKJAWERGRiPjPjPb92uFwYTZXbvcv0wHg8XhwutxUOByYzcHLVyiUrp7p06ezdOlS2rRpQ+fOnet6OD9Iq1evZtOmTfzXf/1XnQfSut8iIiIi8kOhQFpEREQi5j9D0+FwYLNZiDL/p5404D9/0+v14nFZiY+L/c++toBjeb1eSktLqV+/fkBJD7mw1q1bM3Xq1LoehtQS3W8RERER+aHQv/pEREQkbOfXjS4vLyc5OZlvcws5nl+O2Wziuzjai28idUWFE1t0IllZWRQUFGCz2bBarURFRREVFUVsbCxOp5OkpKQreqZ0WVkZJ06coLy8nNTUVJKTk8Mur1BeXk5OTg5ut5uWLVsSHR1dI2PyeDzk5ORw7tw5rrrqqqAPBC6mrKyMw4cPk56eTlJSUo2MKRz5+fkUFhaSkZERcswnT56ksLCQq6++OuznZLfbyc3Nxev1kp6eTkJCQo2O2W63c+TIEZo0aULjxo1r9Njh8ng85Ofnk5eXV+v3LByXeg/Ky8s5cuQIVquVZs2aRfw+8d2j+Ph40tPTr+jfb0RERESuVAqkRUREJCK+ULqsrJxom4lDx06zbPNZoqJj/Peq/L/Xi9dkwuu14DwHd94xQJhzAAAgAElEQVRgo+01SdjPOoivFwtglPHwBdzVDYjeeecdnnjiibD2nTZtGnfeeScAI0aMYP369XTo0IFly5aF3H/YsGFs2rSJTp06sWjRoqD2Xbt2MXv2bD7//POA7c2aNePee+9l8ODBVY7l9OnTPP/886xatQqXywVUXpPevXszbty4Kvu9+OKLzJ8/n9jYWLZv3x7Uvn//fqZNm8auXbsoLy8HwGq10qpVK4YMGUKfPn0C9i8qKqJ79+4ATJkyhdTUVF555RX27duH2+0GICUlhUcffZRf/vKXVY4rUuefNyEhgTlz5vDNN98AYLFYGDBgAOPGjSMmJoZ33nmH2bNnk5+fbzyndu3aMX36dDIyMkKeY9euXcyaNYuNGzcGbO/SpQtjx44NWjDv5z//OcePH8fj8QCQnZ1Nu3btAMjIyOD//b//Z+zrdDp5/fXX+fvf/86JEyeM7Y0aNaJjx45MnTqVhg0bXsolAi5+v91uN3PnzmXp0qUUFBQY29PS0rjpppt47LHHLhpO792711g4c+bMmUH3efPmzQwdOhSAyZMnM2DAgID2PXv2cPfddxvj/cUvfmG0RXoPzpednc1zzz3HunXrjA/FrFYrffr0YcKECdSvXz9g//NfVx06dODPf/4zW7duNfapV68eAwYM4OGHH1YwLSIiIlKLFEiLiIhI2PxnSJstJqIsZorsHhISEmgYa8LlheCiHRBltnI6Oppyr4f6CWa8lGOzBQZAXq+X8vLyas9adblcRoB4Mb6A1b+f0+m86LFD7ZOVlcV9992H3W4PasvJyWHatGmUlZUxYsSIkMd9+OGH2bJlS8B2j8fD2rVr2bFjBz/5yU8iHtN7773HpEmTjIDbx+l0sm/fPh555BFOnDgRMCa3221cv+3bt/Phhx8aQbZPXl4eY8eOpayszAgeL5X/eb/44gvWrl0b8Jzcbjdvv/02JSUltGrVipdeeinoOX399dcMGTKEpUuX0qxZs4D2w4cPM3ToUEpLS4POvWXLFu6//36WL19OZmZmwDHPfy35fu0/tnPnzjFo0CD27dsXdOyCggI++OADsrKyWLBgAenp6eFekpAu9jp98sknWbFiRdD2EydOsHr1ar744gtee+012rZtW+U5WrduTVxcHHa7na1btwYF0hs2bDCuw/r164MC6W3bthntHTt2NLZX5x74O3XqFAMHDqSwsDBgu9Pp5G9/+xsnT55k7ty5AYum+r+u9u/fz7PPPsvZs2cD+peVlbFgwQJKS0t56qmnqrwuIiIiIlKzFEiLiIhIRHwlKEwmE5hMWK1mbBY3Jkx8FwdVhtLG4ocesJm9WP9TI9qLN+TiiOcHqJH41a9+RdeuXUO2nT17lmHDhlFUVERaWhq33nprtc/j7/jx4wwfPhy73Y7ZbOa+++6jR48eJCUlsXnzZpYsWUJ2djazZs0iJSWFu+66K6D/jBkzjDD62muvZcCAAXTs2JEDBw6wevVq1q1bx9q1ayMaU0VFBTNnzsTlcmGz2Rg/fjw33XQTHo+H9evXs3TpUvLz85k1axYDBgwgMTEx6BirVq0iMTGRxx57jE6dOgHwj3/8g3nz5uHxeHjxxRe54447iI2NreaVC2316tU0a9aMsWPHct1117F//36efPJJCgoKWL16NQANGzbk0Ucf5Sc/+QknT55k1qxZbN++nby8PFavXs3IkSON4xUVFfHAAw9QWlpKVFQUDz74ID169MBkMrFhwwbmzJlDaWkpDzzwACtXrjRmEC9fvhyHw8GECRP4+uuvadKkCYsXLwYIKBGxYsUKI4zu3r07v//978nMzGT37t28//77fPTRRxw5coRFixYxceLEGr1W/l577TUjjG7dujWDBg2ic+fOHDhwgHXr1rF69WpOnDjBuHHj+Oc//1nlcaKioujWrRsffvgh27ZtC2rfsGGD8fOWLVtwOp0BM4t9s4+vueYao2RJde+BP9+Yb7vtNu644w4yMzPZtm0by5YtY//+/Xz++ee88MILTJgwIeTz8n3z4Te/+Q29evWiSZMmbNq0ibfeeoucnBxWrFhB27ZtGThw4AWvs4iIiIjUDAXSIiIiEjZfiBwQJns9WHFhNZlx8V3AbDGbMZvNmE1mTGbw4sZs9uLFFBBq+4fSlyIuLo4WLVqEbBszZgxFRUVYrVZefvnlGimhAPD666+Tl5cHwLhx44xyBlAZDPbs2ZP+/ftjt9t55pln6Nu3r1GiJDs7myVLlgCVZRXmz59vjCsjI4PevXvz4IMPBoSA4Thw4ACZmZlkZmYycODAgLIJ1157LbGxscyYMQOonAkdKpyPjo7mL3/5C9dff72xzXcNV65cyenTpzl06BDt27ePaGwXk5CQwPz582nZsiUAzZs3p1GjRkZQaDabeeONN7jmmmuM9rlz53LLLbdQVlbGrl27Ao736quvkpOTA8DTTz9tlGkB6NChAykpKUyePJnc3FyWLFnCn/70J6DyfkDla8p3PUK9to4ePUqXLl1o2LAh06dPNwL65s2bc+utt9KzZ0+Ki4sDykTUtLy8PF5++WWgsqTKwoULadSoEVD5OvrFL36BxWLhvffe49ChQ2zevLnKD26gMlj/8MMPOXToEEVFRUZAfOrUKQ4cOACAzWajrKyML7/8ks6dOwOV33DwlRLp0aOHcbzq3oPz/exnP2PWrFnG7x0ZGRnceuut3HXXXeTl5bFw4ULuueceUlNTQ/a/5557Aj4UaN26Nd27d+fuu+/m7NmzzJgxg7vvvlsLq4qIiIjUAnNdD0BERESuLL5AyGwy4fVCjM1Mk4ZWkhtE0biBlcb1Kx/rRTlxl+VTkn+Ysvxv8Z7Lx4wLo760KfDxcnnzzTdZs2YNUFlL9rrrrquxY+/evRuoDNb8w2ifli1bMmbMGKBylvbhw4eNtr179xo/h6ozbDabmTlzZsS1ba+77joWLVrEokWLAsJoH//a0f5j8Ne5c+eAMNrnf//3f42fs7OzIxpXOHr06GGE0T4dOnSgXr16ALRr184Io33i4+Np3bo1AEeOHAlo27lzJwBdu3YNCEJ9fvOb3xglLHz3MhKTJ09m0aJFzJo1K2i2uM1mM65XVlZW2OVkIuUfwk+ZMsUIo/1NnDiRP/zhD4waNeqigat/mOw/S9pXH719+/b07NkzYBtUfhBy5syZoGPUxD2IjY3lueeeC/q9olGjRgF146t6PTdr1izk7OnMzEweeughoPKbBf7vTxERERG5fDQFQERERMJ2/gxps8XCmcITbPs8i4b1Y3B7PJgtUXi9brauX83B3f8mJaUxuN1s33OYewf155EJ44iymEMer6Zt3bqV559/HoD+/fsbC7bVBIfDYcwYvdCCbP7B7u7du2nVqhUQGJ7dcMMNIfs2aNCAjIwMsrKyqj3OEydOUFBQQElJCaWlpQF1fP1raVc1Zn/+s0/LysqqPaaqhPqwwGw2U69ePcrKyrj66qtD9mvSpAlAwGvI4XAYAWdJSUnQgpM+vrrEe/bsuaSxl5eXc/ToUUpLSykpKcFut/P+++8b4/J4PMbs+JrkH+L61232V79+fSN4vZi0tDQyMzM5dOgQ27Zt47bbbgO+C59vueUWUlNT+fjjj9mwYQNjx44Fvguv69Wrx4033gjU3D24+uqriY+PD9nm/97Zt28fP/vZz4L2uf7666sM4s/v7/twQ0REREQuHwXSIiIiEpHvwmMvZrOFwlMneGbsX+ncrRGHTnkoOPgt0BhYCMDtd/yawtMFFBw/zIb1nzDu/8ZgNpuDwuianil96tQpxowZg9vtpn379kyePLlGj5+VlWXUvPaFzKH4t+3Zs4e+ffsCGLWHU1JSaNCgQZX9W7duHXEgXVJSwgsvvMBnn33GyZMnI+oLkJycHHK7zWaL+FiR8K/PHEokr5FvvvnG+Hnv3r3cf//9F9y/sLCQ/Px8o/ZxuNatW8fChQvZuXPnBRfGvFx8M6RTUlJC1gOvju7du3Po0CGj1IjH4+Hf//43AD179jQ+mNi3bx8FBQU0atTICKS7dOlizOqvqXtwoZC4cePGJCYmUlxcHHJxSaDKDzLOb9u7d2/ANwhERERE5PJQIC0iIiJhCwyPK8PBmBgTbbqZualbU2be+zu8Zgdet5WPV1+Hq7wEt9fCgf0HGN29J40axGONsuL2uIOOV5MzpB0OB6NHj6awsJDExERefvnlyxqmXigo9W+rznOMNKjPzs5m2LBhHDt2zNiWnJxMUlISCQkJNGjQgE8++STicVxpzl8gs6p617t37yYtLa3KEP5CXn75ZV577TXj11arldTUVBo0aEBCQgKbNm2K+JiR8s38rcmSID169GDRokUcOHCA4uJijh49ypkzZ0hMTOS6667DbDbTpk0bsrKy2LhxI3369DECaf9yHbVxD/xV9f663GWBRERERCQyCqRFREQkIr7wOCrKgqOigjYdbuTdfyzEEgVRZhMNE8wc+jaP69u24q6+d3CyoITs7HwyWjZm5dtvcPzEcZo3bw5w2WZIT58+na+++gqz2cxLL71E06ZNL9rnQrNb/ctc+LRp04aoqChcLlfATNDzHTx40PjZP5Br27YtGzZsIC8vjzNnzlQ5S9pXFiRcK1euNMLoe+65h1GjRgXMnHU6nTVaR/v7qk2bNlgsFtxuNyNHjmT06NE1eny73c5f/vIXoLKUyQsvvMCNN94YUJZj1qxZvP766zV63vO1b9+eTz/9lIKCAgoLCy851AXo1KkT0dHRVFRUsH37dmPmcY8ePYznd8stt5CVlcWGDRto3749RUVFxj4+NXUPLvQeyM/Pp7i4GMCoRR1Jf//3Z1X9RURERKRmaVFDERERCZv/QoQulxun00WczUxBUS6nDn7Jx3+dx8aNW8k+vBdMHnbsPcRnn2+hoDiH/FMnSEpuzBfbthklOy7Hwobvvvsuy5YtA2DMmDH89Kc/veD+CQkJQGWJj1BcLhdHjx4N2m6z2Yyv+3/99ddVHt+/zT+QbteuXch9/J05c4ZDhw5dYPTBfHV6k5KSGDduXFAZh+3bt0d0vCtVTEyMUS7Ff+G/6jh/pi/Ali1bjO333XcfHTt2DKoR/cUXX1zSecPh/+FCVec7d+4cb731FosWLQqr/Et0dDSdO3cGKuuw+15TvsUMoTKQBti4cSNbtmwBKhfxbNasmbFPTd2Db775BrvdHrLN/71TVaC8c+fOkPcQ4KuvvrpofxERERGpWQqkRUREJCK+8DghIZ4Kh4OG8XGkWlyU5ubS4eqW1C8vZO/Wf9OyeXNSE+vRpUMr2rVIx2KGRo0bs+rv7xrhUE2H0nv37mXq1KkA9OrVi+HDh1+0jy8YLi4uZseOHUHty5Ytq3IBP18Y+PXXX/PGG28EtR85coSXXnoJgLi4ODIyMow2//Br6tSpnD59OqCv1+tl/PjxEdcl9pVucLlcOByOgDan08nixYsjOt6VzPcBwOeff867774b1O5yuRg1ahS33347Q4YMCWr31UI+fvw4eXl5AW3+5SFCvT62b9/Ol19+eSnDD4v/hxxPPfVUyA9Wpk2bxrRp05g+fbqxgKBPVlYWS5cupaCgIGB79+7dgcoa2Tt37sRkMhnboHIxwPr163P69GkWLVoEBM6OPn981b0HUBmoP/roo0HbCwsLeeqpp4xfX3vttSH75+TkGIub+jt8+DCvvPIKUPkBU2ZmZsj+IiIiIlKzVLJDREREwnZ+zWev18uxY8dISkzkv3vfhscLURYL9RulU1hURLTNSsmZEkpLSymx27GX2vl1v35BixpC9eor+ysuLuahhx6ioqKChg0b8oc//IGcnJyQ+yYlJREXFwcEBsPjx49n8uTJXHvttRQVFfH+++8zb968Ks85YsQIPv30U/Ly8pg5cyaFhYX07NmTpKQkNm/ezFtvvWXM7Jw0aVLADNoWLVowaNAgli5dyvHjxxk+fDgDBw6kY8eOHDx4kFWrVrF+/fqIr0P37t3JysqipKSEJ554goEDB5KZmcmePXtYsGCBMZv1x2DUqFGsX7+e/Px8Jk2aRHZ2Nt26daNp06YcPnyY1157zQiNb7/99qD+6enpxs9PPvkkAwYM4L/+679o0aIFXbt2NcpRLF68mMaNG9OjRw9KSkrYuHEjL730Em63+7I/x+TkZP7v//6PF154gcLCQoYPH86gQYP46U9/SnZ2Np988gl/+9vfgMoSGt26dTP6Hjx40FjEb8GCBXz00UfGa7RHjx5Mnz7deA/dcMMNNGzY0OhrsVi4+eabWbNmjfENAv/A2udS74HPxx9/zJgxY7jjjjvIzMzkiy++YOnSpcYHBffdd5+x2GIoixYtoqKigl69epGamsqmTZtYvHix8WHC+PHjjXrcIiIiInJ56W9dIiIiEhH/BQiTk5NxuVwcO3aM2NgYfJlykyYpnDt3llMnT9IwKYnoaBtpTdOIiYmlcaNkI/SqyfrRa9asITc3F4DTp0/Tt2/fKvd9/PHHGTx4MADdunXj9ttvN/o/+OCDAfv6FqkLVeqgadOmzJs3j9/97nfY7Xbmz5/P/Pnzg/YbPXo0d911V9D2iRMncvDgQbZu3cru3bt5/PHHg859ww03sHbt2otfgP/o168f7733HoWFhaxZs4Y1a9YEtPue649Beno6c+fOZfDgwZSVlTFnzhzmzJkTtF/Pnj0ZMWJE0PbbbrvNKP+ybt061q1bR4sWLfjggw+Ij4/nd7/7HYsXL6a4uJgnnngioG9MTAz/8z//UysLSA4fPpzjx4+zbNkyDhw4YHxLwF9KSgrPPPNMwDb/che5ubnk5+fTpEkTADIyMkhPTzfeU/7lOnxuueUW47VktVqNMh/+LvUeANxxxx1s2bIl5OsZKt/D48aNC9kXoH///qxevZrly5ezfPnyoPZ+/foZvx+IiIiIyOWnkh0iIiISMV+pDYvFYnzVPS2tKU2bNiUtLY3ExEQ6dOjAzTffTNtrrqFdu3a0ysykWXpToqOjQ5bquNRQ+vz6vRdisVgC+j377LP069ePRo0aBezXtWtXFi5caMwMDXWONm3asGDBgoCZpz7p6elMnDiRkSNHhhxHVFQUs2fPpk+fPkGzM3v16sWSJUtISUkJGrP/WM7fnpGRwYoVK+jSpYtRcgIq6wI/+OCDzJgxw+jj/3zOvyahhLNPpCI5b1Xtvu2h2tu1a8e8efPo0qVLUFvTpk2ZPHkyr776KjabLai9a9euvPTSS9x0003GNv/X6cSJE5kwYYIR4vq0b9+eN954g+uvv97oc/7ru6rnVNX2qu63z6RJk/jTn/4U9BpOSkqiV69evPPOO0GLWfbu3duog96vX7+g5+E/4zlUIO1foqNTp07ExsaGHFt174HvuaampvL222/zs5/9LKA9KiqKu+66i5deeqnK6+I7/9tvv03Hjh0DtsfGxnLvvfcyZcqUKvuKiIiISM0zeS/1+7EiIiI/AidPnsRkMpGYmHhJAer5far6Y7i0tBSoDJO+L06ePEnjxo0Dxuz7OdLHqtrOnj17wa/d14acnBzKyspo2rSpseBhuOx2O7m5ubjdbpKTk0lJSQn7dXL27FmOHTuGyWSiefPmVYZ7kXA4HBw9ehSLxULz5s0DAuqaUlFRUe2+NputRhe0vJjS0lKOHz8OfDfzPVx2ux2Xy0VcXFzI8DovL4+CggJSU1Pr9H3rdrs5deoURUVFNG7cOChkDsVutxMfH18Lo7u0ewDhv0/y8/ONwHzy5MkMGjTIOH9OTg7R0dE0a9Ys5L2UK5P+nBYREfn+Ov/PaZXsEBERkYj4l+w4v6b0xR5DHacmy3bUhGbNmlW7b3x8PG3atKlW37i4uGr3rYrNZjNmwF4OR48e5bbbbqt2/1dffZWf//znNTiiC0tISKj2Nb5YYJuSkmLMZq9LFouFpk0rv60QrtoKo+HS7gFc+vskISEhoG68iIiIiNQ+lewQERGRsIWadVZV6Y1Qj+eHzjVVrkPqhsfjqdP+IiIiIiJy5dEMaREREQmLyWTC4/FgNpuDZj1HMlMaAr8C7Wv7Ps2SlvCkpaUxe/bsave/8cYba3A0IiIiIiJyJVAgLSIiImGxWq2cPXuW2NhYLBbLJYfSEFg/2uVyXZYax3L5xMTEXFLJDpHLpV69egwePBhAJTpEREREvmcUSIuIiEhYYmJiOHPmDLm5uTgcjioXeoqUyWTCZrORmJgY8QJnIiKhxMXF8fjjj9f1MEREREQkBAXSIiIiEpaYmBgAoqOjcTqdNRpIW61WYmJijHOIiIiIiIjID5MCaREREQmL2WwmLi6OuLi4uh6KiIiIiIiIXKHMdT0AEREREREREREREflxUCAtIiIiIiIiIiIiIrVCgbSIiIiIiIiIiIiI1AoF0iIiIiIiIiIiIiJSKxRIi4iIiIiIiIiIiEitUCAtIiIiIiIiIiIiIrVCgbSIiIiIiIiIiIiI1AoF0iIiIiIiIiIiIiJSKxRIi4iIiIiIiIiIiEitUCAtIiIiIiIiIiIiIrVCgbSIiIiIiIiIiIiI1AoF0iIiIiIiIiIiIiJSKxRIi4iIiIiIiIiIiEitiKrrAYiIiMiVwePx4HA4cDgceL1evF4vQJWPPr59vV4vSUlJREXprx8iIiIiIiI/VpohLSIiImEpLy/H6XQCYDKZMJlMxs+hHn1MJhMej4eioiJKS0uNY4iIiIiIiMiPjwJpERERCUt5eTkQGDyHG0p7vV7OnTuH2WzGbrcrlBYREREREfmR0ndmRUREJCxOpxObzYbX68VkMhmPQNA2/0dfu8PhwGq14nK5sNvtxMfHY7Va6/IpXRF27NjBvn37iI6Opn///sb2rKwslixZQtu2bRk0aFAdjlDqwooVK3A6nbRv354OHTrU9XDCtn//frZv347JZOK3v/0tFoulrockIiIiIrVMgbSIiIiExRcuhwqcqwqjfY9utxuHwxFQP1qhdHjef/99lixZQnx8fEAg/dhjj7F3714AMjMz6dKlS10NUerAM888g8PhYOjQoVdUIL1hwwZeeOEFAPr27UtcXFwdj0hEREREaptKdoiIiEjYQpXm8P+vqn3cbjdOpxOLxUJUVBRRUVFYLBaV77gE/mVRzi+RIiIiIiIi8n2lGdIiIiISEf+Z0b5fOxwuzObK7f5lOgA8Hg9Ol5sKhwOzOfizcM2Urp7p06ezdOlS2rRpQ+fOnet6OCIiIiIiImFRIC0iIiIR85+R63A4sNksRJn/U08a8J+v6/V68bisxMfF/mdfW8CxvF4vpaWl1K9fP6Ckh1xY69atmTp1al0PQ0REREREJCL6V5+IiIiE7fy60eXl5SQnJ/NtbiHH88sxm018F0d78U2krqhwYotOJCsri4KCAmw2G1ar1SjfERsbi9PpJCkp6YqeKV1WVsaJEycoLy8nNTWV5OTksMtplJeXk5OTg9vtpmXLlkRHR9fImDweDzk5OZw7d46rrroq6AOBiykrK+Pw4cOkp6eTlJRUI2O6XOf1eDzk5+eTl5dHfHw8aWlpxMTERHRep9PJgQMHiI6OplWrVlXu53K5+Oabb0hKSqJJkyZB7eXl5Xz77bckJiaSlpYW9vgv5V7VFbvdTm5uLl6vl/T0dBISEiI+xqlTp8jLyyM1NZXGjRtHfP4jR44QHx9Penr6Ff17iIiIiMiPgQJpERERiYgvlC4rKyfaZuLQsdMs23yWqGj/4O8/9aO9XrwmE16vBec5uPMGG22vScJ+1kF8vVgAo4yHL+Cubpj0zjvv8MQTT4S177Rp07jzzjsBGDFiBOvXr6dDhw4sW7Ys5P7Dhg1j06ZNdOrUiUWLFgW179q1i9mzZ/P5558HbG/WrBn33nsvgwcPrnIsp0+f5vnnn2fVqlW4XC6g8pr07t2bcePGVdnvxRdfZP78+cTGxrJ9+/ag9v379zNt2jR27dpFeXk5AFarlVatWjFkyBD69OkTsH9RURHdu3cHYMqUKaSmpvLKK6+wb98+3G43ACkpKTz66KP88pe/rHJckaqJ87pcLubMmcNf//pXCgoKjO1RUVH8/Oc/5+GHH6Zly5ZB/Z5++mmWLVtGo0aN+Mc//sEjjzzCtm3bOHfuHGlpaXzyySdB+61Zs4aJEyfy+eefU1ZWBkCLFi14+umn6dy5Mzk5OTz77LN8/PHHxoc3KSkp9OvXj9GjR4ccf6T3KhJ79+41FsOcOXNm0DXcvHkzQ4cOBWDy5MkMGDAgoH3Pnj3cfffdQOVr7he/+IXRtmvXLmbNmsXGjRsD+nTp0oWxY8dedLFFj8fDX//6V1599VXy8/ON7ZmZmYwdO5Zbb701YP/zXysdOnTgz3/+M1u3bjX2qVevHgMGDODhhx9WMC0iIiLyPaVAWkRERMLmP0PabDERZTFTZPeQkJBAw1gTLi8EF+2AKLOV09HRlHs91E8w46Ucmy0wLPJ6vZSXl1drdiVUhpIejyesfX1Bp3+/Cy2ueKF9srKyuO+++7Db7UFtOTk5TJs2jbKyMkaMGBHyuA8//DBbtmwJ2O7xeFi7di07duzgJz/5ScRjeu+995g0aZIRcPs4nU727dvHI488wokTJwLG5Ha7jeu3fft2PvzwQyMc9cnLy2Ps2LGUlZUZIeWlqonzTpkyhXfeeSdou8vlYu3atezcuZNly5YFzWT2XcPy8nLGjBnD5s2bQ47Rt5/D4WD8+PH861//Cmg/evQow4YNY968eTzyyCOcOnUqaPxz5szB4/EwZsyYgLbq3KtItG7dmri4OOx2O1u3bg0KpDds2GBc//Xr1wcF0tu2bTPaO3bsaGw/fPgwQ4cOpbS0NOicW7Zs4f7772f58uVkZmZWObaXX36ZxYsXB20/dOgQf/rTn1i4cCFdunQxtvu/Vvbv38+zzz7L2bNnA/qWlZWxYMECSktLeeqpp6o8t2yfrFkAACAASURBVIiIiIjUHQXSIiIiEhFfCQqTyQQmE1arGZvFjQkTFmOvylDaWPzQAzazF+t/akR78YZcHPH8UC4Sv/rVr+jatWvItrNnzzJs2DCKiopIS0sLmnlZXcePH2f48OHY7XbMZjP33XcfPXr0ICkpic2bN7NkyRKys7OZNWsWKSkp3HXXXQH9Z8yYYYTR1157LQMGDKBjx44cOHCA1atXs27dOtauXRvRmCoqKpg5cyYulwubzcb48eO56aab8Hg8rF+/nqVLl5Kfn8+sWbMYMGAAiYmJQcdYtWoViYmJPPbYY3Tq1AmAf/zjH8ybNw+Px8OLL77IHXfcQWxsbDWvXGjVOe/s2bONMLp9+/b89re/pWPHjmRnZ/Pxxx/zt7/9jePHj/PAAw/w9ttvEx8fH3TekpISNm/eTMeOHbnjjju45pprQo6vuLiYf/3rX/z+97+nb9++WCwWli5dysqVK3E6nQwZMgSAX//61wwYMICGDRuyceNGpk+fjtvt5s033+Shhx4yaqXXxL26mKioKLp168aHH37Itm3bgto3bNhg/LxlyxacTmfAzGLf7ONrrrnGKKVRVFTEAw88QGlpKVFRUTz44IP06NEDk8nEhg0bmDNnDqWlpTzwwAOsXLmyypIrixcvpnHjxtxzzz10796dM2fO8Mknn7B48WLcbjejR4/mnXfeIT09Paiv79sMv/nNb+jVqxdNmjRh06ZNvPXWW+Tk5LBixQratm3LwIEDI75mIiIiInJ5KZAWERGRsPlC5IAw2evBiguryYyL7wJmi9mM2WzGbDJjMoMXN2azFy+mgFDbP5S+FHFxcbRo0SJk25gxYygqKsJqtfLyyy/TsGHDGjnn66+/Tl5eHgDjxo0zSh9A5czUnj170r9/f+x2O8888wx9+/Y1SpRkZ2ezZMkSANLS0pg/f74xroyMDHr37s2DDz4YEBiG48CBA2RmZpKZmcnAgQMDSixce+21xMbGMmPGDKByRnKocD46Opq//OUvXH/99cY23zVcuXIlp0+f5tChQ7Rv3z6isV1MpOf1zTwGSE9PZ968eQHX8L//+7+Jiopi+fLlZGVlsXz5cu6///6Q5+7duzcvvPDCRcs8DBo0iEmTJhm/fvrppzl+/LhRtuIXv/gFzz77rPEav+qqqygqKuK1116joqKCb775hrZt2wI1c6/C0b17dz788EMOHTpEUVGRERCfOnWKAwcOAGCz2SgrK+PLL7+kc+fOQOW3FnzlYHr06GEc79VXXyUnJ8d4/r7yNwAdOnQgJSWFyZMnk5uby5IlS/jTn/4UclxWq5VXX301oLRH165dadCgAS+//DLFxcW89tprTJs2LWT/e+65h4kTJxq/bt26Nd27d+fuu+/m7NmzzJgxg7vvvluLpYqIiIh8z5jregAiIiJyZfEFbWaTCa8XYmxmmjS0ktwgisYNrDSuX/lYL8qJuyyfkvzDlOV/i/dcPmZcGPWlTYGPl8ubb77JmjVrgMrSDtddd12NHXv37t1AZQjnH0b7tGzZ0ijRcPbsWQ4fPmy07d271/h56tSpQSG52Wxm5syZEdfBve6661i0aBGLFi0KCDh9/OsR+4/BX+fOnQNCYZ///d//NX7Ozs6OaFzhiPS8vusPoa8hwMSJE0lJSQna/3yjRo0K61r//ve/D9rWrVs34+c777wz6DV90003GT8fOXLE+Lkm7lU4/MNk/1nSvprn7du3p2fPngHboDIwP3PmTNAxdu7cCVSGx/5htM9vfvMbI3S/0DW///77Q9aZHjlypDFLfd++fSH7NmvWjAkTJgRtz8zM5KGHHgIqZ6D7v+dERERE5PtB0wVEREQkbOfPkDZbLJwpPMG2z7NoWD8Gt8eD2RKF1+tm6/rVHNz9b1JSGoPbzfY9h7l3UH8emTCOKIs55PFq2tatW3n++ecB6N+/v7G4W01wOBzG7NILLd7mH7Du3r2bVq1aAYEB4w033BCyb4MGDcjIyCArK6va4zxx4gQFBQWUlJRQWloaUPPXv5Z2VWP2l5qaavzsW9CvJkV6Xv+ws6p7YLPZaNu2LXl5eezatSvkPvXq1aNNmzYXHV+9evXIyMgI2l6/fn3jZ9/99ecLxIEL1jmvzr0KR1paGpmZmRw6dIht27Zx2223Ad+Fz7fccgupqal8/PHHbNiwgbFjxwLfhdf16tXjxhtvBCpf977rXlJSErSQp09hYSFQuShiVaqqj24ymejQoQP79+/nm2++CSojApWvlapmPvu/n/bt20fr1q2rHIOIiIiI1D4F0iIiIhKR78JjL2azhcJTJ3hm7F/p3K0Rh055KDj4LdAYWAjA7Xf8msLTBRQcP8yG9Z8w7v/GYDabg8Lomp4pferUKcaMGYPb7aZ9+/ZMnjy5Ro+flZVl1LwOFUL6+Lft2bOHvn37At/N/ExJSaFBgwZV9m/dunXEgXRJSQkvvPACn332GSdPnoyoL0BycnLI7TabLeJjXc7z+oLRlJSUgFD4fFdffTWfffYZubm5FBcXB9VittlsYb3+wnn+kb6OL/Vehat79+4cOnTIqAnt8Xj497//DUDPnj2N0H/fvn0UFBTQqFEjI5Du0qWLEQh/8803xjH37t1bZQkUn8LCQvLz84360/4uFBRfffXVQOXijocPHw76wMDXfqG+vjH6zzQXERERkbqnQFpERETCFhgeVwZvMTEm2nQzc1O3psy893d4zQ68bisfr74OV3kJbq+FA/sPMLp7Txo1iMcaZcXtcQcdryZnSDscDkaPHk1hYSGJiYm8/PLLlzVMvVAI6d9WnecYacCZnZ3NsGHDOHbsmLEtOTmZpKQkEhISaNCgAZ988knE45CaV5v3qkePHixatIgDBw5QXFzM0aNHOXPmDImJiVx33XWYzWbatGlDVlYWGzdupE+fPkYg7V+u4/yFR6uqI757927S0tKq/JAhEqHeN5e71I+IiIiIXD4KpEVERCQivvA4KsqCo6KCNh1u5N1/LMQSBVFmEw0TzBz6No/r27birr53cLKghOzsfDJaNmbl229w/MRxmjdvDnDZZkhPnz6dr776CrPZzEsvvUTTpk0v2sfpdFbZ5l86wadNmzZERUXhcrkCZo2e7+DBg8bP/uFd27Zt2bBhA3l5eZw5c6bKWdK+siDhWrlypRFw3nPPPYwaNSpgRrDT6azROtp16dprr2X9+vXk5eVRUlJS5Sxp3z1IT08Pmh1dl2rzXnXq1Ino6GgqKirYvn27MUO/R48exkKbt9xyC1lZWWzYsIH27dtTVFRk7OPTpk0bLBYLbrebkSNHMnr06GqP6cCBAzRp0iRkm+89ZbVayczMDNm3Kv7vOV8taxERERH5/tCihiIiIhI2/4UIXS43TqeLOJuZgqJcTh38ko//Oo+NG7eSfXgvmDzs2HuIzz7fQkFxDvmnTpCU3Jgvtm0zSnZcjoUN3333XZYtWwbAmDFj+OlPf3rB/RMSEoDKEh+huFwujh49GrTdZrMZpQG+/vrrKo/v3+YfSLdr1y7kPv7OnDnDoUOHLjD6YL6avklJSYwbNy4ogN2+fXtEx/s+87+eVV1Dh8Nh1Ov+vgXxtXmvoqOj6dy5M1BZW913bt9ihlAZSANs3LiRLVu2AJULczZr1szYJyYmxihDU1VN7nDt2LEj5Hav12vcz1atWoVcbHLnzp1Bs7V9vvrqK+NnBdIiIiIi3z8KpEVERCQivvA4ISGeCoeDhvFxpFpclObm0uHqltQvL2Tv1n/TsnlzUhPr0aVDK9q1SMdihkaNG7Pq7+8aQVJNh9J79+5l6tSpAPTq1Yvhw4dftI8vGC4uLg4ZkC1btqzKBfx8AefXX3/NG2+8EdR+5MgRXnrpJQDi4uICFsTzD8qmTp3K6dOnA/p6vV7Gjx9/wZnbofgWzXO5XDgcjoA2p9PJ4sWLIzre95l/ID116lSKi4uD9vnzn/9MXl5e0P7fB5frXmVlZbF06VIKCgoCtnfv3h2AdevWsXPnTkwmk7ENKhcDrF+/PqdPn2bRokVA4OxoH991/Pzzz3n33XeD2l0uF6NGjeL2229nyJAhVY5z/vz57Ny5M2j73Llz2b9/PxD4wY2/nJwcY8FSf4cPH+aVV14BKj80CjW7WkRERETqlkp2iIiISNjOr/ns9Xo5duwYSYmJ/Hfv2/B4IcpioX6jdAqLioi2WSk5U0JpaSkldjv2Uju/7tcvaFFDqF59ZX/FxcU89NBDVFRU0LBhQ/7whz+Qk5MTct+kpCTi4uKAwGB4/PjxTJ48mWuvvZaioiLef/995s2bV+U5R4wYwaeffkpeXh4zZ86ksLCQnj17kpSUxObNm3nrrbew2+0ATJo0ySiNANCiRQsGDRrE0qVLOX78OMOHD2fgwIF07NiRgwcPsmrVKtavXx/xdejevTtZWVmUlJTwxBNPMHDgQDIzM9mzZw8LFiwwZr7+EDRp0oSRI0cyZ84ccnNzuf/++xkwYAA33XQTx44d46OPPmLFihVA5QJ6AwYMqOMRB7oc9+rgwYPGIn4LFizgo48+Ml53PXr0YPr06cb74oYbbqBhw4ZGX4vFws0338yaNWuMbwX4B9Y+o0aNYv369eTn5zNp0iSys7Pp1q0bTZs25fDhw7z22mt8+eWXANx+++1VjtXpdPLHP/6RIUOGcPPNN1NSUsKnn35qfLiTmJjIyJEjq+y/aNEiKioq6NWrF6mpqWzatInFixcbHyCNHz+eqCj9c0dERETk+0Z/QxMREZGI+C9AmJycjMvl4tixY8TGxuDLlJs0SeHcubOcOnmShklJREfbSGuaRkxMLI0bJRsBWU3Wj16zZg25ubkAnD59mr59+1a57+OPP87gwYMB6NatG7fffrvR/8EHHwzYNzU1lQYNGpCVlRV0nKZNmzJv3jx+97vfYbfbmT9/PvPnzw/ab/To0dx1111B2ydOnMjBgwfZunUru3fv5vHHHw869w033MDatWsvfgH+o1+/frz33nsUFhayZs0a1qxZE9Due64/FKNHjyYvL4933nmH3bt3M2nSpKB90tLSmDdvHvHx8XUwwqpdjnvlX7okNzeX/Px8o05zRkYG6enpxvvEv1yHzy233GKc02q1GmU+/KWnpzN37lwGDx5MWVkZc+bMYc6cOUH79ezZkxEjRlQ51qFDh7Jw4UKee+65oDaLxcKsWbMCyoX469+/P6tXr2b58uUsX748qL1fv37Ge1xEREREvl9UskNEREQi5iu1YbFYjK/Fp6U1pWnTpqSlpZGYmEiHDh24+eabaXvNNbRr145WmZk0S29KdHR0yFIdlxpK+88+vhiLxRLQ79lnn6Vfv340atQoYL+uXbuycOFCYxZpqHO0adOGBQsW0K1bt6C29PR0Jk6cWOUsz6ioKGbPnk2fPn2CZnL26tWLJUuWkJKSEjRm/7Gcvz0jI4MVK1bQpUuXgNq70dHRPPjgg8yYMcPo4/98zr8moYSzT6Rq4rxPPvkkI0eOJCkpKahf7969WbhwYcjF86q6hpHuV9V1vFh7de+V/3HO3967d2+jtnm/fv2Cnrf/jOdQgbR/iY5OnToRGxsbtA9UltKYN28eXbp0CWpr2rQpkydP5tVXX8VmswW0+Y/3j3/8I1OnTg26b1dddRWzZs2ia9euIc/tO//bb79Nx44dA7bHxsZy7733MmXKlCr7ioiIiEjdMnkv9fuxIiIiPwInT57EZDKRmJh4SQHq+X2q+mO4tLQUICioqUsnT56kcePGAWP2/RzpY1VtZ8+eJTU19XI+jYvKycmhrKyMpk2bGgsehstut5Obm4vb7SY5OZmUlJSwXydnz57l2LFjmEwmmjdvXmUQGAmHw8HRo0exWCw0b9485OJwl6qioqLafW02W40uaOl2uzl16hRFRUXExsaSlpZmlGb5vqvpe2W322ttRnhpaSnHjx8HvvtGQSS8Xi/Hjx+nuLiYRo0aVfm+yc/PNwLzyZMnM2jQIOP8OTk5REdH06xZs6AQXH4c9Oe0iIjI99f5f06rZIeIiIhExL9kx/k1pS/2GOo4NVm2oyZUVSIgHPHx8bRp06ZafePi4qrdtyo2m82YLXs5HD16lNtuu63a/V999VV+/vOf19h4LBYLTZtWztS/0tT0varN8iQJCQmX9No1mUykp6eTnp5e7fP714IXERERke83lewQERGRsIWadVZV6Y1Qj+eHzjVVrkPqhsfjqdP+IiIiIiJy5dEMaREREQmLyWTC4/FgNpuDZj1HMlMaAr8C7Wv7Ps2SlvCkpaUxe/bsave/8cYba3A0IiIiIiJyJVAgLSIiImGxWq2cPXuW2NhYLBbLJYfSEFg/2uVyXZYax3L5xMTEXFLJDpFI1KtXj8GDBwOoRIeIiIjIFUyBtIiIiIQlJiaGM2fOkJubi8PhqHKhp0iZTCZsNhuJiYkRL4YmIj8ecXFxPP7443U9DBERERG5RAqkRUREJCwxMTEAREdH43Q6azSQtlqtxMTEGOcQERERERGRHyYF0iIiIhIWs9lMXFwccXFxdT0UERERERERuUKZ63oAIiIiIiIiIiIiIvLjoEBaRERERERERERERGqFAmkRERERERERERERqRUKpEVERERERERERESkViiQFhEREREREREREZFaoUBaRERERERERERERGqFAmkRERERERERERERqRUKpEVERERERERERESkViiQFhEREREREREREZFaoUBaRERERERERERERGqFAmkRERERERERERERqRUKpEVERERERERERESkViiQFhEREREREREREZFaEVXXAxAREZErg8fjweFw4HA48Hq9eL1egCoffXz7er1ekpKSiIrSXz9ERERERER+rDRDWkRERMJSXl6O0+kEwGQyYTKZjJ9DPfqYTCY8Hg9FRUWUlpYaxxAREREREZEfHwXSIiIiEpby8nIgMHgON5T2er2cO3cOs9mM3W5XKC0iIiIiIvIjpe/MioiISFicTic2mw2v14vJZDIegaBt/o++dofDgdVqxeVyYbfbiY+Px2q11uVTuiLs2LGDffv2ER0dTf/+/Y3tWVlZLFmyhLZt2zJo0KA6HKFcyP79+9m+fTsmk4nf/va3WCyWuh6SRGDFihU4nU7at29Phw4d6no4IiIiIj8ICqRFREQkLL5wOVTgXFUY7Xt0u904HI6A+tEKpcPz/vvvs2TJEuLj4wMC6ccee4y9e/cCkJmZSZcuXepqiHIBGzZs4IUXXgCgb9++xMXF1fGIJBLPPPMMDoeDoUOHKpAWERERqSEq2SEiIiJhC1Waw/+/qvZxu904nU4sFgtRUVFERUVhsVhUvuMS+JdFOb9EioiIiIiIyPeVZkiLiIhIRPxnRvt+7XC4MJsrt/uX6QDweDw4XW4qHA7M5uDPwjVTunqmT5/O0qVLadOmDZ07d67r4YiIiIiIiIRFgbSIiIhEzH9GrsPhwGazEGX+Tz1pwH++rtfrxeOyEh8X+599bQHH8nq9lJaWUr9+/YCSHnJhrVu3ZurUqXU9DBERERERkYjoX30iIiIStvPrRpeXl5OcnMy3uYUczy/HbDbxXRztxTeRuqLCiS06kaysLAoKCrDZbFitVqN8R2xsLE6nk6SkpCt6pnRZWRknTpygvLyc1NRUkpOTwy6nUV5eTk5ODm63m5YtWxIdHV0jY/J4POTk5HDu3DmuuuqqoA8ELqasrIzDhw+Tnp5OUlJSjYwpHKdOneLkyZNkZGSQkJAQclzVvdaXory8nNzcXBwOB1dddRUxMTHVOk5ubi7l5eVkZGREPO5vv/0Wt9tNixYtwn6/2O12cnNz8Xq9pKenh7ymVSkoKODkyZO0bNmS+Pj4y9anNng8Hk6ePElBQQHJycmkpqZGvNBkeXk5R44cwWq10qxZs4jeq16vl9zcXIqLi0lPT6dhw4aRPgURERGRK54CaREREYmIL5QuKysn2mbi0LHTLNt8lqho/2DuP/WjvV68JhNerwXnObjzBhttr0nCftZBfL1YAKOMhy/grm4g/c477/DEE0+Ete+0adO48847ARgxYgTr16+nQ4cOLFu2LOT+w4YNY9OmTXTq1IlFixYFte/atYvZs2fz+eefB2xv1qwZ9957L4MHD65yLKdPn+b5559n1apVuFwuoPKa9O7dm3HjxlXZ78UXX2T+/PnExsayffv2oPb9+/czbdo0du3aRXl5OQBWq5VWrVoxZMgQ+vTpE7B/UVER3bt3B2DKlCmkpqbyyiuvsG/fPtxuNwApKSk8+uij/PKXv6xyXJE6/7wmk4mFCxdy5MgRoPJe9evXz9i/Ote6Ju5xYWEhzz33HP/85z+N+2QymejVqxePPvooixcvZvHixTRo0IBNmzaFPIfX62XGjBl88MEHnDhxAoCEhAQ6duzIk08+SZMmTQL2f/rpp1m2bBmNGjXio48+YsqUKWzYsIHCwkIALBYLvXr14oknniA5OTnkOXft2sWsWbPYuHFjwPYuXbowduzYKhfqO3fuHM8++yyffPIJp06dMranp6fz+9//niFDhgQF6dXpc75Ro0bx6aefctVVV/HPf/4zqH3w4MFs376dRo0a8dlnnwUdz9e/VatWrFq1ytjucrmYO3cuS5Ys4fTp08b2xMREBgwYwB//+MeLfkMjOzub5557jnXr1hkfzFmtVvr06cOECROoX79+wP7+92/dunW8+eabzJ07F7vdbuxzww03MGHCBH7yk59c8NwiIiIiPyQKpEVERCRs/jOkzRYTURYzRXYPCQkJNIw14fJCcNEOiDJbOR0dTbnXQ/0EM17KsdkCg2ev10t5eXlEMzf9uVwuPB5PWPv6Alb/fhdaXPFC+2RlZXHfffcFhEw+OTk5TJs2jbKyMkaMGBHyuA8//DBbtmwJ2O7xeFi7di07duyoMqi60Jjee+89Jk2aZASnPk6nk3379vHII49w4sSJgDG53W7j+m3fvp0PP/zQCLJ98vLyGDt2LGVlZdx9990hxxUp//Nu2LCBf/3rX1Xex+pe60u9xxUVFYwcOZKdO3cGbPd6vXz44Yfs3LmTG2+88aLneO655/jrX/8asK20tJRPP/2UoUOHsmTJkoAZs74xORwOJkyYwAcffBDQ1+12s3btWvbs2cM///nPoNnvhw8fZujQoZSWlgaNZcuWLdx///0sX76czMzMgLa8vDzuv/9+Dhw4YGzzvfdzc3N59tln2bx5M3Pnzr2kPqF07NiRf/3rXxw6dIiCggIaNWoUcK127NiBx+MhLy+P/fv307ZtW6Pd4/HwxRdf4PF4gt43zzzzDMuXLw86X3FxMa+//jpFRUU89dRTVY7r1KlTDBw40PgwwMfpdPK3v/2NkydPMnfu3IDZ1v6vqSlTpvD3v/896LhfffUVw4cPZ+XKlWRkZFzw2oiIiIj8UASvLCQiIiJyASaTyfgPkwmr1YzN4saEGwtuLHiw4MKCG7PXhdnrAo8Lm9mFNaryrx5evEEzG00mU0BQHKlf/epXfPDBByH/e/fdd41yE2lpadx6663VvwB+jh8/zvDhw7Hb7ZjNZoYNG8abb77Jqv/f3p1HR13d/x9/zUwyDFsWIDELBE7YhKCI2LCkxpalkhYtBfSIHrQVAUULjT+sFSyLVkGWsh6gBFAQAgiIX6xBT7FVEwUCtUIDNRqiQIAQDAkJBLPO74+c+TiTmYEkE6YUno9/knzu5975zP3MJOe85uZ9d+3StGnTFBMTI0lavHixxzBq7ty5RhgdFxenl19+WWlpaVq8eLEGDx6sgoICvf/++w26pvLyci1YsEBVVVWyWq2aPn26du7cqR07dmjKlCkKCwszrqm4uNjjGLt27ZLNZtPs2bOVlpamtLQ0TZw40VjN/uc//1mXL19u0HXVx549exQYGKjx48dr5cqVSk1NVWJioiTf57qx7Ha7nn/+eSOM7tOnj+bMmaP3339fy5YtU1JSkvLz87V79+6rjrV161YNGDBAK1as0EcffaTU1FQjOD127JhSUlI89isuLtYHH3ygpKQkrV27Vh999JHWrFmjLl26SJJOnjypN99806XP+fPnNWHCBJWWliogIEBPP/20tmzZoq1bt+qZZ56RxWJRaWmpJkyYoPPnz7v03b59uxEsP/bYY8rIyNChQ4e0YcMG3XXXXZKkjz/+WPv27fOpjyd333238f3Bgwdd2vbu3evyO6LuKvns7GyVlJS4jfP6668bYXSfPn00f/58paWlaeHCherTp48k6a233tLatWu9Xtd7772nwsJC3XvvvVq2bJnS0tI0e/Zs3Xrrrca1LFy40GPfoqIivf322+rUqZOmT5+uv/71r1q1apVGjhwpqbb8zNNPP+3xgwMAAIAbESukAQBAvTlWPDqvlJa9RoGqUqDJrCrZjXMtZrPMZrPMJrNMZsmuapnNdtllMsJol3F81KJFC3Xs2NFjW3Jyss6fP6/AwEAtXbq0yeq2rlq1SgUFBZKkqVOn6vHHHzfaunXrpsTERI0ePVoXL17Un/70J40YMcIIdU+cOKGNGzdKqg3J16xZY1xXbGysfvazn2nixIlKT09v0DV99dVX6ty5szp37qwxY8Zo2LBhRltcXJyaN2+uuXPnSqpdCe0pnG/WrJlWr16t22+/3TjmmMNt27apqKhIx44dU69evRp0bVdjs9m0du1a9e3b163Nl7n2RXZ2tvGhQNeuXbVmzRq1bNlSktSpUycNHTpUAQEBevfdd6861p133qlVq1YZNYcjIiK0evVqDRkyRMXFxcrKyvLad9iwYVq4cKHxnCIiIrRq1SolJSWpsrJSBw4c0Lhx44zzly9frry8PEm1pSMcJWokqXfv3goPD9eMGTN06tQpbdy4UZMnTzba//a3v0mqfR2+8MILxvH4+HgtXrxY06ZNU3l5uXJzc9W/f/9G9/GkW7du63ES4gAAFhFJREFUCg8PV0FBgTIzM11ev44A2maz6fvvv1d6errGjx9vtGdmZkqSAgIC1K9fP0m1taznzZtnjJ2SkmLUtI6NjVViYqIeeughHTt2TIsWLdLYsWO91lkfNGiQFi9ebPz+io2N1eDBgzVy5EgVFBRo3bp1evTRRxUREeHWNygoSCkpKerQoYMkqUuXLvrJT34ik8mkHTt26JtvvtGmTZs8/icFAADAjYYV0gAAoEEcYYzZZJLdLtmsZt0SGqi2wQEKCw5UWFDt15YBlaq+dE4l53J16dw3sl8+J7OqZNSXNrl+vVbeeOMNY/XqzJkzddtttzXZ2I4AsXfv3i4BqUOnTp2UnJwsSSorK1Nubq7RdvToUeP7WbNmuYXkZrNZCxYsaHBN7dtuu03r16/X+vXrXcI8B+fa0c7X4Cw+Pt4ljHb4xS9+YXx/4sSJBl1XfSQkJHgMoyXf5toXziHxSy+9ZITRzl555ZV6lZoZO3as2wZ4rVq1MlaBHzlyxGvfxx9/3C1gb9++vXGfjh8/7tLmWNHdv39/lzDa4cEHHzTKXdQNwh2PU1xc7FILWpLatWun1atXa/369Xr44Yd96uONY3XzgQMHXI47AulJkyZJkj7//HNdunTJaHesqL7zzjuN0DkrK8v40GvmzJluGyy2bt1azz77rKTaEhvZ2dker6l58+aaN2+e2++rdu3audSu9/ae+v3vf2+E0c5mzJhh/PeGt74AAAA3GlZIAwCAequ7QtpssehC4RkdyMhWaJBN1TU1MlsCZLdXK/OTd5WT9ZnCw8Ok6mr980iuHnt4tJ7//VQFWMwex2tqmZmZmj9/viRp9OjRGj16dJONXVFRYZQo8LYxnCSXYDcrK8sos+AcPt1xxx0e+wYHBys2NtZrSFYfZ86c0XfffaeSkhKVlpa6lAXwViLFUxgtyWXlp3MQ2FS8hdG+zrUv/v3vf0uq3UAwLi7O4zlWq1VxcXFXLUfh7cOQqKgoSbVzWlVV5ba5XmBgoFEaoq7IyEijr0NFRYURMpeUlLiVtnBw1EOuG4T369dPR44c0fnz53Xfffdp+PDh+ulPf6o+ffq4Bbq+9PHm7rvv1o4dO/T111+rqKhIoaGhys3N1enTp2W1WjV27Fht2rRJZ8+e1b59+zR48GDZ7XYjwHZskim5hu1FRUUe58K5ZElWVpbH+9S1a1evz8P5/fuf//xHgwYNcjvHWy34Zs2aqUePHvr0008JpAEAwE2DQBoAADTID+GxXWazRYVnz+hPz25V/MB2Ona2Rt/lfCMpTNI6SVLS8PtVWPSdvjudq/RP/qGp/y9ZZrPZLYxu6pXSZ8+eVXJysqqrq9WrVy/NmDGjScfPzs42Ng28UvDp3HbkyBGNGDFCUm1wJUnh4eEKDg722r9bt24NDqRLSkq0cOFCffzxx8rPz29QX0lq27atx+PeShk0FZvN5vG4r3Pti2PHjkmqDY2v9PxjY2OvGkg7VsLWdbV5bdWqlddzPB3/+uuvje+PHj2qJ5544orjFxYW6ty5c0Z98cmTJ+vLL7/UZ599ppKSEqWmpio1NVVms1k/+tGP9Ktf/UrDhg1zuV+N6ePNgAEDZDabjU0Khw4dapSuiY+PV/PmzZWYmKht27YpIyNDgwcPVk5OjlET3bl+tHPY/swzz1z1sb/88kuPx7t16+a1T1hYmEJCQlRcXGy8r51ZrVav5YSk2rD7008/VV5enkpLSxu9sSsAAMD/CgJpAABQb67hcW2AbLOZ1H2gWXcNjNKCxx6R3Vwhe3Wg9rx7m6q+L1G13aKvvvxKU36cqHbBrRQYEKjqmmq38ZpyhXRFRYWmTJmiwsJChYSEaOnSpdc0TL1SmO7c1pjn2NCg/sSJExo3bpxOnjxpHGvbtq3atGmj1q1bKzg4WP/4xz8afB3Xi2s5157ExMTo4MGDys/PV2VlpdcSKteihEljOcJ7B2+1vrOyshQZGen2AYTNZtOaNWu0d+9evfPOO0pPT1dxcbFqamq0f/9+7d+/X5s3b1ZKSoqCgoIa3ceb4OBg3X777friiy904MABl0D6nnvuMb5u27bNOO5YHd2uXTuX1eSVlZVXnQfHXPTq1Uu33HLLFa/tavzxHgcAAPhfRyANAAAaxBEeBwRYVFFeru69+2jn/62TJUAKMJsU2tqsY98U6PYeXTRyxHDlf1eiEyfOKbZTmLZtel2nz5w2aqleqxXSc+bM0RdffCGz2axFixYZJRGuxDm4qsu5zIVD9+7dFRAQoKqqKpcVqXXl5OQY3zsHYj169FB6eroKCgp04cIFr6ukHaUq6mvbtm1GGP3oo49q0qRJCgkJMdorKyubtI62P/g61w4NvcdSbZmNt99+W5WVlfrqq688lu2orq6+4oaE/ta9e3dZLBZVV1frqaee0pQpUxo8htlsVkJCghISEmS325WTk6P33ntPW7ZsUXFxsQ4dOqTly5dr2rRpPvXx5u6779YXX3yhzMxMlZeXG4GzI5AeMGCAAgMDlZeXp2+//dbY0DAhIcHld0mvXr2UkZEhi8WiTZs2udXwrq8rvQ/PnTtnrM521OV2VlFRoePHjys2NtZjf8drOjo6mtXRAADgpsCmhgAAoN6cNyKsqqpWZWWVWljN+u78KZ3N+Zf2bE3Rp59m6kTuUclUo8+PHtPHGfv1XXGezp09ozZtw3TwwAGjZMe12Nhw586d2rx5syQpOTlZAwYMuOL5jgCo7kZsDlVVVW4bxkm1/4bftWtXSdKhQ4e8ju/c5hyS9uzZ0+M5zi5cuGCUjKgvR43cNm3aaOrUqS5htCT985//bNB41wNf57qx97juOLNnz1ZFRYXbOa+++qoRSF4PbDabUb7EUQPbFyaTSV27dtXvfvc77d69W82bN5ckIwRuqj7OHGU3srOz9eGHH6q8vFwdO3ZUTEyMJKlly5ZGzfH09HQjsHYu1yH9cP+qq6s9ltOor6+//loXL1702Ob8uvMUSEvSv/71L4/Hy8vLjdrRzr8TAAAAbmQE0gAAoEEc4XHr1q1UXlGh0FYtFGGpUumpU+rdtZOCvi/U0czP1KlDB0WEtFS/3l3Us2O0LGapXViYdr290ygp0NSh9NGjRzVr1ixJ0tChQzV+/Pir9nGEQMXFxfr888/d2jdv3ux1Az/HSuNDhw7p9ddfd2v/9ttvtWjRIklSixYtXFZIOgdXs2bNUlFRkUtfu92u55577oqrej2pqamRVBuy1g1PKysrtWHDhgaNd73wZa59ucc9e/ZU//79JUmHDx/WpEmT9OGHH6qoqEj79u3TrFmztGnTJt+e3DXgCGIzMjK0c+dOt/aqqipNmjRJSUlJ+vWvf20c//bbb40NQNetW+fWLzQ0VKGhoZJqQ+HG9nG4fPmydu7cqYyMDJdyF7169VJISIjsdruWLFki6YfV0Q6Onzdu3KjCwkKZTCYlJCR4nAdJmjlzpsdQOT09XUlJSUpKStKePXvc2h3X+Yc//MHteGFhoV566SXjZ28bX86bN095eXlux19++WVjU0VvYTYAAMCNhpIdAACg3urWfLbb7Tp58qTahIToJz+7VzV2KcBiUVC7aBWeP69m1kCVXChRaWmpSi5e1MXSi7p/1Ci3TQ0l32v+FhcX67e//a3Ky8sVGhqqp59+2mMAJNWuHm7RooUk1xDoueee04wZMxQXF6fz588rLS1NKSkpXh/zySef1EcffaSCggItWLBAhYWFSkxMVJs2bbRv3z69+eabRgD24osvymz+YS1Ax44d9fDDDys1NVWnT5/W+PHjNWbMGPXt21c5OTnatWuXPvnkkwbPw49//GNlZ2erpKREf/zjHzVmzBh17txZR44c0dq1a7V///4Gj3k98GWufbnHFotFS5cu1UMPPaTc3FxlZGQYq9AdgoOD1bdvX/39739v4mfdeJMmTdInn3yic+fO6cUXX9SJEyc0cOBARUVFKTc3VytWrDBW7SYlJRn9YmJiVFxcrLy8PGVlZclut2vIkCGKiYnRqVOntGTJEp0+fdqlX2P6OLzwwgt6//33JUmvvPKKRo0aJam2/MfAgQOVlpZmrF5PTEx06XvPPffotddeM9rj4uKM4NshIiJCEyZM0OrVq5Wdna1x48bpoYce0l133aWysjJ9+OGHSklJ0eXLl9WyZUv169fP65zu2bNHycnJGj58uDp37qyDBw8qNTVVBQUFkqTf/OY3ioiI8Nj3woULGj9+vMaOHav+/fvr1KlT+uCDD7R9+3ZjDh955BGvjw0AAHAjIZAGAAAN4rwBYdu2bVVVVaWTJ0+qeXObHJnyLbeE6/LlMp3Nz1domzZq1syqyKhI2WzNFdaurREWNmX96N27d+vUqVOSpKKiIo0YMcLrudOnT9fYsWMlSQMHDlRSUpLRf+LEiS7nRkREKDg4WNnZ2W7jREVFKSUlRY888oguXryoNWvWaM2aNW7nTZkyRSNHjnQ7Pm3aNOXk5CgzM1NZWVmaPn2622PfcccdRmBXH6NGjdI777yjwsJC7d69W7t373ZpdzzX/zW+zLUv91iSgoKCtHr1as2ePdvYRM8hPj5e06dP1zvvvOPjM2xa0dHR+stf/qKxY8fq0qVLWrlypVauXOl2XmJiop588knjZ7PZrGeffVbPP/+8KisrNX/+fM2fP9+oSe0QHx+v++67r9F9HJzLXRw6dMgIpKXa8htpaWmSasuQxMfHu/SNjY1VdHS08b6vW67DITk5WWfOnNG7776rQ4cOeSz7YrVatWzZMq81nIcPH679+/d7fE9Jta+xqVOneuwbEhKihIQEvffeey6rqR1atmypFStWeK0jDwAAcKOhZAcAAGgwR6kNi8Uiq9Wqzp07KzIySlFRUYqMjFRISIh69+6thIQE9bj1VvXs2VNdOndW++goNWvWzGOpDl9DaecVsVdjsVhc+r322msaNWqU2rVr53Je//79tW7dOmPVpafH6N69u9auXauBAwe6tUVHR2vatGl66qmnPF5HQECAlixZol/+8pcKCHBdJzB06FBt3LhR4eHhbtfsfC11j8fGxuqtt95Sv379FBgYaBxv1qyZJk6cqLlz5xp9nJ9P3TnxpD7nNFRDxmzsXPt6jyWpffv2SklJUUZGhlJTU7Vhwwalp6drw4YN6t69u77//nuP/Z1/9ja2t/eAt3tc33N69uyplJQUj6t+o6KiNGPGDC1fvlxWq9Wl7ec//7l27Nih+Ph42Ww2SbU1mE0mkzp27KjJkyfrjTfecAlQG9NHkp544glZrVaFhYXpgQcecGlzLr/Rv39/t+uUXMt4eAukTSaTXn31VU2YMMGtprrFYtGwYcO0Y8cOj68rx7xGRERo06ZNGjRokEt7QECARo4cqUWLFnm9TyaTSXPmzNGUKVPcSpb06tVLq1atMmp+AwAA3AxMdl//PxYAgJtAfn6+TCaTQkJCfApQ6/bx9me4tLRUUm1pietFfn6+wsLCXK7Z8X1Dv3prKysr8/ov7/6Sl5enS5cuKSoqyutqSW8uXryoU6dOqbq6Wm3btlV4eHi9XydlZWU6efKkTCaTOnToYGwC54uKigodP35cFotFHTp0cAmom0p5eXmj+1qt1kZ/EOHLXDfkHpeVlRkrpyMjI72+Ph988EEdPnxY/fr10/r16xv2ZPygtLTUKJvhWBFeHzU1NcrLy1NZWZliYmKMUjdN2ae8vFxms/mavD7rqq6uVn5+voqKihQUFKSoqCi3D4Oupr7v1ZkzZ2rr1q0KDQ3V3r17JdXOzcmTJ3Xp0iWFh4e7fUCCxuPvNAAA16+6f6cp2QEAABrEuWRH3ZrSV/vqaZymLNvRFNq3b9/ovq1atVL37t0b1bdFixaN7uuN1WpV165dm3RMZ8ePH9e9997b6P7Lly/XkCFDGtXXl7luyD2uqqrSuHHjVFZWprCwMG3fvl233HKLyznr16/X4cOHJXlfpfvf1rp160bNl9lsVkxMzDXt06xZs4ZeVqNZLBZFR0crOjq60WP48l41m83q2LFjox8bAADgRkAgDQAA6s1TwNyQUFpyXW12pcAa17+ampr/an9/CAoK0gMPPKD169fr3LlzGj58uHr37q24uDiVl5crMzNTR48elSSFhob6FNADAAAANwMCaQAAUC8mk0k1NTUym83XJJS+nlZJo34iIyO1ZMmSRvfv06dPE17NtTN58mSVl5dry5YtKi0tVUZGhjIyMlzO6datm1auXOnTylsAAADgZkAgDQAA6iUwMFBlZWVq3ry5LBaLz6G05Fo/uqqqyi81ZNF0bDbbTbEiuGXLlpo1a5buv/9+7d27Vzk5OTpz5oxCQkLUo0cP9ezZUwkJCfWqr4ybx8CBA2W1WtWqVav/9qUAAABcV9jUEACAemCzpNqNvC5cuKDi4mJVVFQ0WYkNk8kkq9WqkJAQBQcHE+oBABqMv9MAAFy/2NQQAAA0is1mk1S7AVllZWWTBtKBgYGy2WzGYwAAAAAAbkwE0gAAoF7MZrNatGjBCmYAAAAAQKOZ/9sXAAAAAAAAAAC4ORBIAwAAAAAAAAD8gkAaAAAAAAAAAOAXBNIAAAAAAAAAAL8gkAYAAAAAAAAA+AWBNAAAAAAAAADALwikAQAAAAAAAAB+QSANAAAAAAAAAPALAmkAAAAAAAAAgF8QSAMAAAAAAAAA/IJAGgAAAAAAAADgFwTSAAAAAAAAAAC/IJAGAAAAAAAAAPgFgTQAAAAAAAAAwC8IpAEAAAAAAAAAfkEgDQAAAAAAAADwCwJpAAAAAAAAAIBfEEgDAAAAAAAAAPyCQBoAAAAAAAAA4BcE0gAAAAAAAAAAvyCQBgAAAAAAAAD4BYE0AAAAAAAAAMAvCKQBAAAAAAAAAH5BIA0AAAAAAAAA8AsCaQAAAAAAAACAXxBIAwAAAAAAAAD8gkAaAAAAAAAAAOAXBNIAAAAAAAAAAL8gkAYAAAAAAAAA+AWBNAAAAAAAAADALwikAQAAAAAAAAB+QSANAAAAAAAAAPALAmkAAAAAAAAAgF8QSAMAAAAAAAAA/IJAGgAAAAAAAADgFwTSAAAAAAAAAAC/IJAGAAAAAAAAAPgFgTQAAAAAAAAAwC8IpAEAAAAAAAAAfkEgDQAAAAAAAADwCwJpAAAAAAAAAIBfEEgDAAAAAAAAAPyCQBoAAAAAAAAA4BcE0gAAAAAAAAAAvyCQBgAAAAAAAAD4BYE0AAAAAAAAAMAvCKQBAAAAAAAAAH5BIA0AAAAAAAAA8AsCaQAAAAAAAACAXxBIAwAAAAAAAAD8gkAaAAAAAAAAAOAXBNIAAAAAAAAAAL8gkAYAAAAAAAAA+AWBNAAAAAAAAADALwikAQAAAAAAAAB+QSANAAAAAAAAAPALAmkAAAAAAAAAgF8QSAMAAAAAAAAA/IJAGgAAAAAAAADgFwTSAAAAAAAAAAC/IJAGAAAAAAAAAPgFgTQAAAAAAAAAwC8IpAEAAAAAAAAAfkEgDQAAAAAAAADwCwJpAAAAAAAAAIBfEEgDAAAAAAAAAPzi/wO4OVoNMkKrGAAAAABJRU5ErkJggg==;" vertex="1" parent="1">
                    <mxGeometry x="-160" y="940" width="1034" height="365.19" as="geometry"/>
                </mxCell>
            </root>
        </mxGraphModel>
    </diagram>
</mxfile>